<?xml version="1.0" encoding="UTF-8" standalone="no"?>
<svg
   xmlns:dc="http://purl.org/dc/elements/1.1/"
   xmlns:cc="http://creativecommons.org/ns#"
   xmlns:rdf="http://www.w3.org/1999/02/22-rdf-syntax-ns#"
   xmlns:svg="http://www.w3.org/2000/svg"
   xmlns="http://www.w3.org/2000/svg"
   xmlns:sodipodi="http://sodipodi.sourceforge.net/DTD/sodipodi-0.dtd"
   xmlns:inkscape="http://www.inkscape.org/namespaces/inkscape"
   version="1.0"
   width="69.000000pt"
   height="64.000000pt"
   viewBox="0 0 69.000000 64.000000"
   preserveAspectRatio="xMidYMid meet"
   id="svg14"
   sodipodi:docname="paw.svg"
   inkscape:version="0.92.3 (2405546, 2018-03-11)">
  <defs
     id="defs18" />
  <sodipodi:namedview
     pagecolor="#ffffff"
     bordercolor="#666666"
     borderopacity="1"
     objecttolerance="10"
     gridtolerance="10"
     guidetolerance="10"
     inkscape:pageopacity="0"
     inkscape:pageshadow="2"
     inkscape:window-width="1920"
     inkscape:window-height="1000"
     id="namedview16"
     showgrid="false"
     inkscape:zoom="5.53125"
     inkscape:cx="43.593669"
     inkscape:cy="49.565381"
     inkscape:window-x="0"
     inkscape:window-y="26"
     inkscape:window-maximized="1"
     inkscape:current-layer="svg14" />
  <metadata
     id="metadata2">
Created by potrace 1.14, written by Peter Selinger 2001-2017
<rdf:RDF>
  <cc:Work
     rdf:about="">
    <dc:format>image/svg+xml</dc:format>
    <dc:type
       rdf:resource="http://purl.org/dc/dcmitype/StillImage" />
  </cc:Work>
</rdf:RDF>
</metadata>
  <path
     style="fill:#000000;stroke:none;stroke-width:0.1"
     inkscape:connector-curvature="0"
     id="path4"
     d="M 29.7,7.8220339 C 24,12.322034 25.4,22.022034 31.9,23.822034 c 5.1,1.4 5.9,1.3 8.6,-1.5 2.9,-2.8 3.3,-8 1,-12.4000001 -2.3,-4.6 -7.4,-5.5 -11.8,-2.1 z" />
  <path
     style="fill:#000000;stroke:none;stroke-width:0.1"
     inkscape:connector-curvature="0"
     id="path6"
     d="m 51.720339,18.764407 c -7.3,3.2 -7,15.7 0.5,18.1 3.5,1.1 7.8,-2.1 9,-6.6 2.4,-8.8 -2.4,-14.6 -9.5,-11.5 z" />
  <path
     style="fill:#000000;stroke:none;stroke-width:0.1"
     inkscape:connector-curvature="0"
     id="path8"
     d="m 9.4576271,21.09322 c -2.7,2.7 -2.7,8.9 0.1,12.4 4.5999999,5.9 12.5999999,1.2 11.5999999,-6.9 -0.9,-6.8 -7.4,-9.8 -11.6999999,-5.5 z" />
  <path
     style="fill:#000000;stroke:none;stroke-width:0.1"
     inkscape:connector-curvature="0"
     id="path10"
     d="m 24.2,35.8 c -3,3.1 -5.8,6.5 -6.4,7.5 -1.3,2.5 -0.1,8.4 2.3,10.8 2,2 8.3,2.7 9.4,0.9 0.9,-1.5 6.7,-1.1 8.9,0.5 C 44.5,60.1 53,52.3 50.1,44.9 49.6,43.5 46.5,39.6 43.3,36.2 38,30.6 36.9,30 33.4,30 c -3.5,0 -4.5,0.7 -9.2,5.8 z" />
</svg>
