<?xml version="1.0" standalone="no"?>
<!DOCTYPE svg PUBLIC "-//W3C//DTD SVG 20010904//EN"
 "http://www.w3.org/TR/2001/REC-SVG-20010904/DTD/svg10.dtd">
<svg version="1.0" xmlns="http://www.w3.org/2000/svg"
 width="755.000000pt" height="685.000000pt" viewBox="0 0 755.000000 685.000000"
 preserveAspectRatio="xMidYMid meet">
<metadata>
Created by potrace 1.14, written by Peter Selinger 2001-2017
</metadata>
<g transform="translate(0.000000,685.000000) scale(0.100000,-0.100000)"
fill="#000000" stroke="none">
<path d="M3070 6740 c-214 -58 -423 -141 -712 -285 -214 -106 -374 -199 -456
-265 -65 -52 -133 -148 -161 -229 -10 -31 -32 -94 -48 -141 l-30 -85 -104 -55
c-137 -72 -214 -128 -336 -244 -161 -153 -325 -361 -467 -591 -165 -268 -269
-410 -514 -701 -150 -178 -210 -296 -219 -429 -7 -96 14 -169 98 -347 88 -185
117 -271 129 -374 14 -118 41 -196 135 -395 46 -97 87 -189 91 -205 17 -72 54
-131 115 -189 35 -33 78 -80 94 -105 22 -32 48 -54 95 -78 36 -18 83 -44 105
-56 61 -35 204 -94 256 -105 26 -6 98 -10 160 -8 100 2 119 5 156 26 24 14 45
22 48 19 3 -2 -4 -103 -15 -224 -54 -597 -86 -1186 -76 -1384 6 -133 18 -194
43 -222 53 -60 279 -84 375 -41 39 18 48 27 57 60 29 110 58 660 77 1471 4
155 11 282 15 282 4 0 67 -39 140 -86 210 -138 374 -207 709 -300 224 -61 375
-114 530 -184 186 -84 284 -110 425 -110 148 0 228 23 480 138 133 60 288 113
450 152 180 43 326 94 460 159 127 62 196 109 337 227 l86 73 5 -802 c5 -852
9 -915 55 -1019 30 -69 59 -83 162 -82 71 2 214 26 294 51 18 5 19 18 13 432
-4 234 -16 615 -27 846 -11 231 -20 445 -20 475 l0 56 103 -1 c152 0 256 18
396 70 68 25 136 52 150 60 14 8 46 23 71 33 64 27 147 96 178 148 15 25 43
68 64 95 20 27 44 72 54 101 9 29 32 86 51 127 21 44 36 92 37 120 2 25 19 88
40 139 21 52 48 145 61 207 32 153 64 245 145 411 82 169 100 226 100 314 0
81 -20 154 -67 240 -45 84 -84 136 -217 295 -151 180 -310 394 -471 635 -201
299 -305 430 -473 597 -142 142 -302 253 -365 253 -25 0 -68 24 -95 52 -16 18
-28 53 -43 134 -26 140 -55 202 -123 267 -180 172 -863 495 -1250 592 -99 24
-136 16 -262 -61 -159 -96 -197 -134 -259 -259 -42 -84 -73 -100 -190 -100
-134 0 -172 26 -202 141 -8 32 -23 69 -34 83 -62 80 -79 104 -84 119 -3 10
-28 34 -56 55 -46 33 -58 37 -108 36 -31 0 -103 -13 -161 -29z m1565 -212 c28
-14 82 -36 120 -48 75 -24 247 -110 280 -140 11 -10 61 -39 110 -65 50 -26
106 -55 125 -65 19 -11 73 -37 120 -58 93 -44 110 -59 163 -147 46 -78 72
-156 95 -281 16 -88 17 -105 5 -128 -8 -15 -15 -42 -17 -61 -2 -19 -15 -49
-28 -67 -36 -46 -88 -45 -186 5 -40 20 -79 37 -87 37 -8 0 -29 16 -47 36 -41
45 -125 110 -198 152 -30 18 -66 41 -80 51 -81 60 -258 169 -365 226 -38 20
-81 47 -95 60 -32 29 -163 90 -215 100 -48 8 -92 29 -125 60 -14 13 -39 36
-57 53 -54 50 -62 131 -19 197 18 27 91 71 160 96 41 15 75 18 171 16 108 -2
125 -5 170 -29z m-1460 -27 c39 -21 78 -100 78 -156 0 -96 -119 -261 -240
-333 -73 -43 -222 -115 -263 -127 -14 -4 -43 -17 -65 -30 -66 -38 -175 -95
-260 -138 -44 -22 -96 -53 -115 -69 -19 -15 -41 -28 -49 -28 -8 0 -42 -16 -77
-35 -55 -31 -71 -35 -133 -35 l-70 0 -7 36 c-11 58 2 151 28 202 14 26 35 82
49 125 22 72 30 84 106 161 84 85 192 159 358 243 44 22 98 50 120 61 52 26
128 54 240 87 50 14 117 34 150 45 64 21 101 18 150 -9z m284 -705 c85 -45
101 -172 29 -236 -89 -80 -126 -127 -139 -173 -6 -23 -19 -52 -30 -65 -37 -47
-41 -90 -17 -167 21 -68 26 -75 107 -146 18 -16 45 -23 119 -30 113 -11 160
-1 195 40 13 16 38 36 56 45 33 18 71 69 71 97 0 9 15 35 33 59 17 23 50 66
72 95 66 89 137 175 185 224 25 26 89 97 143 159 54 62 101 112 104 112 14 0
312 -168 391 -219 148 -98 235 -173 360 -313 4 -5 27 -23 51 -40 38 -28 143
-145 231 -258 14 -18 36 -45 48 -61 29 -35 90 -180 99 -231 l6 -38 -64 0 c-84
1 -210 31 -257 62 -20 14 -47 28 -60 32 -12 4 -42 25 -67 46 -24 21 -70 51
-102 66 -50 25 -68 29 -133 27 -176 -5 -328 -71 -456 -198 -94 -92 -121 -149
-134 -277 -5 -43 -11 -82 -14 -87 -9 -15 -27 -208 -27 -281 1 -112 30 -239 65
-289 61 -87 175 -177 236 -187 19 -3 64 -15 100 -26 59 -19 79 -20 230 -14
245 9 265 13 341 57 82 49 108 76 151 164 52 103 74 161 92 246 10 44 31 99
49 130 53 88 118 170 130 166 12 -4 37 -87 62 -210 21 -102 31 -680 16 -932
-23 -381 -53 -615 -95 -737 -52 -149 -203 -325 -380 -443 -164 -109 -262 -150
-656 -275 -107 -34 -247 -85 -310 -112 -291 -127 -392 -158 -510 -158 -90 0
-164 20 -326 85 -76 31 -301 111 -499 177 -484 162 -605 220 -758 367 -149
143 -253 351 -327 653 -49 202 -64 351 -65 658 0 269 8 383 40 570 8 47 17
125 20 173 8 115 10 120 49 112 83 -18 127 -76 146 -195 24 -156 56 -276 85
-324 46 -75 125 -118 270 -146 105 -20 134 -21 298 -15 204 7 196 6 292 43
120 45 142 63 155 126 6 31 20 81 31 111 11 31 22 93 24 138 3 45 8 104 11
131 3 27 5 123 5 215 -1 225 -13 262 -117 361 -91 86 -190 152 -281 187 -81
31 -251 43 -330 24 -58 -15 -173 -81 -228 -131 -95 -88 -156 -128 -220 -149
-36 -11 -78 -18 -93 -15 -27 5 -27 6 -22 67 8 76 27 140 56 187 22 37 139 170
179 205 13 11 58 67 100 124 43 57 114 141 159 185 73 73 95 88 221 150 77 38
156 79 175 91 19 12 53 28 75 35 47 15 283 136 307 157 47 41 183 51 247 19z
m2568 -435 c96 -62 257 -257 533 -646 185 -260 354 -488 484 -650 48 -60 104
-139 124 -175 74 -131 100 -258 68 -333 -25 -60 -102 -107 -177 -107 -32 0
-87 57 -123 128 -30 59 -73 97 -126 113 -36 11 -44 9 -97 -17 -134 -67 -130
-174 15 -414 25 -41 54 -87 66 -102 12 -15 36 -48 55 -75 19 -26 46 -60 59
-74 33 -37 33 -139 1 -193 -14 -24 -22 -57 -24 -94 -3 -71 -64 -241 -105 -291
-60 -72 -126 -132 -175 -158 -87 -45 -177 -75 -273 -89 -88 -13 -94 -13 -132
6 -50 25 -84 77 -105 155 -37 140 -37 489 0 1114 54 923 46 1169 -50 1561 -20
80 -49 191 -65 246 -31 107 -36 134 -22 134 5 0 36 -17 69 -39z m-4445 -22
c-1 -24 -17 -96 -34 -159 -53 -199 -67 -271 -78 -399 -19 -228 -12 -648 29
-1835 l18 -518 -36 -72 c-21 -39 -59 -99 -86 -133 l-48 -63 -77 0 c-57 0 -92
6 -139 25 -123 48 -178 89 -299 218 -76 83 -83 94 -107 175 -14 48 -35 106
-45 129 -26 57 -33 125 -21 205 12 88 27 115 81 155 25 18 65 48 90 65 101 73
151 130 196 221 23 49 45 106 49 127 12 74 -30 161 -95 195 -49 25 -152 38
-201 25 -54 -15 -136 -96 -175 -173 -33 -63 -70 -113 -91 -121 -23 -9 -72 25
-127 90 -66 76 -136 181 -136 204 0 22 103 165 258 358 167 206 278 359 472
647 93 138 211 304 262 369 148 190 292 326 333 312 6 -2 9 -23 7 -47z"/>
<path d="M3543 3400 c-88 -19 -118 -45 -193 -170 -96 -161 -114 -286 -55 -405
27 -57 122 -160 277 -303 57 -52 77 -106 85 -219 l6 -83 -59 0 c-39 1 -88 11
-144 31 -47 16 -106 36 -131 44 -33 11 -61 31 -99 72 -29 32 -75 81 -102 110
-26 29 -60 59 -75 68 -16 8 -39 24 -53 35 -19 14 -44 20 -109 22 -82 2 -84 2
-107 -27 -12 -16 -28 -51 -34 -77 -12 -48 -12 -48 28 -95 22 -27 68 -75 102
-108 34 -33 70 -72 79 -87 29 -45 167 -166 203 -177 18 -5 58 -19 88 -31 258
-100 391 -132 550 -131 193 0 345 50 496 162 181 134 368 316 413 403 36 67
37 81 14 148 -23 65 -44 79 -103 68 -25 -5 -74 -13 -109 -19 -44 -7 -72 -18
-90 -35 -14 -13 -41 -31 -59 -40 -18 -10 -72 -57 -120 -106 -69 -71 -103 -97
-169 -129 -44 -23 -86 -41 -93 -41 -6 0 -25 -7 -42 -16 l-31 -16 6 77 c8 115
36 161 190 324 163 171 192 221 192 331 -1 91 -23 140 -127 277 -58 77 -78 97
-126 120 -56 27 -60 28 -257 30 -110 1 -219 -2 -242 -7z"/>
</g>
</svg>
