<?xml version="1.0" standalone="no"?>
<!DOCTYPE svg PUBLIC "-//W3C//DTD SVG 20010904//EN"
 "http://www.w3.org/TR/2001/REC-SVG-20010904/DTD/svg10.dtd">
<svg version="1.0" xmlns="http://www.w3.org/2000/svg"
 width="151.000000pt" height="137.000000pt" viewBox="0 0 151.000000 137.000000"
 preserveAspectRatio="xMidYMid meet">
<metadata>
Created by potrace 1.14, written by Peter Selinger 2001-2017
</metadata>
<g transform="translate(0.000000,137.000000) scale(0.100000,-0.100000)"
fill="#000000" stroke="none">
<path d="M705 1350 c-16 -18 -20 -19 -35 -5 -15 13 -22 13 -71 -1 -69 -20
-194 -82 -225 -111 -15 -13 -24 -33 -24 -51 0 -24 -7 -32 -40 -47 -51 -23
-115 -92 -164 -174 -20 -35 -59 -89 -87 -119 -62 -71 -69 -104 -35 -168 14
-27 26 -59 26 -72 0 -58 79 -180 134 -206 19 -9 53 -16 76 -16 l42 0 -6 -67
c-16 -191 -18 -284 -6 -298 15 -18 76 -20 87 -2 4 6 10 90 13 184 l5 173 44
-29 c24 -16 76 -37 115 -47 39 -9 92 -27 118 -40 60 -30 111 -30 168 0 25 13
68 28 95 34 67 15 116 36 154 68 l31 26 0 -180 c0 -202 2 -209 66 -199 20 4
38 8 40 10 2 2 1 86 -3 185 l-8 182 46 0 c31 0 57 7 80 23 44 30 109 135 116
189 3 24 17 62 30 86 34 58 26 94 -37 166 -28 32 -73 93 -101 137 -54 84 -126
156 -162 161 -13 2 -23 11 -25 23 -8 58 -14 65 -80 104 -38 22 -102 51 -143
65 -73 25 -74 25 -105 6 l-31 -20 -23 25 c-28 30 -51 32 -75 5z m59 -52 c19
-27 17 -30 -22 -22 -27 6 -30 9 -21 25 13 25 24 24 43 -3z m194 -50 c71 -29
162 -97 162 -120 0 -16 -51 1 -101 33 -25 16 -75 41 -110 55 -72 29 -91 42
-83 55 10 17 55 9 132 -23z m-370 -10 c-35 -45 -141 -110 -174 -106 l-26 3 22
28 c22 27 69 56 145 89 57 24 61 22 33 -14z m205 -31 l37 -32 -61 -60 -61 -60
7 45 c13 80 13 83 -21 90 -50 11 -60 21 -39 37 34 24 96 16 138 -20z m-130
-102 c-18 -71 -3 -110 42 -109 16 0 37 -8 47 -18 10 -10 23 -18 29 -18 19 0
79 67 79 89 0 29 -33 28 -53 -1 -8 -13 -18 -20 -22 -16 -9 8 8 34 58 92 l34
39 53 -29 c77 -42 165 -135 190 -201 11 -29 20 -60 20 -67 0 -26 -32 -26 -76
0 -86 50 -185 16 -215 -74 -18 -55 -7 -129 25 -160 23 -24 33 -27 90 -25 71 2
130 22 144 50 5 10 13 37 17 60 4 24 12 46 17 50 14 8 4 -225 -12 -278 -17
-59 -85 -114 -172 -139 -40 -11 -91 -29 -113 -40 -66 -31 -99 -34 -149 -11
-25 11 -84 31 -131 46 -112 34 -154 73 -184 169 -15 49 -21 94 -21 165 0 99
13 110 26 23 4 -29 15 -49 35 -66 51 -43 162 -46 211 -7 21 17 23 28 23 99 0
72 -3 83 -25 107 -56 60 -116 70 -184 30 -24 -14 -50 -23 -59 -20 -13 5 -13
12 -2 49 44 145 161 260 271 265 20 1 21 0 7 -54z m-359 -90 c-16 -58 -16 -96
-1 -517 2 -62 -15 -82 -63 -68 -45 13 -88 55 -116 115 -30 63 -30 83 0 95 30
11 59 52 54 77 -5 28 -41 22 -56 -9 -7 -16 -17 -28 -22 -28 -10 0 -50 49 -50
61 0 4 22 34 48 66 27 32 75 97 106 146 52 79 103 134 113 123 2 -2 -3 -30
-13 -61z m1001 -62 c39 -56 87 -121 108 -145 51 -62 50 -118 -4 -118 -5 0 -15
11 -21 25 -13 28 -43 33 -52 9 -8 -20 5 -43 44 -78 28 -24 32 -33 27 -63 -13
-75 -92 -157 -147 -151 -49 6 -54 39 -41 262 13 203 10 245 -25 366 -7 24 -7
25 17 9 13 -9 56 -61 94 -116z m-266 -149 c27 -22 31 -33 31 -73 0 -41 -12
-71 -30 -71 -3 0 -4 18 -2 40 4 37 2 40 -21 40 -14 0 -27 7 -31 15 -8 22 -34
18 -62 -10 -21 -21 -24 -32 -19 -58 5 -24 4 -28 -4 -17 -16 22 -13 77 5 111
27 53 86 63 133 23z m-459 -4 c39 -39 50 -93 27 -125 -13 -16 -14 -15 -10 11
3 20 -2 38 -17 57 -24 30 -60 37 -60 11 0 -12 -6 -15 -24 -10 -20 5 -25 1 -30
-20 -4 -14 -4 -34 -1 -45 5 -14 3 -17 -9 -13 -36 14 -32 91 6 132 28 29 90 30
118 2z"/>
<path d="M940 997 c-14 -7 -25 -21 -25 -32 0 -17 10 -21 69 -28 40 -4 74 -3
79 2 16 16 -12 50 -51 61 -45 12 -42 12 -72 -3z"/>
<path d="M500 993 c-27 -10 -50 -36 -50 -55 0 -16 7 -18 70 -14 76 5 90 10 90
31 0 24 -76 51 -110 38z"/>
<path d="M670 628 c-36 -59 -27 -89 44 -146 9 -7 16 -28 16 -47 0 -33 0 -33
-32 -24 -50 14 -82 51 -87 102 -2 14 -38 7 -55 -12 -18 -19 -15 -41 5 -41 5 0
24 -16 42 -37 58 -66 148 -90 223 -58 37 15 134 105 134 124 0 15 -39 34 -56
27 -8 -3 -14 -14 -14 -24 0 -22 -45 -67 -82 -81 -27 -10 -28 -10 -28 25 0 28
8 43 40 73 47 45 50 71 14 118 -23 31 -29 33 -85 33 -56 0 -60 -2 -79 -32z"/>
</g>
</svg>
