<?xml version="1.0" standalone="no"?>
<!DOCTYPE svg PUBLIC "-//W3C//DTD SVG 20010904//EN"
 "http://www.w3.org/TR/2001/REC-SVG-20010904/DTD/svg10.dtd">
<svg version="1.0" xmlns="http://www.w3.org/2000/svg"
 width="164.000000pt" height="159.000000pt" viewBox="0 0 164.000000 159.000000"
 preserveAspectRatio="xMidYMid meet">
<metadata>
Created by potrace 1.14, written by Peter Selinger 2001-2017
</metadata>
<g transform="translate(0.000000,159.000000) scale(0.100000,-0.100000)"
fill="#000000" stroke="none">
<path d="M60 1584 c-34 -14 -40 -37 -40 -150 0 -131 17 -227 58 -340 22 -59
27 -85 20 -98 -16 -29 -22 -207 -9 -249 13 -37 12 -38 -38 -93 -51 -55 -61
-77 -41 -89 8 -5 7 -11 -1 -21 -9 -11 -4 -35 20 -110 42 -126 51 -143 109
-196 90 -81 227 -139 419 -178 54 -11 126 -30 159 -41 73 -25 134 -23 244 9
41 11 118 31 170 43 172 39 309 106 391 191 26 27 51 61 57 76 36 102 52 162
51 192 -1 19 1 43 5 52 6 13 -6 32 -47 75 l-54 58 15 35 c16 40 12 203 -7 238
-9 16 -4 40 23 114 43 117 59 225 54 358 -4 130 -9 134 -124 127 -92 -7 -186
-40 -259 -92 l-47 -33 -74 38 c-187 95 -412 92 -614 -10 l-55 -28 -25 21 c-14
11 -63 38 -109 60 -69 32 -96 40 -160 43 -42 2 -83 1 -91 -2z m165 -65 c63
-19 142 -64 187 -106 26 -24 26 -26 11 -57 -8 -18 -24 -38 -36 -45 -18 -12
-23 -10 -41 15 -43 61 -121 136 -171 164 -69 39 -85 39 -85 -2 0 -65 30 -231
54 -300 20 -57 23 -75 14 -92 -10 -19 -12 -18 -29 22 -34 80 -49 156 -56 279
-8 168 -6 170 152 122z m1333 19 c29 -29 5 -256 -41 -393 -22 -65 -25 -68 -36
-47 -10 19 -8 36 13 100 29 92 35 119 45 215 5 39 11 79 15 88 11 26 -18 30
-60 7 -78 -41 -178 -132 -213 -196 -11 -20 -45 2 -68 46 l-18 33 35 29 c55 46
165 100 233 115 79 17 81 17 95 3z m-583 -47 c86 -24 165 -59 170 -74 18 -59
16 -63 -24 -62 -22 0 -45 6 -52 12 -39 30 -60 35 -110 22 -42 -11 -54 -11 -84
4 -45 22 -63 21 -115 -2 -39 -17 -46 -18 -78 -4 -38 16 -70 12 -109 -14 -31
-20 -95 -24 -88 -5 3 8 5 24 5 37 0 20 12 28 80 54 109 43 140 49 245 50 62 1
113 -5 160 -18z m-752 -103 c53 -47 57 -78 11 -78 -34 0 -39 -21 -19 -73 9
-25 15 -55 13 -68 -4 -22 -6 -20 -22 15 -19 43 -49 156 -60 224 -6 39 -5 42
11 33 10 -5 40 -29 66 -53z m1271 25 c-12 -71 -44 -189 -61 -229 l-17 -39 -4
29 c-2 16 4 46 13 67 21 45 14 69 -18 69 -14 0 -30 6 -36 14 -9 11 1 25 51 70
35 31 67 56 71 56 4 0 5 -17 1 -37z m-645 -67 c23 -13 25 -20 25 -87 1 -46 5
-74 13 -76 14 -5 33 56 33 105 0 26 5 35 26 42 35 14 66 12 87 -4 15 -12 16
-19 6 -66 -19 -88 26 -88 52 0 7 22 16 40 21 40 5 0 27 -9 49 -21 33 -16 40
-24 36 -42 -16 -65 -18 -95 -7 -102 17 -11 39 13 46 52 5 27 10 33 23 27 9 -3
26 -9 39 -11 12 -3 31 -17 42 -30 16 -21 19 -35 14 -79 -6 -46 -4 -54 10 -54
9 0 21 11 26 25 8 22 13 24 30 15 11 -6 20 -18 20 -27 0 -9 14 -38 31 -64 26
-42 30 -54 24 -89 -4 -26 -3 -46 5 -55 7 -9 9 -26 5 -46 l-7 -31 -39 38 c-50
49 -54 65 -29 106 27 44 27 88 0 88 -13 0 -25 -12 -34 -35 l-15 -35 -35 21
c-20 12 -36 24 -36 29 0 4 -18 28 -41 54 l-41 46 -78 0 c-57 0 -81 4 -90 15
-8 10 -30 15 -62 15 -27 0 -62 7 -78 15 -15 8 -53 17 -83 21 -43 5 -63 2 -102
-15 -32 -14 -59 -20 -77 -15 -19 4 -42 -1 -69 -15 -26 -14 -58 -21 -95 -21
-72 0 -116 -20 -144 -64 -12 -21 -40 -48 -61 -61 -24 -16 -45 -40 -57 -67 -10
-24 -35 -59 -55 -79 -31 -31 -36 -33 -40 -17 -7 25 4 178 13 178 3 0 14 -16
23 -35 16 -33 39 -45 51 -26 3 5 -3 30 -15 55 -23 53 -19 100 10 116 14 7 20
4 29 -15 7 -14 19 -25 28 -25 14 0 15 8 9 58 -8 68 9 96 62 106 29 5 33 3 39
-22 8 -33 31 -72 43 -72 17 0 19 29 6 86 -7 33 -13 59 -12 60 27 15 96 44 104
44 6 0 14 -17 18 -37 7 -38 30 -73 48 -73 6 0 7 24 3 63 -5 56 -4 63 15 75 21
13 99 8 99 -6 0 -36 24 -138 33 -144 23 -14 29 6 25 80 -3 73 -2 77 22 89 30
15 29 15 59 -1z m47 -271 c16 -8 49 -15 74 -15 28 0 56 -8 75 -20 17 -11 41
-20 54 -20 l23 0 -23 -18 c-30 -25 -20 -48 26 -56 20 -4 52 -15 71 -24 73 -34
72 44 -1 82 -35 19 -37 21 -17 24 29 4 48 -11 73 -60 12 -24 34 -45 58 -58 29
-14 43 -29 52 -57 13 -41 144 -210 186 -241 l26 -19 -47 -37 c-48 -40 -50 -51
-9 -67 19 -7 23 -14 17 -27 -4 -9 -8 -28 -8 -41 -1 -14 -20 -45 -43 -72 -24
-26 -43 -49 -43 -52 0 -3 10 -3 23 0 20 5 19 2 -8 -21 -39 -34 -172 -98 -262
-127 -71 -22 -73 -22 -86 -4 -20 26 -60 15 -154 -40 -67 -39 -85 -45 -134 -45
-41 0 -68 7 -100 25 -157 88 -187 97 -176 54 3 -11 1 -19 -3 -19 -4 0 -54 16
-111 36 -116 40 -200 81 -244 118 -29 25 -29 25 -7 26 22 0 20 4 -23 52 -25
28 -44 57 -41 63 2 7 -2 24 -9 38 -12 24 -11 26 16 36 40 14 36 36 -11 67 -22
15 -40 30 -40 34 0 3 12 17 26 31 55 50 173 200 184 233 7 22 24 42 45 55 19
11 45 38 59 60 34 53 52 61 120 54 48 -5 62 -3 86 16 20 14 44 21 77 21 26 1
59 7 73 15 33 19 120 19 156 0z"/>
<path d="M448 994 c-30 -16 -52 -49 -43 -64 8 -13 157 -1 173 14 17 17 6 41
-24 55 -34 15 -73 13 -106 -5z"/>
<path d="M435 901 c-22 -10 -51 -30 -64 -45 -16 -16 -35 -26 -53 -26 -37 0
-49 -27 -21 -49 14 -12 21 -33 25 -76 12 -121 43 -147 183 -152 76 -4 95 -1
121 15 73 46 71 239 -2 304 -27 24 -88 48 -121 48 -15 0 -46 -9 -68 -19z m125
-69 c20 -10 42 -32 52 -52 34 -67 16 -180 -28 -180 -13 0 -13 3 0 22 24 34 20
74 -11 108 -36 38 -74 44 -88 12 -7 -16 -16 -21 -29 -18 -11 3 -26 0 -33 -6
-16 -13 -17 -62 -2 -90 9 -17 8 -19 -7 -16 -44 8 -57 94 -24 157 38 76 100 99
170 63z"/>
<path d="M1050 902 c-40 -20 -75 -68 -91 -126 -17 -60 2 -161 36 -195 24 -24
31 -26 123 -26 146 1 181 29 197 155 5 38 13 60 28 71 26 21 16 49 -17 49 -14
0 -41 14 -60 30 -67 60 -150 76 -216 42z m172 -93 c30 -36 49 -107 39 -146 -4
-15 -18 -33 -31 -42 -22 -15 -23 -15 -12 6 20 37 14 73 -17 104 -35 34 -80 39
-88 10 -3 -14 -15 -21 -37 -23 -28 -3 -31 -7 -34 -40 -2 -20 2 -46 8 -58 9
-16 8 -20 -5 -20 -20 0 -45 58 -45 105 0 42 18 81 52 111 32 30 46 34 98 30
36 -3 50 -11 72 -37z"/>
<path d="M695 560 c-57 -22 -125 -75 -125 -96 0 -23 27 -16 83 21 63 42 142
58 220 45 65 -10 90 -21 147 -59 29 -20 48 -27 54 -21 17 17 -27 63 -89 95
-51 26 -71 30 -149 32 -71 2 -102 -1 -141 -17z"/>
<path d="M735 488 c-107 -38 -100 -156 14 -209 49 -24 50 -25 51 -70 0 -25 -2
-48 -5 -51 -15 -14 -89 19 -141 63 -32 27 -66 49 -76 49 -22 0 -37 -32 -19
-38 7 -2 38 -25 68 -49 72 -59 109 -73 186 -73 81 0 142 21 187 65 19 19 47
38 63 44 17 7 27 18 27 31 0 34 -44 25 -95 -20 -54 -47 -95 -70 -125 -70 -17
0 -20 6 -20 48 0 46 1 48 46 72 113 59 112 178 -2 209 -48 13 -119 13 -159 -1z"/>
</g>
</svg>
