<?xml version="1.0" standalone="no"?>
<!DOCTYPE svg PUBLIC "-//W3C//DTD SVG 20010904//EN"
 "http://www.w3.org/TR/2001/REC-SVG-20010904/DTD/svg10.dtd">
<svg version="1.0" xmlns="http://www.w3.org/2000/svg"
 width="820.000000pt" height="795.000000pt" viewBox="0 0 820.000000 795.000000"
 preserveAspectRatio="xMidYMid meet">
<metadata>
Created by potrace 1.14, written by Peter Selinger 2001-2017
</metadata>
<g transform="translate(0.000000,795.000000) scale(0.100000,-0.100000)"
fill="#000000" stroke="none">
<path d="M7465 7940 c-352 -31 -688 -126 -998 -281 -107 -54 -187 -104 -369
-231 l-157 -109 -251 126 c-356 179 -542 250 -815 315 -275 65 -449 84 -760
84 -287 0 -429 -13 -686 -65 -323 -64 -588 -158 -948 -335 -214 -105 -256
-122 -270 -112 -9 7 -38 31 -66 54 -27 23 -88 66 -135 95 -127 79 -527 278
-675 336 -246 96 -376 117 -755 117 -289 1 -299 -1 -368 -59 -42 -35 -69 -89
-89 -174 -21 -89 -30 -746 -13 -964 33 -439 107 -787 264 -1241 103 -298 103
-297 117 -382 12 -71 12 -80 -9 -137 -49 -138 -74 -403 -74 -787 0 -269 10
-381 44 -493 27 -90 21 -149 -19 -208 -17 -24 -91 -112 -165 -195 -221 -247
-268 -316 -268 -392 0 -30 7 -45 35 -72 41 -39 43 -57 13 -95 -33 -42 -35
-112 -5 -235 58 -239 223 -720 307 -896 61 -127 143 -236 261 -348 226 -215
450 -367 769 -519 377 -180 790 -311 1380 -437 235 -50 571 -135 735 -185 316
-98 388 -110 631 -102 237 7 245 8 924 185 168 44 445 114 616 156 171 42 396
103 500 137 695 224 1216 536 1536 919 144 172 180 235 248 435 148 436 189
609 200 840 5 94 13 186 19 205 33 105 4 150 -319 496 l-178 190 40 94 c63
147 69 191 75 497 7 377 -17 632 -72 763 -14 33 -25 78 -25 101 0 62 43 217
126 450 116 329 173 536 219 804 49 288 59 423 59 815 -1 618 -27 751 -161
816 -54 27 -64 28 -213 30 -85 1 -200 -2 -255 -6z m-6642 -415 c20 -8 64 -15
98 -15 42 0 72 -6 93 -18 17 -10 49 -24 71 -30 126 -34 166 -48 217 -74 32
-15 79 -35 105 -44 27 -9 84 -38 128 -64 44 -26 96 -53 116 -59 68 -22 153
-132 192 -251 24 -70 26 -94 32 -346 4 -149 4 -297 0 -329 -10 -80 -38 -110
-399 -435 -275 -247 -294 -259 -399 -259 -80 0 -111 10 -150 47 -32 30 -97
123 -97 139 0 15 -67 180 -109 268 -45 93 -124 284 -140 335 -6 19 -15 78 -21
130 -6 52 -14 106 -19 120 -35 95 -51 254 -51 500 0 229 3 249 48 314 46 66
85 86 173 86 45 0 91 -6 112 -15z m3727 -10 c154 -21 328 -64 532 -131 286
-94 496 -186 598 -263 30 -22 63 -41 73 -41 62 0 198 -108 239 -191 35 -72 78
-188 83 -230 4 -24 13 -61 21 -83 8 -21 18 -89 21 -150 6 -111 5 -113 -26
-179 -49 -102 -59 -107 -210 -106 -114 0 -150 4 -246 24 -16 4 -66 24 -110 45
-44 20 -98 43 -120 50 -22 6 -58 21 -80 33 -22 11 -67 34 -100 51 -117 61
-150 69 -245 63 -55 -3 -107 -14 -146 -29 -82 -32 -240 -31 -329 2 -33 12 -75
25 -93 30 -18 4 -39 13 -47 20 -42 35 -300 6 -412 -47 -29 -14 -67 -29 -85
-33 -18 -5 -60 -16 -93 -25 -88 -25 -282 -17 -347 14 -26 12 -84 26 -129 32
-102 13 -197 -5 -291 -56 -35 -18 -83 -43 -108 -55 -25 -13 -63 -32 -85 -44
-42 -22 -110 -32 -266 -42 l-96 -6 -42 37 c-22 20 -50 52 -62 71 -22 36 -23
68 -4 299 3 33 10 123 16 200 24 316 55 347 555 539 414 159 577 199 884 220
136 9 640 -3 750 -19z m3032 -35 c16 -17 43 -37 59 -46 42 -21 55 -49 68 -144
18 -126 -10 -646 -37 -697 -7 -12 -12 -40 -12 -63 0 -23 -7 -69 -14 -103 -28
-117 -66 -312 -66 -337 -1 -28 -32 -126 -53 -168 -8 -15 -35 -81 -61 -147 -50
-130 -90 -189 -142 -211 -71 -30 -169 -10 -229 46 -117 109 -265 267 -265 283
0 14 -25 47 -122 163 -21 25 -38 50 -38 56 0 6 -18 36 -39 68 -48 69 -92 164
-116 245 -9 33 -23 74 -30 90 -27 62 -38 134 -43 267 -4 120 -2 143 17 197 12
34 25 69 31 79 5 9 21 42 35 73 27 61 116 151 226 230 90 65 121 79 176 80 26
0 73 5 103 10 30 5 84 13 120 19 36 6 99 16 140 24 41 8 117 14 168 15 91 1
94 0 124 -29z m-3265 -1585 c87 -30 303 -64 478 -76 217 -16 289 -34 420 -107
139 -78 146 -80 270 -92 66 -6 212 -15 325 -20 228 -9 244 -13 438 -97 89 -38
116 -56 162 -103 62 -64 178 -200 198 -233 8 -12 29 -33 48 -47 19 -14 56 -42
82 -62 26 -21 55 -38 66 -38 11 0 53 -16 93 -36 62 -31 84 -49 134 -111 77
-96 145 -200 172 -266 11 -29 31 -68 43 -87 34 -56 76 -142 85 -175 32 -121
41 -181 56 -397 9 -133 19 -315 22 -404 l6 -161 102 -115 c120 -135 165 -177
261 -248 40 -28 72 -53 72 -55 0 -2 -42 -36 -92 -76 -258 -201 -318 -264 -318
-330 0 -47 33 -75 135 -117 39 -16 77 -39 88 -54 19 -26 19 -26 -1 -86 -12
-32 -26 -97 -31 -142 -6 -46 -22 -106 -35 -136 -35 -75 -133 -215 -214 -305
-109 -120 -182 -215 -182 -234 0 -16 7 -17 63 -11 34 3 76 9 92 12 28 5 25 1
-35 -56 -147 -139 -465 -317 -895 -502 -308 -132 -686 -258 -784 -260 -41 -1
-49 3 -86 44 -22 24 -51 51 -65 60 -99 63 -285 7 -645 -196 -265 -150 -417
-223 -510 -246 -104 -27 -342 -29 -461 -5 -111 23 -178 54 -472 213 -426 232
-547 285 -634 280 -68 -4 -76 -17 -60 -107 13 -75 9 -101 -15 -101 -44 0 -670
215 -938 322 -200 80 -568 262 -682 338 -94 63 -253 194 -253 210 0 4 31 11
70 15 64 6 70 9 70 30 0 27 -32 71 -143 197 -167 190 -241 300 -239 355 2 53
-15 119 -54 205 -27 61 -33 82 -25 97 6 10 46 33 88 51 221 91 214 178 -28
351 -109 78 -199 155 -199 171 0 6 18 31 39 57 22 26 42 63 46 84 4 20 16 48
27 62 28 36 138 204 138 212 0 3 13 27 29 53 16 26 36 67 45 91 8 24 26 67 40
94 14 28 26 64 26 80 0 17 5 48 12 70 6 22 14 81 18 130 4 50 17 119 29 155
43 125 51 156 61 235 11 87 29 154 56 206 35 70 265 312 307 325 12 4 37 20
55 35 18 16 37 29 43 29 5 0 50 34 99 75 82 70 119 115 196 242 29 48 164 167
260 228 78 50 129 73 239 103 70 19 335 51 556 67 352 25 457 43 629 106 47
17 94 33 105 36 35 9 191 82 226 107 33 23 163 76 212 86 23 5 121 7 217 4
148 -5 186 -9 247 -29z"/>
<path d="M5368 5070 c-26 -4 -90 -29 -143 -54 -143 -67 -224 -156 -324 -354
-63 -126 -81 -208 -81 -377 0 -97 5 -172 15 -212 8 -34 17 -76 20 -93 6 -34
33 -103 65 -169 31 -62 116 -150 168 -173 87 -39 654 -34 812 7 135 36 230
106 282 209 31 62 57 126 63 161 3 11 12 53 20 92 9 40 17 114 18 165 2 97
-21 192 -78 328 -12 30 -28 73 -35 95 -21 65 -75 141 -137 190 -70 56 -161
111 -217 131 -23 8 -66 24 -96 36 -62 22 -268 33 -352 18z"/>
<path d="M2505 5049 c-177 -58 -264 -106 -377 -208 -42 -38 -83 -73 -90 -78
-28 -18 -65 -92 -82 -168 -11 -44 -30 -116 -44 -160 -24 -78 -24 -83 -12 -185
7 -58 12 -112 12 -120 -3 -36 42 -210 68 -265 35 -77 71 -120 135 -160 56 -36
165 -72 241 -80 27 -3 94 -10 149 -16 147 -16 442 -17 486 -1 20 7 46 14 57
17 12 2 46 20 76 40 71 47 121 122 165 250 l35 100 0 220 c0 209 -2 224 -27
308 -71 234 -154 340 -337 429 -57 28 -118 55 -135 59 -16 4 -55 15 -85 23
-73 21 -162 19 -235 -5z"/>
<path d="M3783 3530 c-176 -17 -343 -74 -528 -178 -55 -31 -132 -70 -171 -87
-141 -62 -327 -193 -368 -259 -57 -92 -33 -175 68 -235 69 -41 125 -45 178
-14 19 11 51 26 71 32 21 7 63 29 95 50 109 72 225 134 282 152 19 6 73 28
120 49 47 20 119 42 160 49 178 29 589 42 830 26 100 -6 110 -9 200 -55 208
-106 255 -137 366 -236 95 -84 126 -96 254 -97 99 -2 141 16 174 72 30 51 25
109 -14 187 -28 53 -54 84 -133 155 -111 98 -302 219 -385 243 -30 9 -69 25
-87 36 -51 31 -210 80 -261 80 -24 0 -88 6 -142 14 -119 18 -582 28 -709 16z"/>
<path d="M3836 2739 c-287 -42 -495 -199 -541 -409 -13 -61 -7 -173 15 -242
37 -120 149 -262 274 -347 22 -15 100 -58 171 -95 72 -37 133 -70 137 -74 8
-9 9 -69 3 -232 -3 -68 -5 -135 -5 -147 0 -19 -3 -22 -17 -14 -10 5 -45 18
-78 29 -123 42 -146 53 -217 97 -40 25 -76 45 -81 45 -5 0 -37 19 -70 42 -34
23 -73 49 -87 58 -128 86 -255 151 -358 184 -73 23 -89 25 -125 15 -50 -13
-92 -54 -106 -103 -22 -83 17 -153 105 -186 54 -20 88 -44 318 -224 344 -269
545 -338 946 -323 256 10 447 54 624 145 96 49 146 86 264 194 89 81 209 163
304 207 148 70 198 203 109 292 -78 77 -180 53 -432 -103 -91 -57 -199 -133
-240 -169 -41 -37 -84 -70 -97 -73 -12 -4 -34 -18 -50 -30 -15 -13 -47 -31
-72 -39 -25 -9 -82 -32 -128 -52 -46 -21 -86 -34 -89 -31 -3 3 -10 92 -14 198
-8 177 -7 194 9 210 9 9 67 45 127 79 151 85 222 137 294 215 157 172 202 387
117 559 -111 225 -379 337 -797 334 -85 -1 -181 -5 -213 -10z"/>
</g>
</svg>
