<?xml version="1.0" standalone="no"?>
<!DOCTYPE svg PUBLIC "-//W3C//DTD SVG 20010904//EN"
 "http://www.w3.org/TR/2001/REC-SVG-20010904/DTD/svg10.dtd">
<svg version="1.0" xmlns="http://www.w3.org/2000/svg"
 width="497.000000pt" height="532.000000pt" viewBox="0 0 497.000000 532.000000"
 preserveAspectRatio="xMidYMid meet">
<metadata>
Created by potrace 1.14, written by Peter Selinger 2001-2017
</metadata>
<g transform="translate(0.000000,532.000000) scale(0.100000,-0.100000)"
fill="#000000" stroke="none">
<path d="M4052 5294 c-84 -42 -245 -240 -419 -516 -93 -148 -252 -460 -313
-615 l-44 -113 -31 29 c-97 92 -240 108 -488 55 -165 -35 -413 -26 -582 21
-108 31 -242 42 -303 26 -43 -12 -103 -62 -153 -129 l-25 -33 -58 138 c-188
447 -469 830 -741 1011 -105 71 -142 81 -203 56 -86 -36 -112 -113 -186 -564
-49 -295 -66 -452 -73 -675 -5 -173 4 -359 24 -455 l6 -32 -59 9 c-97 13 -194
9 -246 -10 -52 -20 -111 -79 -136 -136 -24 -53 -23 -247 1 -321 29 -87 120
-267 184 -362 117 -174 431 -516 673 -733 66 -59 120 -113 120 -121 0 -8 -31
-94 -69 -191 -94 -240 -114 -321 -114 -453 0 -207 71 -379 229 -550 133 -143
568 -378 780 -421 52 -10 65 -18 84 -47 37 -54 140 -141 179 -152 21 -6 199
-10 428 -10 l391 0 67 30 c75 34 121 67 212 152 34 32 69 58 78 58 32 0 344
110 441 155 209 97 389 247 467 386 58 103 78 192 84 364 7 195 -8 277 -92
526 -36 106 -65 198 -65 204 0 6 30 36 68 66 102 82 429 413 504 509 136 176
231 345 275 486 14 47 18 94 18 229 0 162 -1 172 -26 226 -47 100 -133 162
-239 175 l-55 6 0 302 c0 200 -5 331 -14 391 -67 452 -211 844 -363 992 -72
70 -130 80 -216 37z m121 -385 c40 -21 118 -103 138 -147 11 -23 31 -100 44
-170 13 -70 29 -147 35 -172 14 -56 33 -472 33 -717 1 -163 -1 -185 -18 -203
-10 -11 -27 -20 -37 -20 -10 0 -47 -9 -81 -21 -34 -12 -165 -46 -292 -76 -213
-50 -291 -60 -312 -39 -18 17 -35 231 -40 491 -5 289 -5 291 21 394 24 95 74
208 113 252 7 9 42 66 76 127 89 156 181 266 252 298 37 16 41 17 68 3z
m-3262 -157 c37 -25 54 -43 74 -82 10 -19 30 -49 45 -66 15 -18 40 -58 55 -90
14 -33 38 -84 52 -114 67 -144 110 -269 123 -359 6 -41 13 -77 15 -81 2 -3 11
-40 20 -81 12 -53 18 -149 22 -335 5 -237 4 -262 -12 -278 -16 -15 -19 -16
-41 -1 -14 9 -28 14 -33 11 -4 -3 -95 16 -202 42 -222 54 -209 45 -234 174
-55 293 -46 675 25 1073 11 61 22 128 24 149 4 34 18 55 36 56 3 0 17 -8 31
-18z m1149 -831 c19 -6 62 -17 95 -25 175 -43 201 -46 381 -46 157 0 189 3
240 21 127 44 150 49 219 49 65 0 73 -2 96 -27 85 -94 255 -419 265 -507 l6
-52 -183 -27 c-202 -30 -321 -41 -659 -58 -291 -15 -518 -3 -807 42 l-72 12 5
31 c3 17 13 49 22 71 28 67 243 458 275 498 32 41 37 42 117 18z m2678 -566
c46 -58 52 -191 17 -330 -23 -93 -126 -289 -213 -405 -43 -58 -126 -157 -184
-220 -105 -115 -316 -320 -329 -320 -4 0 -22 62 -40 138 -37 152 -81 245 -153
320 -76 81 -5 75 -875 63 -427 -6 -962 -16 -1190 -22 l-414 -10 -61 -28 c-67
-30 -106 -64 -149 -127 -25 -37 -29 -55 -38 -162 -5 -68 -16 -133 -24 -149 -8
-15 -15 -34 -15 -40 0 -7 -4 -13 -9 -13 -14 0 -325 323 -452 471 -165 189
-248 305 -312 427 -63 122 -97 224 -97 290 0 67 18 82 99 82 53 0 105 -12 246
-56 252 -77 598 -168 742 -193 354 -63 360 -63 828 -68 931 -10 1577 76 2320
309 104 33 192 62 194 64 2 2 24 4 47 4 34 0 47 -5 62 -25z m-1285 -1103 c89
-44 159 -114 188 -189 26 -68 33 -213 11 -235 -17 -17 -186 -21 -464 -11
l-218 8 -27 27 c-24 24 -27 36 -31 113 -6 120 15 181 84 244 71 65 121 80 269
78 115 -2 124 -4 188 -35z m-1508 -21 c58 -35 113 -90 137 -136 16 -31 22 -65
25 -145 7 -153 22 -144 -287 -159 -135 -6 -289 -11 -342 -11 l-96 0 -23 37
c-58 93 1 281 115 368 19 15 62 38 93 51 54 23 69 24 198 22 127 -3 144 -5
180 -27z m995 -535 c49 -17 140 -86 189 -143 22 -27 58 -82 79 -123 46 -90 85
-119 131 -100 47 19 64 80 36 130 -8 14 -14 28 -15 32 0 4 75 6 168 4 142 -3
175 -6 222 -25 106 -41 207 -148 252 -266 18 -47 23 -80 23 -155 0 -87 -3
-101 -32 -160 -72 -147 -232 -264 -506 -371 -56 -21 -101 -39 -101 -39 -1 0
-1 14 -2 31 -2 43 -44 83 -88 83 -41 0 -72 -24 -91 -72 -8 -18 -58 -80 -112
-139 -94 -101 -102 -108 -213 -161 l-115 -56 -160 0 c-218 -1 -381 12 -425 35
-48 24 -96 78 -165 184 -156 241 -143 225 -193 225 -37 0 -50 -6 -78 -34 -28
-28 -34 -42 -34 -76 0 -38 -2 -41 -22 -35 -80 24 -280 134 -362 198 -67 53
-176 212 -176 257 0 12 -7 35 -16 51 -23 45 -20 160 6 238 38 115 84 167 184
212 38 16 76 22 182 26 l133 6 -11 -30 c-23 -62 27 -120 92 -106 33 6 62 37
125 128 55 81 141 171 173 183 15 5 43 15 62 21 19 7 51 17 70 22 19 6 51 15
70 21 75 22 155 26 414 22 177 -4 282 -10 306 -18z"/>
<path d="M2385 1479 c-144 -30 -186 -41 -236 -63 -61 -26 -65 -68 -14 -154 43
-71 64 -92 130 -127 171 -91 407 -67 538 54 41 37 87 107 98 147 12 42 1 65
-44 93 -30 18 -59 26 -202 51 -62 11 -216 10 -270 -1z"/>
<path d="M1980 935 c-19 -14 -37 -31 -42 -37 -12 -20 -9 -84 5 -96 20 -17 149
-82 162 -82 18 0 53 -41 135 -158 72 -102 77 -107 120 -115 25 -5 113 -9 195
-10 198 -1 233 11 320 115 105 126 137 158 174 175 20 8 55 24 79 35 l42 20 0
59 c0 99 -42 119 -164 79 -32 -11 -83 -36 -112 -55 l-52 -35 -280 0 c-236 0
-281 2 -292 15 -7 8 -19 15 -27 15 -14 0 -70 26 -113 51 -32 19 -95 49 -106
49 -5 0 -25 -11 -44 -25z"/>
</g>
</svg>
