<?xml version="1.0" standalone="no"?>
<!DOCTYPE svg PUBLIC "-//W3C//DTD SVG 20010904//EN"
 "http://www.w3.org/TR/2001/REC-SVG-20010904/DTD/svg10.dtd">
<svg version="1.0" xmlns="http://www.w3.org/2000/svg"
 width="497.000000pt" height="532.000000pt" viewBox="0 0 497.000000 532.000000"
 preserveAspectRatio="xMidYMid meet">
<metadata>
Created by potrace 1.14, written by Peter Selinger 2001-2017
</metadata>
<g transform="translate(0.000000,532.000000) scale(0.100000,-0.100000)"
fill="#000000" stroke="none">
<path d="M4052 5294 c-84 -42 -245 -240 -419 -516 -93 -148 -252 -460 -313
-615 l-44 -113 -31 29 c-97 92 -240 108 -488 55 -165 -35 -413 -26 -582 21
-108 31 -242 42 -303 26 -43 -12 -103 -62 -153 -129 l-25 -33 -58 138 c-188
447 -469 830 -741 1011 -105 71 -142 81 -203 56 -86 -36 -112 -113 -186 -564
-49 -295 -66 -452 -73 -675 -5 -173 4 -359 24 -455 l6 -32 -59 9 c-97 13 -194
9 -246 -10 -52 -20 -111 -79 -136 -136 -24 -53 -23 -247 1 -321 29 -87 120
-267 184 -362 117 -174 431 -516 673 -733 66 -59 120 -113 120 -121 0 -8 -31
-94 -69 -191 -94 -240 -114 -321 -114 -453 0 -207 71 -379 229 -550 133 -143
568 -378 780 -421 52 -10 65 -18 84 -47 37 -54 140 -141 179 -152 21 -6 199
-10 428 -10 l391 0 67 30 c75 34 121 67 212 152 34 32 69 58 78 58 32 0 344
110 441 155 209 97 389 247 467 386 58 103 78 192 84 364 7 195 -8 277 -92
526 -36 106 -65 198 -65 204 0 6 30 36 68 66 102 82 429 413 504 509 136 176
231 345 275 486 14 47 18 94 18 229 0 162 -1 172 -26 226 -47 100 -133 162
-239 175 l-55 6 0 302 c0 200 -5 331 -14 391 -67 452 -211 844 -363 992 -72
70 -130 80 -216 37z m159 -541 c99 -214 140 -415 154 -758 7 -163 -15 -499
-33 -517 -21 -21 -575 -159 -587 -146 -17 17 -38 195 -42 368 -4 166 -2 213
15 315 26 148 68 279 131 410 50 102 221 368 269 418 25 26 27 27 40 10 8 -10
31 -55 53 -100z m-3262 -148 c181 -336 267 -681 278 -1118 l6 -218 -24 6
c-348 82 -374 90 -387 118 -35 73 -62 321 -62 571 0 193 17 353 67 639 31 185
23 185 122 2z m1111 -684 c19 -6 62 -17 95 -25 175 -43 201 -46 381 -46 157 0
189 3 240 21 127 44 150 49 219 49 65 0 73 -2 96 -27 85 -94 255 -419 265
-507 l6 -52 -183 -27 c-202 -30 -321 -41 -659 -58 -291 -15 -518 -3 -807 42
l-72 12 5 31 c3 17 13 49 22 71 28 67 243 458 275 498 32 41 37 42 117 18z
m2678 -566 c46 -58 52 -191 17 -330 -23 -93 -126 -289 -213 -405 -43 -58 -126
-157 -184 -220 -105 -115 -316 -320 -329 -320 -4 0 -22 62 -40 138 -37 152
-81 245 -153 320 -76 81 -5 75 -875 63 -427 -6 -962 -16 -1190 -22 l-414 -10
-61 -28 c-67 -30 -106 -64 -149 -127 -25 -37 -29 -55 -38 -162 -5 -68 -16
-133 -24 -149 -8 -15 -15 -34 -15 -40 0 -7 -4 -13 -9 -13 -14 0 -325 323 -452
471 -165 189 -248 305 -312 427 -63 122 -97 224 -97 290 0 67 18 82 99 82 53
0 105 -12 246 -56 252 -77 598 -168 742 -193 354 -63 360 -63 828 -68 931 -10
1577 76 2320 309 104 33 192 62 194 64 2 2 24 4 47 4 34 0 47 -5 62 -25z
m-1283 -1104 c87 -43 157 -114 185 -187 24 -66 35 -165 22 -209 -8 -29 -9 -30
-88 -33 l-80 -3 4 41 c6 63 -6 107 -41 147 -38 44 -82 63 -141 63 -112 0 -186
-75 -186 -190 l0 -50 -52 0 c-85 1 -128 48 -128 140 0 63 34 139 90 203 76 86
154 119 272 114 62 -3 89 -10 143 -36z m-1598 -21 c73 -34 154 -106 191 -169
21 -36 27 -61 30 -132 4 -78 2 -89 -17 -108 -22 -22 -48 -25 -125 -15 l-46 7
0 44 c0 108 -76 183 -186 183 -59 0 -103 -19 -141 -63 -36 -41 -48 -87 -40
-153 l5 -44 -73 0 -73 0 -23 37 c-58 93 1 281 115 368 106 81 268 100 383 45z
m1083 -534 c49 -17 140 -86 189 -143 22 -27 58 -82 79 -123 46 -90 85 -119
131 -100 47 19 64 80 36 130 -8 14 -14 28 -15 32 0 4 75 6 168 4 142 -3 175
-6 222 -25 106 -41 207 -148 252 -266 18 -47 23 -80 23 -155 0 -87 -3 -101
-32 -160 -72 -147 -232 -264 -506 -371 -56 -21 -101 -39 -101 -39 -1 0 -1 14
-2 31 -2 43 -44 83 -88 83 -41 0 -72 -24 -91 -72 -8 -18 -58 -80 -112 -139
-94 -101 -102 -108 -213 -161 l-115 -56 -160 0 c-218 -1 -381 12 -425 35 -48
24 -96 78 -165 184 -156 241 -143 225 -193 225 -37 0 -50 -6 -78 -34 -28 -28
-34 -42 -34 -76 0 -38 -2 -41 -22 -35 -80 24 -280 134 -362 198 -67 53 -176
212 -176 257 0 12 -7 35 -16 51 -23 45 -20 160 6 238 38 115 84 167 184 212
38 16 76 22 182 26 l133 6 -11 -30 c-23 -62 27 -120 92 -106 33 6 62 37 125
128 55 81 141 171 173 183 15 5 43 15 62 21 19 7 51 17 70 22 19 6 51 15 70
21 75 22 155 26 414 22 177 -4 282 -10 306 -18z"/>
<path d="M2405 1483 c-288 -58 -330 -82 -305 -174 17 -62 117 -161 206 -205
98 -49 235 -66 317 -39 144 46 297 205 297 308 0 45 -49 90 -122 112 -66 19
-293 18 -393 -2z"/>
<path d="M3260 1073 c-8 -3 -29 -17 -46 -30 -17 -12 -34 -23 -38 -23 -4 0 -35
-20 -70 -44 -67 -48 -194 -96 -254 -96 -20 0 -69 9 -109 21 -64 17 -82 19
-145 9 -308 -44 -310 -44 -606 64 -24 8 -55 24 -70 34 -39 28 -98 44 -131 37
-70 -15 -99 -99 -51 -150 13 -14 28 -25 34 -25 6 0 38 -13 71 -29 33 -16 87
-42 120 -57 109 -50 129 -69 187 -170 68 -121 91 -146 164 -175 55 -22 71 -24
239 -23 180 1 180 1 248 32 37 17 67 36 67 43 0 6 29 41 64 77 35 37 77 89 93
116 21 37 38 52 67 62 21 8 60 30 87 49 27 19 53 35 57 35 5 0 17 9 27 20 10
11 23 20 30 20 17 0 62 51 74 83 6 16 8 39 5 52 -11 45 -75 83 -114 68z"/>
</g>
</svg>
