<?xml version="1.0" encoding="UTF-8" standalone="no"?>
<svg
   xmlns:dc="http://purl.org/dc/elements/1.1/"
   xmlns:cc="http://creativecommons.org/ns#"
   xmlns:rdf="http://www.w3.org/1999/02/22-rdf-syntax-ns#"
   xmlns:svg="http://www.w3.org/2000/svg"
   xmlns="http://www.w3.org/2000/svg"
   xmlns:sodipodi="http://sodipodi.sourceforge.net/DTD/sodipodi-0.dtd"
   xmlns:inkscape="http://www.inkscape.org/namespaces/inkscape"
   version="1.0"
   width="146.000000pt"
   height="157.000000pt"
   viewBox="0 0 146.000000 157.000000"
   preserveAspectRatio="xMidYMid meet"
   id="svg12"
   sodipodi:docname="retraced.svg"
   inkscape:version="0.92.3 (2405546, 2018-03-11)">
  <defs
     id="defs16" />
  <sodipodi:namedview
     pagecolor="#ffffff"
     bordercolor="#666666"
     borderopacity="1"
     objecttolerance="10"
     gridtolerance="10"
     guidetolerance="10"
     inkscape:pageopacity="0"
     inkscape:pageshadow="2"
     inkscape:window-width="1920"
     inkscape:window-height="1000"
     id="namedview14"
     showgrid="false"
     inkscape:zoom="2.2547771"
     inkscape:cx="241.61364"
     inkscape:cy="77.775572"
     inkscape:window-x="0"
     inkscape:window-y="26"
     inkscape:window-maximized="1"
     inkscape:current-layer="svg12" />
  <metadata
     id="metadata2">
Created by potrace 1.14, written by Peter Selinger 2001-2017
<rdf:RDF>
  <cc:Work
     rdf:about="">
    <dc:format>image/svg+xml</dc:format>
    <dc:type
       rdf:resource="http://purl.org/dc/dcmitype/StillImage" />
  </cc:Work>
</rdf:RDF>
</metadata>
  <g
     id="g827">
    <g
       id="g10"
       stroke="none"
       fill="#000000"
       transform="translate(0.000000,157.000000) scale(0.100000,-0.100000)">
      <path
         sodipodi:nodetypes="ccsscccsccsccccccscsccccccccsccscccccccsccscccccccccscccccccsscccssscccccccccsccsccccscscscssscccccccccccccscccsssscccscsccccsccc"
         inkscape:connector-curvature="0"
         id="path4"
         d="m 1147,1520 c -50,-59 -124,-180 -158,-260 -12,-30 -24,-56 -25,-58 -1,-2 -14,4 -29,14 -24,16 -35,16 -118,5 -79,-11 -103,-10 -168,3 -83,18 -119,12 -137,-21 -6,-10 -12,-16 -14,-13 -2,3 -24,48 -51,101 -92,186 -239,307 -271,223 -18,-47 -46,-272 -46,-369 V 1035 H 84 C -5,1034 -25,959 32,841 57,792 94,745 179,657 L 293,539 267,462 C 252,420 240,370 240,351 240,247 300,171 432,105 481,80 529,60 537,60 545,60 568,48 587,33 621,7 631,5 735,2 c 112,-4 112,-4 146,26 20,17 63,38 105,51 132,39 211,93 245,166 26,55 24,152 -4,238 l -22,69 96,96 c 115,117 159,194 159,279 0,75 -20,108 -72,123 -15,4 -19,21 -22,110 -9,215 -81,410 -152,410 -14,0 -38,-18 -67,-50 z m 96,-132 c 29,-76 38,-141 35,-253 l -3,-110 -85,-22 c -46,-12 -86,-20 -90,-17 -11,12 -12,187 0,232 19,78 95,212 119,212 5,0 16,-19 24,-42 z M 325,1246 c 29,-88 48,-276 27,-276 -6,0 -33,5 -61,12 -56,13 -56,12 -66,124 -7,63 5,204 22,273 6,23 7,22 28,-14 13,-20 35,-74 50,-119 z m 341,-87 c 50,-9 84,-8 144,1 44,7 86,10 94,7 20,-8 100,-167 89,-178 -28,-27 -488,-38 -514,-12 -6,6 6,40 32,94 47,98 57,112 76,105 7,-3 43,-11 79,-17 z m 732,-213 c 5,-70 -39,-152 -132,-252 -61,-64 -77,-76 -85,-64 -17,25 -13,121 -13,121 0,0 27.568,-3.43022 19.0602,14.29594 -2.9944,6.23892 -13.917,22.0851 -24.917,33.0851 C 1094.1432,866.38104 1027,872 705,862 466,855 441,852 395,832 368,819 316.77178,791.64991 304.77178,780.64991 266.18958,764.52998 273.47827,716.61002 312.35203,729.706 315.6501,730.81707 320,703 320,670 c 0,-33 -4,-60 -9,-60 -5,0 -36,30 -70,66 C 115,810 61,893 60,953 c 0,35 19,35 131,2 218,-66 366,-82 603,-66 199,14 317,33 461,76 61,18 117,32 125,31 11,-1 16,-16 18,-50 z M 792,740 c -16,-33 -26,-74 -30,-120 -5,-68 -5,-70 -32,-70 -26,0 -28,3 -34,55 -5,48 -18,90 -51,168 -6,15 1,17 82,17 h 90 z m 230.4042,-63.41587 C 1066.4042,658.58413 1072,617 1073,578 c 2,-29 -2.47,-33 -24.47,-33 -10.5,0 -22.6171,0.40878 -28.0192,1.14145 -11.1221,1.50846 -2.0417,12.45789 3.0192,28.85855 7.1738,23.24807 -3.53,31 -20.53,33 -13,2 -24.70589,-1.00546 -23,18 1.64449,18.32141 -17.41587,25.05996 -51.47196,8.82399 -19,-12 -38.01489,-30.14255 -31.17407,-55.11606 3.08075,-11.24678 0,0 8.33618,-27.22135 1.51934,-4.96132 -16.86616,-1.60457 -21.86616,-1.60457 -41,0 -9.70212,107.05609 39.29788,127.05609 29,12 62.28237,14.64603 99.28233,-1.35397 z m -448.94,-3.06384 c 17,-10 31.11993,-35.05609 37.11993,-47.05609 C 625.58413,598.4642 609,536 589,532 c -6,-1 -24.65726,-2.80069 -29.64722,-0.79907 -5.44705,2.18496 8.03311,16.47702 15.70718,35.38708 C 585.23404,591.00388 574.82592,600.64797 558,598 c -17.41199,-9.17408 -29.99806,-11.46614 -24,10 0,8 -7,19 -16,25 -28,18 -76.11605,0.46227 -76,-66 -2,-22 12.09545,-37.65778 2.59366,-37.82664 C 420.51147,528.74541 406,528 398,545 c -23,50 27.41587,152.04833 114.93616,147.34427 13.97982,-0.75139 42.52804,-7.82398 60.52804,-18.82398 z M 837,485 c 28,-8 66,-30 87,-50 36,-34 66,-38 66,-9 0,10 15,14 56,14 52,0 59,-3 95,-39 33,-33 39,-45 39,-82 0,-70 -27,-102 -122,-148 -55,-27 -91,-38 -106,-34 -17,4 -34,-5 -73,-42 0,0 -28.56178,-39.023471 -50,-47 -29.70521,-11.052432 -95,4 -95,4 0,0 -64.85151,-10.773343 -93.33686,1.752648 C 617.80478,63.804257 589,108 589,108 c -54,55 -63,60 -76,38 -17,-30 -139,50 -167,107 -32,70 -12,146 45,166 47,16 89,14 89,-4 0,-34 31,-27 68,15 27,31 50,45 87,55 67,18 141,18 202,0 z" />
      <path
         id="path6"
         d="M136 904 c-9 -8 -16 -24 -16 -35 0 -27 30 -37 46 -15 12 17 16 17 67 2 75 -22 109 -21 105 2 -4 20 -106 60 -155 61 -17 1 -39 -6 -47 -15z" />
      <path
         sodipodi:nodetypes="cscccssscscssccscccccccsccscccccsc"
         inkscape:connector-curvature="0"
         id="path8"
         d="m 644,451 c -44,-11 -54,-19 -54,-45 0,-34 34,-71 80,-90 42,-17 50,-30 24,-40 -25,-10 -100,-7 -131,5 -34,12 -84.24735,45.1107 -83,76 0.64558,15.98697 -52,17 -68,1 -16,-16 -2.1107,-41.74206 13.8893,-41.74206 C 444.8893,316.25794 553,202 589,148 630,87 644,80 728,80 c 101,0 128,13 171,80 41,65 134,170 150,170 15,0 14,33 -1,48 -21,21 -36,13 -67,-32 -17,-24 -38,-47 -48,-51 -57,-22 -173,-25 -173,-5 0,5 20,20 45,34 46,28 79,74 69,99 -3,8 -16,19 -30,26 -27,12 -151,13 -200,2 z m 180,-27 c 35,-13 12,-20 -66,-20 -46,1 -94,-1 -107,-4 -28,-6 -41,16 -14,23 27,7 169,8 187,1 z M 805.15784,203.23676 C 814.5053,178.24735 817,177 838,198 c 30,30 36,27 16,-6 -16,-28 -18,-28 -60,-19 -31,7 -59,7 -95,-1 -48,-11 -52,-11 -69,10 -23,29 -13.25794,41.57362 13.74206,17.57362 21,-19 40.02118,-19.82097 46.25794,4.42638 7.72228,30.02277 88.15784,32.23676 115.15784,-0.76324 z" />
    </g>
  </g>
</svg>
