<?xml version="1.0" encoding="UTF-8" standalone="no"?>
<svg
   xmlns:dc="http://purl.org/dc/elements/1.1/"
   xmlns:cc="http://creativecommons.org/ns#"
   xmlns:rdf="http://www.w3.org/1999/02/22-rdf-syntax-ns#"
   xmlns:svg="http://www.w3.org/2000/svg"
   xmlns="http://www.w3.org/2000/svg"
   xmlns:sodipodi="http://sodipodi.sourceforge.net/DTD/sodipodi-0.dtd"
   xmlns:inkscape="http://www.inkscape.org/namespaces/inkscape"
   version="1.0"
   width="4cm"
   height="4cm"
   viewBox="0 0 113.38582 113.38582"
   preserveAspectRatio="xMidYMid meet"
   id="svg14"
   sodipodi:docname="tracker-thicker.svg"
   inkscape:version="0.92.3 (2405546, 2018-03-11)">
  <defs
     id="defs18" />
  <sodipodi:namedview
     pagecolor="#ffffff"
     bordercolor="#666666"
     borderopacity="1"
     objecttolerance="10"
     gridtolerance="10"
     guidetolerance="10"
     inkscape:pageopacity="0"
     inkscape:pageshadow="2"
     inkscape:window-width="1920"
     inkscape:window-height="1000"
     id="namedview16"
     showgrid="false"
     units="cm"
     inkscape:zoom="2.9448919"
     inkscape:cx="-25.475598"
     inkscape:cy="83.748965"
     inkscape:window-x="0"
     inkscape:window-y="26"
     inkscape:window-maximized="1"
     inkscape:current-layer="svg14" />
  <metadata
     id="metadata2">
Created by potrace 1.14, written by Peter Selinger 2001-2017
<rdf:RDF>
  <cc:Work
     rdf:about="">
    <dc:format>image/svg+xml</dc:format>
    <dc:type
       rdf:resource="http://purl.org/dc/dcmitype/StillImage" />
    <dc:title />
  </cc:Work>
</rdf:RDF>
</metadata>
  <g
     id="g935">
    <path
       inkscape:connector-curvature="0"
       id="path4"
       d="m 89.697266,3.8417969 c -0.683575,-0.053149 -1.3941,0.089544 -2.03125,0.4140625 l -0.002,0.00195 h -0.002 c -0.659572,0.3404184 -1.196704,0.8700932 -1.882812,1.5996094 -0.686108,0.7295162 -1.458097,1.6523308 -2.275391,2.7089843 -1.634588,2.1133068 -3.445742,4.7579788 -4.996094,7.3730468 -2.541248,4.275758 -5.18763,9.876189 -6.349609,13.345703 -0.168669,-0.174684 -0.275081,-0.353168 -0.462891,-0.529297 -0.78797,-0.778899 -1.506894,-1.207974 -2.503906,-1.511718 l -0.0059,-0.002 -0.0078,-0.002 c -1.829505,-0.534823 -3.58779,-0.461723 -7.09375,0.240235 -2.863855,0.557581 -2.807686,0.553988 -5.693359,0.488281 l 0.0039,0.002 c -3.062467,-0.08097 -4.614459,-0.318218 -7.060547,-1.085937 h -0.002 -0.002 c -1.039008,-0.323187 -1.906547,-0.431641 -3.28125,-0.431641 -0.824732,0 -1.302757,-0.0053 -1.804687,0.09766 -0.501931,0.102937 -0.908107,0.345788 -1.271485,0.585938 l -0.0039,0.002 -0.0059,0.0039 c -0.914155,0.617584 -1.656706,1.597212 -2.396485,2.863281 -2.284893,-5.847519 -4.187288,-9.69846 -6.947265,-13.689453 l -0.002,-0.002 -0.002,-0.002 C 30.856887,12.359207 27.362118,8.6402901 24.458984,6.7421875 23.50784,6.1142205 22.799834,5.6972804 22.001953,5.5332031 21.204976,5.3693116 20.325061,5.6561674 19.761719,6.1191406 c -6.39e-4,5.248e-4 -0.0013,0.00143 -0.002,0.00195 -0.534236,0.4369955 -0.898381,1.0768871 -1.185547,1.9199218 -0.287851,0.8450436 -0.538998,1.9569821 -0.857422,3.5976564 l -0.002,0.002 c -2.53048,13.162321 -3.097616,21.988013 -1.771485,28.697266 -0.01941,-0.0049 -0.03126,-0.0067 -0.05078,-0.01172 h -0.002 -0.0039 c -1.1446,-0.285847 -2.323931,-0.437015 -3.392578,-0.455078 -1.067198,-0.01804 -1.999646,0.06081 -2.8144535,0.416015 -1.0739947,0.464964 -1.8916748,1.374869 -2.4628906,2.431641 -7.12e-4,0.0013 -0.00124,0.0026 -0.00195,0.0039 -0.2005363,0.361562 -0.2673309,0.645036 -0.3671876,1.164063 -0.1002094,0.520861 -0.1777343,1.203498 -0.1777343,2.046875 0,2.526054 0.3256679,3.146373 0.9003906,4.671875 l 0.00195,0.0059 0.00195,0.0039 c 1.0488694,2.712542 3.0037652,6.015638 5.0605472,8.572266 l 0.002,0.002 v 0.002 c 3.189833,3.930286 9.244881,10.170422 12.783203,13.134766 0.672129,0.564232 1.090362,0.947122 1.316406,1.18164 -0.106465,0.475869 -0.47861,1.645249 -1.464844,4.054688 -6.55e-4,0.0016 6.55e-4,0.0023 0,0.0039 -5.72e-4,0.0014 -0.0014,5.54e-4 -0.002,0.002 -1.324895,3.197861 -1.930543,5.183163 -2.21875,7.222657 v 0.002 0.002 c -0.815939,5.904085 2.249293,11.836403 7.75586,15.435548 v 0.002 h 0.002 c 4.743999,3.07741 9.848116,5.4355 13.345703,5.98438 h 0.0039 l 0.0039,0.002 c 0.4759,0.0715 0.520716,0.079 0.667969,0.16797 0.147253,0.0889 0.484601,0.37508 1.134766,0.99609 1.242159,1.18514 2.33131,2.0134 4.013672,2.39453 1.682361,0.38114 3.85854,0.40625 7.765625,0.40625 3.423468,0 5.192997,0.0243 6.632812,-0.35937 1.439815,-0.38367 2.308575,-1.24527 3.455078,-2.4707 l 0.0039,-0.004 0.0039,-0.004 c 0.249366,-0.27148 0.522405,-0.54265 0.742187,-0.74609 0.219782,-0.20344 0.533623,-0.3945 0.296875,-0.26953 l 0.01367,-0.008 0.01367,-0.008 c -0.115858,0.0654 -0.0038,0.005 0.117188,-0.0371 0.120974,-0.0425 0.293138,-0.0999 0.49414,-0.16211 0.40036,-0.1239 0.917526,-0.27252 1.44336,-0.41796 l 0.0059,-0.002 c 7.921405,-2.14562 12.76761,-4.36545 16.277344,-7.57031 l 0.002,-0.002 0.0039,-0.0039 c 3.341711,-3.095501 4.617773,-6.322437 4.619141,-11.63086 v -0.0039 c 0.01712,-3.254249 -0.420802,-5.549463 -1.734375,-9.164063 l -0.002,-0.0078 c -0.352156,-0.990131 -0.92615,-2.652872 -1.283203,-3.689453 l -0.0039,-0.01367 L 88.5,72.560547 l -0.3125,0.21875 -0.02148,0.01563 c 2.05804,-1.378811 6.363092,-5.456694 9.541015,-8.84961 h 0.002 c 3.935096,-4.212483 6.706496,-8.594812 7.935546,-12.722656 v -0.002 -0.002 c 0.30203,-1.022994 0.36549,-2.504589 0.38086,-4.087891 0.0154,-1.582537 0.01,-2.982989 -0.31836,-4.019531 -0.88397,-2.839072 -3.41069,-4.460882 -6.203124,-4.238281 0.22838,-2.510568 0.188847,-10.528947 -0.103515,-12.751953 v -0.002 C 98.990704,23.046722 98.824887,22.088997 98.294922,19.607422 97.6146,16.367784 96.595579,13.205939 95.431641,10.566406 94.268177,7.9279494 93.019351,5.8207933 91.570312,4.5996094 91.035082,4.1432288 90.37937,3.8948315 89.697266,3.8417969 Z M 89.5,6.0488281 c 0.218652,0.012746 0.403472,0.1096079 0.599609,0.2773438 l 0.0039,0.00195 0.0039,0.00391 c 0.898559,0.7561362 2.158901,2.6740886 3.25,5.1484378 1.091098,2.474349 2.071269,5.512939 2.71875,8.597656 l 0.002,0.002 v 0.002 c 0.525471,2.460532 0.666749,3.282095 1.074219,6.337891 0.179343,1.366418 0.264424,10.808307 0.09766,12.435547 l -0.257812,2.25 c -0.490759,0.159069 -0.680201,0.162295 -1.328126,0.382812 -0.05455,0.0186 -0.13244,0.03607 -0.1875,0.05469 0.0082,-0.02072 0.03171,-0.03788 0.03906,-0.05859 0.220982,-0.62268 0.289712,-1.309646 0.351563,-2.292969 0.05152,-0.731445 0.169522,-2.465904 0.287109,-3.847656 l 0.002,-0.0059 v -0.0078 c 0.299931,-4.097636 -0.03967,-9.820703 -0.800781,-13.708984 l -0.002,-0.002 c -0.158015,-0.800553 -0.455092,-1.943413 -0.763672,-3.011719 -0.308581,-1.068306 -0.572751,-1.954458 -0.859375,-2.548828 l 0.02344,0.04883 C 93.62399,15.802095 93.322039,15.121755 93.070312,14.537109 92.787124,13.879395 92.251309,12.794284 91.779297,11.966797 91.511183,11.480823 91.309052,11.111646 91.121094,10.808594 90.933136,10.505542 90.833622,10.240482 90.34375,9.9550781 90.098814,9.8123762 89.666702,9.7228944 89.322266,9.8183594 88.97783,9.9138244 88.78278,10.096573 88.654297,10.232422 c -0.256967,0.271698 -0.354954,0.47381 -0.503906,0.716797 v 0.002 c -0.104439,0.170551 -0.230785,0.341347 -0.320313,0.445312 -0.04476,0.05198 -0.08046,0.0865 -0.08203,0.08789 -0.0016,0.0014 -0.0095,-0.04527 0.255859,-0.130859 -0.417528,0.134685 -0.451055,0.246433 -0.550781,0.339843 -0.09973,0.09341 -0.18321,0.185132 -0.273437,0.289063 -0.180456,0.207861 -0.379786,0.46374 -0.607422,0.767578 -0.455273,0.607676 -1.013599,1.403694 -1.595704,2.269531 -1.164208,1.731675 -2.406118,3.703246 -3.060546,4.960938 -3.708572,7.109382 -4.574248,15.43056 -2.621094,24.324219 v 0.002 l 0.287109,1.283203 c -0.308606,0.05538 -0.710972,0.167884 -1.005859,0.216797 -0.0039,6.55e-4 -0.0097,0.0013 -0.01367,0.002 0.01096,-0.03149 0.03125,-0.08789 0.03125,-0.08789 0,0 -2.187514,0.206993 -2.1875,0.207031 7e-6,2.1e-5 -0.01664,-0.07627 -0.0332,-0.152343 0.01849,-7.36e-4 1.956322,-0.07895 2.130859,-0.08594 -0.05948,-0.0207 -0.382321,-0.133421 -0.728515,-0.253906 -0.01153,-0.02963 -0.06683,-0.224013 -0.08594,-0.279297 0.365947,-0.06753 0.785156,-0.144531 0.785156,-0.144531 0,0 0.04036,0.145573 0.07813,0.279297 0.01335,0.141202 0.03271,0.348059 0.03711,0.394531 8.4e-5,-4e-6 0.0098,0 0.0098,0 2.5e-5,-1.95e-4 0.0077,-0.119167 0.0078,-0.134766 1.8e-5,-0.0024 -8e-6,-0.0036 0,-0.0059 0,-0.0015 7.3e-5,-0.0066 0,-0.0098 -3.09e-4,-0.0075 -0.0011,-0.02083 -0.002,-0.04102 -2.05e-4,-0.0058 -2e-6,-0.01761 0,-0.01758 0,10e-7 4e-6,-0.0019 0,-0.002 -2.3e-4,-0.0045 -0.0017,-0.01097 -0.002,-0.01563 -1.71e-4,-0.0029 1.9e-4,-0.0069 0,-0.0098 -10e-7,-2e-6 -0.0019,-0.0056 -0.002,-0.0059 -0.003,-0.0439 -0.005,-0.09013 -0.01367,-0.144531 -0.02119,-0.132396 -0.06407,-0.297837 -0.146485,-0.480469 -0.164822,-0.365262 -0.512386,-0.785122 -1.029297,-1.058593 -0.04194,-0.02219 -0.118549,-0.01453 -0.162109,-0.03516 -0.06734,-0.231195 -0.09509,-0.279226 -0.158203,-0.511718 -0.294959,-1.086605 -0.508798,-2.052701 -0.835938,-2.757813 -1.461939,-3.224137 -1.81004,-3.915963 -3.035156,-6.287109 -0.365249,-0.70692 -0.674681,-1.112277 -1.005859,-1.671875 0.09654,0.04107 0.108427,0.09766 0.322265,0.09766 7.98e-4,0 0.25353,-0.02386 0.34961,-0.05469 0.09608,-0.03082 0.170149,-0.06803 0.230469,-0.103515 0.120638,-0.07098 0.186545,-0.135303 0.236328,-0.185547 0.09956,-0.100488 0.134887,-0.160034 0.166015,-0.208984 0.06226,-0.0979 0.08669,-0.152806 0.113281,-0.210938 0.05318,-0.116263 0.09651,-0.226127 0.144532,-0.357422 0.09605,-0.26259 0.204208,-0.595547 0.318359,-0.960937 0.942664,-3.015025 3.805209,-9.113528 6.361328,-13.414063 v -0.002 h 0.002 C 81.955775,14.57098 83.726857,11.984905 85.296875,9.9550781 86.081884,8.9401648 86.817249,8.0632946 87.429688,7.4121094 88.040146,6.7630286 88.588274,6.3345435 88.697266,6.2773438 89.029327,6.1084722 89.281839,6.0361109 89.5,6.0488281 Z M 21.544922,7.7539062 c 0.223507,0.045962 0.793731,0.306247 1.664062,0.8808594 h 0.002 l 0.002,0.00195 c 2.441363,1.5951072 5.923243,5.2199912 8.542968,8.9746092 2.911678,4.210944 4.73723,7.851917 7.291016,14.611328 l 0.002,0.0039 L 40.125,35 c -1.465205,3.270249 -2.643106,5.849138 -3.746094,8.142578 -0.182647,0.370322 -0.304846,0.564085 -0.339844,0.613281 -0.01776,0.02497 -0.01676,0.01578 0.04102,-0.03906 0.02889,-0.02742 0.06735,-0.06633 0.167969,-0.126953 0.0079,-0.0048 0.02837,-0.01248 0.03711,-0.01758 -0.123221,0.06404 -0.237627,0.127427 -0.373047,0.308593 -0.03842,0.0514 -0.118825,0.198546 -0.11914,0.199219 -3.16e-4,6.73e-4 -0.103461,0.370547 -0.103516,0.371094 -2.7e-5,2.74e-4 0.0097,0.298593 0.0098,0.298828 3.9e-5,2.35e-4 0.126847,0.363089 0.126953,0.363281 1.06e-4,1.92e-4 0.269357,0.326028 0.269531,0.326172 1.6e-5,1.3e-5 0.0244,0.01473 0.0293,0.01758 l 0.01953,0.04687 0.197266,0.173828 c 0.426611,0.373524 0.46057,0.263783 0.597656,0.304688 0.137086,0.04091 0.28231,0.07539 0.453125,0.113281 0.341631,0.07579 0.781859,0.159417 1.308594,0.25 1.05347,0.181166 2.444798,0.388779 3.949219,0.587891 3.008842,0.398223 6.418842,0.761719 8.490234,0.761718 2.93811,0 11.138986,-0.420276 15.412109,-0.787109 h 0.0039 0.0039 c 1.245063,-0.114749 3.946219,-0.614393 6.035156,-0.871094 l 0.07031,-0.0078 0.07031,-0.01758 c 1.34975,-0.341389 2.179444,-0.397991 2.751953,-0.375 0.05887,0.177051 0.110915,0.39322 0.177735,0.554687 -2.683607,0.420442 -4.422274,0.719688 -8.425782,1.089844 -6.519019,0.60786 -9.716371,0.753906 -16.748046,0.753906 -7.120473,0 -8.987936,-0.108161 -13.28125,-0.746094 h -0.002 c -1.477561,-0.217589 -2.716095,-0.458455 -4.101562,-0.708984 0.01049,-0.01435 0.03797,-0.02742 0.04687,-0.04102 0.184339,-0.280012 0.1891,-0.403818 0.216797,-0.53125 0.02913,-0.134037 0.0479,-0.260888 0.06445,-0.402343 0.03312,-0.282911 0.05594,-0.619797 0.07422,-1.011719 0.03657,-0.783845 0.05119,-1.783856 0.04687,-2.847656 -0.0086,-2.126175 -0.08722,-4.457391 -0.25586,-5.810547 v -0.0039 c -0.104082,-0.855777 -0.266294,-2.039301 -0.416015,-3.074219 -0.149245,-1.031624 -0.259532,-1.801729 -0.34961,-2.210938 v -0.002 C 31.183031,24.270849 28.984712,18.79164 25.824219,13.908203 l -0.0039,-0.0059 -0.0039,-0.0059 C 25.20129,12.970522 24.641499,12.116699 24.275391,11.671875 l -0.0098,-0.01172 -1.912109,-2.378906 -0.539063,3.042969 -0.002,0.0078 c -0.05616,0.344202 -0.256896,1.662212 -0.445312,2.988281 -0.203465,1.312183 -0.497046,3.130316 -0.669922,3.966797 l -0.002,0.0098 -0.002,0.0098 c -0.176218,0.937922 -0.414728,2.412615 -0.523437,3.376953 -0.09969,0.884336 -0.267322,2.175619 -0.353516,2.859375 -0.35006,2.623235 -0.363944,6.246965 -0.15625,9.609375 0.207695,3.36241 0.560724,6.323752 1.292969,8.037109 l -0.01953,-0.04687 c 0.05655,0.15049 0.124225,0.343392 0.164062,0.464844 -0.238045,-0.07045 -0.942634,-0.253419 -1.041015,-0.28711 l -0.0078,-0.002 c -0.305989,-0.107485 -1.255697,-0.400725 -2.050781,-0.648437 0.07101,-0.0787 0.193641,-0.215118 0.263672,-0.292969 0.0421,-0.06038 0.08976,-0.130681 0.08984,-0.130859 2.17e-4,-4.89e-4 0.05666,-0.152898 0.06836,-0.203125 0.0234,-0.100455 0.02482,-0.153553 0.02734,-0.195313 0.0051,-0.08352 0.0019,-0.119272 0,-0.152344 -0.0038,-0.06614 -0.0081,-0.105206 -0.01367,-0.148437 -0.01112,-0.08646 -0.02643,-0.176695 -0.04492,-0.285156 -0.03697,-0.216923 -0.0891,-0.495735 -0.150391,-0.800781 l -0.002,-0.0078 -0.002,-0.0098 C 16.879254,34.202442 17.368218,25.467536 19.943359,12.072266 v -0.002 C 20.254546,10.467186 20.504191,9.412832 20.722656,8.7714844 20.941244,8.1297771 21.086709,7.9650951 21.197266,7.875 l 0.002,-0.00195 0.002,-0.00195 C 21.438,7.6760434 21.321415,7.7079439 21.544922,7.7539062 Z m 68.082031,5.0136718 c 0.06402,0.115184 0.09143,0.159734 0.166016,0.294922 l 0.0039,0.0078 0.0039,0.0078 c 0.411118,0.719187 0.959761,1.831074 1.185547,2.355469 0.258967,0.601462 0.57128,1.305768 0.679688,1.560547 l 0.0098,0.02539 0.01172,0.02344 c 0.07086,0.146945 0.428869,1.171459 0.724609,2.195312 0.295741,1.023853 0.585419,2.154707 0.716797,2.820313 0.702665,3.590872 1.044441,9.298253 0.765625,13.107422 -0.12007,1.413353 -0.240406,3.15473 -0.291015,3.873046 v 0.0059 0.0039 c -0.05665,0.900583 -0.156264,1.457003 -0.22461,1.65625 -0.143287,0.04165 -0.28697,0.0813 -0.421875,0.142578 -0.05955,0.02705 -0.163522,0.164179 -0.226562,0.185547 h -0.0332 l -0.04492,0.0039 c -0.48608,0.03919 -0.876529,0.161179 -1.339844,0.324219 l -0.02148,0.0078 -0.01953,0.0078 c -0.248142,0.09824 -0.871272,0.271818 -1.189453,0.341797 l 0.04883,-0.0098 c -0.542057,0.09537 -1.824747,0.410451 -3.144531,0.742188 h -0.002 -0.002 c -1.9349,0.494326 -3.844032,0.923317 -5.488281,1.257812 -1.828189,-8.425753 -0.992398,-16.112015 2.433593,-22.679687 v -0.002 c 0.554214,-1.065099 1.797726,-3.055571 2.931641,-4.742188 0.566958,-0.843308 1.110181,-1.618972 1.527344,-2.175781 0.208581,-0.278404 0.387878,-0.504727 0.505859,-0.640625 0.05899,-0.06795 0.10486,-0.113082 0.111328,-0.119141 0.0065,-0.0061 0.05539,0.04596 -0.304687,0.16211 0.341952,-0.110303 0.434961,-0.225629 0.548828,-0.326172 0.113867,-0.100544 0.207232,-0.201911 0.300781,-0.310547 0.02721,-0.03159 0.05122,-0.07449 0.07813,-0.107422 z m -65.900391,2.09375 c 0.08694,0.128694 0.109789,0.155535 0.19336,0.28125 3.001064,4.637503 5.093101,9.829741 6.396484,15.97461 l 0.002,0.0059 v 0.0039 c 0.01185,0.0535 0.174269,1.031686 0.322266,2.054688 0.147997,1.023001 0.307994,2.203051 0.408203,3.027343 l 0.002,0.002 v 0.002 c 0.137547,1.101833 0.22988,3.469777 0.238281,5.542968 0.0042,1.036596 -0.01127,2.010983 -0.04492,2.732422 -0.0057,0.122997 -0.0147,0.18406 -0.02148,0.291016 -0.80858,-0.159369 -2.291241,-0.50977 -5.060547,-1.177735 h -0.002 c -1.787038,-0.436238 -2.595213,-0.639532 -2.929687,-0.746093 -0.06343,-0.18684 -0.13206,-0.398609 -0.173828,-0.509766 l -0.0078,-0.02539 -0.0098,-0.02148 C 22.630757,41.343447 22.124689,38.26545 21.923828,35.013672 21.722967,31.761894 21.750612,28.19557 22.064453,25.84375 v -0.0039 -0.0039 c 0.08425,-0.668595 0.255065,-1.973122 0.359375,-2.898438 0.09493,-0.842078 0.330019,-2.314929 0.494141,-3.191406 l 0.0039,-0.02148 c 0.200857,-0.976225 0.483571,-2.754666 0.6875,-4.070312 l 0.002,-0.0078 v -0.0078 c 0.04917,-0.34607 0.0665,-0.446032 0.115234,-0.777344 z m 22.199219,15.578125 c 0.332188,-0.02225 0.811426,0.04415 1.458985,0.230469 h 0.002 c 3.490696,1.014981 5.190583,1.295288 8.439453,1.378906 3.3565,0.08329 4.936557,-0.06759 8.191406,-0.800781 1.77835,-0.39597 3.64658,-0.326383 4.160156,-0.130859 0.561206,0.223014 1.603127,1.331519 3.029297,4.091796 1.224684,2.370309 1.524916,2.968246 2.986328,6.191407 l 0.002,0.0039 0.002,0.0039 c 0.03969,0.08556 0.333769,1.091593 0.591796,2.011719 -0.747168,0.0462 -1.526106,0.11859 -2.609374,0.392578 l 0.138671,-0.02539 c -2.197968,0.2701 -5.055111,0.777373 -5.958984,0.861329 -4.170355,0.35801 -12.505176,0.779296 -15.21875,0.779296 -1.79286,0 -5.230506,-0.350309 -8.191406,-0.742187 -1.48045,-0.195939 -2.854539,-0.402362 -3.865235,-0.576172 -0.252202,-0.04337 -0.3976,-0.07485 -0.599609,-0.113281 1.246094,-2.593943 2.444509,-5.191138 4.226563,-9.19336 v -0.002 c 1.036871,-2.338581 1.832395,-3.596587 2.398437,-4.042969 0.283021,-0.22319 0.483785,-0.296077 0.816406,-0.318359 z m 46.800781,10.597656 c -0.131264,0.04519 -0.238154,0.0097 -0.470703,0.384766 l 0.08984,-0.125 c 0.226165,-0.273597 0.312105,-0.242725 0.347656,-0.253906 0.02318,-0.0073 0.02625,-0.0056 0.0332,-0.0059 z m 7.365238,1.507813 c 0.57186,-0.0745 0.54052,-0.04713 1.03711,0.25 0.39831,0.24386 0.92271,1.180453 1.04687,2.666016 0.12442,1.48856 -0.10824,3.406709 -0.75,5.285156 -1.465122,4.202692 -4.640689,8.668412 -10.36328,14.320312 h -0.002 c -1.581458,1.56315 -2.863824,2.770841 -3.751953,3.542969 -0.07754,0.06741 -0.102254,0.0799 -0.173828,0.140625 -0.08222,-0.306787 -0.155369,-0.567844 -0.248047,-0.927734 -0.330837,-1.284713 -0.699534,-2.79987 -0.896485,-3.728516 -0.386744,-1.871308 -0.606856,-3.650899 -0.664062,-4.634766 0.540008,-0.16542 1.113281,-0.746332 1.113281,-1.378906 0,-0.391074 -0.09725,-0.483195 -0.148437,-0.582031 -0.05119,-0.09884 -0.09691,-0.165983 -0.142578,-0.230469 -0.09134,-0.128973 -0.186326,-0.242948 -0.298829,-0.36914 -0.222616,-0.249704 -0.505576,-0.532628 -0.824218,-0.814454 l -0.0078,-0.0059 C 82.178761,53.527646 78.688963,52.129193 73.964844,51.568359 l -0.0039,-0.002 h -0.0039 c -2.072106,-0.231373 -7.78216,-0.138012 -15.171875,0.175782 -1.910486,0.08038 -6.401484,0.146484 -9.876953,0.146484 h -0.002 c -8.925098,0.01651 -11.633015,0.304603 -14.839844,1.597656 -2.482173,0.993659 -4.98302,2.785524 -6.279297,4.675781 -0.240622,0.3471 -0.40348,0.713452 -0.453125,1.119141 -0.04982,0.407152 0.01311,0.903492 0.388672,1.310547 0.234856,0.254549 0.596387,0.208958 0.935547,0.248047 v 0.851562 0.0039 c 0.01614,2.3747 -0.236465,5.338879 -0.619141,7.679688 -0.144973,-0.132082 -0.212253,-0.187051 -0.390624,-0.349609 l -0.0039,-0.0039 C 22.932712,64.687406 16.02015,56.879198 13.912109,53.597656 l -0.002,-0.002 c -1.391923,-2.17635 -2.386985,-4.280179 -2.898437,-5.966797 -0.511654,-1.687281 -0.407633,-2.92587 -0.234375,-3.21289 h 0.002 v -0.002 c 0.25429,-0.423808 0.350315,-0.496774 0.492187,-0.5625 0.14073,-0.0652 0.499219,-0.13557 1.214844,-0.136718 1.119161,0.0157 1.473636,0.08786 3.63086,0.740234 1.413372,0.444879 2.923076,0.912809 3.1875,1.00586 l 0.0039,0.002 h 0.0039 c 1.309848,0.449783 7.006996,1.990202 8.783203,2.419921 h 0.0039 l 0.0059,0.002 c 0.857106,0.199066 1.84289,0.421412 2.105469,0.488281 h 0.0039 l 0.0039,0.002 c 1.064293,0.262534 4.282646,0.808332 6.658203,1.158203 4.354442,0.647016 6.470317,0.769531 13.615235,0.769531 7.062672,0 10.403772,-0.152656 16.957031,-0.763672 5.348754,-0.494534 5.867005,-0.568413 11.40039,-1.474609 v -0.002 c 5.196582,-0.854905 12.391486,-2.670535 17.544922,-4.427734 v 0.002 c 2.000118,-0.680727 3.123365,-1.017035 3.697269,-1.091797 z m -76.767581,0.582031 c -0.0011,-0.004 0.0031,0.0082 0.002,0.0039 l 0.0059,0.02148 c -0.0027,-0.0103 -0.0051,-0.01515 -0.0078,-0.02539 z m 13.417969,0.308594 c -5.98e-4,4.2e-5 0.244588,0.034 0.373046,0.05273 -0.239795,-0.04976 -0.500853,-0.05772 -0.730468,0.04102 0.03469,-0.01574 0.04823,-0.03018 0.101562,-0.04687 0.06231,-0.0195 0.256626,-0.04693 0.25586,-0.04687 z m 0.638671,0.162109 c 0.08093,0.04703 0.162197,0.09382 0.16211,0.09375 -7.2e-5,-5.9e-5 0.05617,0.0686 0.109375,0.132813 -0.01586,-0.0043 -0.05396,-0.01249 -0.06445,-0.01563 -0.02196,-0.0066 0.102656,0.07999 0.113281,0.07422 0.05321,0.0642 0.109418,0.132892 0.109375,0.132813 -1.4e-5,-2.6e-5 0.01362,0.03743 0.01758,0.04883 -0.104378,-0.172476 -0.204261,-0.341076 -0.447266,-0.466797 z m 36.316407,10.222656 c 4.254869,0.505126 7.072271,1.686521 9.480468,3.744141 -0.0058,0.01054 -0.03418,0.02132 -0.03906,0.03125 -0.207029,0.420729 -0.147277,0.53967 -0.154297,0.712891 -0.007,0.17322 -0.0059,0.356834 -0.0059,0.595703 0,1.273448 0.336896,3.460578 0.789062,5.648437 l 0.002,0.0039 v 0.002 c 0.21177,0.999053 0.582968,2.519656 0.919922,3.828125 0.168477,0.654234 0.327669,1.253616 0.455078,1.707031 0.0637,0.226708 0.11986,0.416055 0.167969,0.568359 0.02405,0.07615 0.04444,0.141328 0.07031,0.210938 0.02587,0.06961 -0.06918,0.03772 0.212891,0.388672 l 0.04492,0.05469 0.05078,0.04883 c 0.129356,0.12518 0.239742,0.0802 0.378906,0.13086 l -0.25,0.175781 0.876954,2.667969 0.0039,0.0078 c 0.357486,1.037842 0.935142,2.715587 1.296875,3.732422 l 0.002,0.0039 v 0.0039 c 1.270856,3.495327 1.618065,5.319996 1.601562,8.386718 v 0.0039 0.002 c 0,1.111903 -0.06392,2.043595 -0.164062,2.914062 0.01312,-0.486083 0.122989,-0.963755 0.05469,-1.455078 v -0.002 -0.0039 C 88.801647,83.129398 85.46794,79.196175 81.041016,78.208984 80.04708,77.983025 79.069195,77.950051 76.886719,78.033203 h -0.002 c -2.50656,0.09703 -3.912618,0.0043 -5.455078,-0.349609 l -0.01563,-0.0039 -0.01367,-0.0039 c -0.109318,-0.02204 -0.182482,-0.05021 -0.410157,-0.05859 -0.113837,-0.0042 -0.287274,-0.06577 -0.677734,0.167968 -0.09601,0.05748 -0.15969,0.212017 -0.251953,0.324219 -1.504738,-1.311311 -3.339035,-2.396577 -5.632813,-3.0625 h -0.0039 l -0.002,-0.002 c -1.072646,-0.306464 -2.227714,-0.380334 -3.261719,-0.523438 l -0.396484,-1.916015 c -0.307426,-1.558351 -0.246775,-4.342318 0.207031,-6.789063 0.793153,-4.129165 2.051371,-6.677998 4.378906,-9.447265 0.389958,-0.01554 0.997461,0.0018 1.390625,-0.02344 0.222236,-0.01132 0.569378,-0.110652 0.81836,-0.378906 0.248981,-0.268254 0.317894,-0.607502 0.316406,-0.822266 -0.003,-0.429527 -0.129551,-0.582018 -0.226562,-0.736328 -0.135768,-0.215956 -0.336069,-0.35384 -0.529297,-0.503906 2.160437,-0.01341 5.924277,-0.156662 6.578125,-0.08398 z m -9.152344,0.115235 c -0.11174,0.08436 -0.256724,0.08409 -0.353516,0.1875 -2.884025,0.06977 -5.60083,-0.0055 -10.498047,0.177734 h -0.01953 l -9.908203,0.712891 3.818359,2.419922 c 2.009822,3.067336 3.348455,6.515506 4.007813,9.908203 v 0.002 l 0.002,0.002 c 0.287322,1.448791 0.416399,4.284492 0.291016,5.412109 l -0.242188,1.833985 c -0.612142,0.108355 -1.256312,0.17091 -1.830078,0.310547 0.149681,-0.189419 0.313946,-0.297696 0.423828,-0.583985 l 0.002,-0.002 v -0.0039 c 0.697128,-1.849781 0.496224,-4.16137 -0.328125,-5.882812 -1.348396,-2.834508 -4.038694,-4.756006 -6.652344,-5.53711 l -0.0039,-0.002 -0.0059,-0.002 c -1.387918,-0.400586 -3.325343,-0.37935 -4.777344,0.0098 l -0.0098,0.0039 -0.0098,0.002 c -0.569707,0.163353 -1.435243,0.488858 -2.136719,0.828125 -2.520825,1.202739 -4.225651,3.531047 -4.912109,5.951172 -0.686927,2.421774 -0.339576,5.13257 1.65625,6.701172 l 0.002,0.002 1.025391,0.792969 1.953124,-0.449219 c 0.723912,-0.167522 1.880488,-0.365758 2.402344,-0.421875 l -0.0293,0.002 c 0.329897,-0.0266 0.637282,-0.06196 0.892579,-0.09961 0.127648,-0.01882 0.242132,-0.03727 0.351562,-0.06055 0.0946,-0.02012 0.177454,-0.02429 0.412109,-0.146485 0.386515,-0.199124 0.598726,-0.632608 0.632813,-0.867187 0.03471,-0.238847 0.0019,-0.365549 -0.02148,-0.466797 -0.04681,-0.202497 -0.102293,-0.305977 -0.160157,-0.417969 -0.115727,-0.223984 -0.257437,-0.430214 -0.439453,-0.650391 -0.520424,-0.629532 -0.900531,-0.637994 -1.246094,-0.789062 -0.07219,-0.03156 -0.106794,-0.04903 -0.167968,-0.07617 -0.06992,-0.251638 -0.135272,-0.522449 -0.101563,-0.824219 0.0432,-0.386712 0.187394,-0.765769 0.226563,-0.841797 0.34495,-0.608899 1.094045,-1.384231 1.433593,-1.560546 l 0.002,-0.002 c 0.08286,-0.04318 0.124019,-0.0095 0.210938,-0.03711 -0.01614,0.05331 -0.05975,0.06455 -0.07422,0.126953 -0.06982,0.301117 0.01126,0.689573 0.06055,0.820313 0.04929,0.130739 0.03927,0.104317 0.03906,0.103515 l 0.002,0.0039 0.002,0.0039 c 0.261258,0.979699 1.14004,1.578711 1.962891,1.728515 0.534013,0.09722 1.072675,5.22e-4 1.589843,-0.189453 -0.07786,0.276535 -0.161066,0.47676 -0.46875,1.072266 -0.187038,0.362003 -0.269748,0.684931 -0.322265,0.867187 -0.02626,0.09113 -0.04949,0.151974 -0.0332,0.113282 0.01629,-0.03869 0.03766,-0.318425 0.570313,-0.511719 -0.197928,0.07183 -0.610632,0.315587 -0.738281,0.800781 -0.127649,0.485195 0.0688,0.808161 0.164062,0.951172 0.190531,0.286023 0.2644,0.293447 0.316406,0.335938 0.05201,0.04249 0.07495,0.0667 0.03711,0.0293 -0.03784,-0.0374 -0.279297,-0.114054 -0.279297,-0.71289 0,0.437439 0.257242,0.7776 0.433594,0.929687 0.176351,0.152088 0.309637,0.208584 0.427734,0.25586 0.236194,0.09455 0.426591,0.128268 0.636719,0.162109 0.297118,0.04785 0.642474,0.05776 0.980469,0.07227 -0.964809,0.555556 -1.835472,1.218939 -2.605469,1.9375 l -2.210938,0.517578 -0.0098,0.0039 c 0.195165,-0.0497 -0.37755,0.03491 -0.939453,0.05078 -0.561903,0.01588 -1.273798,0.01981 -1.984375,0.01172 -1.4896,-0.01696 -3.002415,0.01743 -3.84961,0.166016 -2.597948,0.446949 -4.767517,1.930191 -6.005859,4.136718 v 0.002 c -2.276094,4.078944 -1.577619,8.753612 1.482422,13.019531 -3.217266,-3.112536 -4.877436,-7.172738 -4.324219,-11.175781 0.256441,-1.812637 0.776597,-3.550108 2.070313,-6.671875 v -0.002 l 0.002,-0.002 c 1.079616,-2.636803 1.574652,-3.931869 1.722656,-4.886718 v -0.0078 l 0.002,-0.0098 c 0.0606,-0.439832 -0.09276,-0.757899 -0.222656,-0.97461 -0.04122,-0.06878 -0.09623,-0.11914 -0.140625,-0.179687 0.413088,-0.03069 0.841524,-0.32788 1.017578,-0.580079 0.177765,-0.25465 0.230387,-0.454087 0.28125,-0.642578 0.101726,-0.376981 0.151009,-0.751893 0.234375,-1.248046 0.42116,-2.513329 0.679159,-5.624977 0.662109,-8.210938 v -0.0078 -3.447266 c 1.116635,-1.016218 2.537353,-2.060766 3.986328,-2.640625 h 0.002 v -0.002 c 2.920884,-1.177754 5.117739,-1.417074 13.994141,-1.433594 3.504019,0 7.967821,-0.06408 9.972656,-0.148438 2.809193,-0.119288 3.4266,-0.02883 5.664063,-0.07227 z m -1.947266,2.480469 c -1.837998,2.593936 -3.14879,5.296141 -3.855468,8.978515 l -0.002,0.0039 v 0.0039 c -0.476097,2.566928 -0.565187,5.266693 -0.222656,7.30664 L 58.125,72.695312 h -0.002 c -1.052917,-0.03514 -2.623389,-0.0039 -3.644531,0.08594 l -0.351563,0.02734 c 0.152899,-1.622659 0.03787,-4.150964 -0.308594,-5.900391 v -0.0039 C 53.15086,63.471909 51.784037,60.021569 49.826172,56.851562 l 3.966797,-0.285156 c 4.021528,-0.149855 6.244712,-0.130757 8.804687,-0.15039 z m 21.109375,2.666015 c 0.0011,9.89e-4 0.0028,9.67e-4 0.0039,0.002 0.0072,0.0057 -0.0094,-0.0065 -0.002,0 z m -11.572265,3.064453 c -2.270925,0.110813 -4.361175,1.013624 -6.011719,2.638672 -0.922392,0.910837 -1.535074,1.860351 -2.339844,3.570313 l -0.04492,0.09375 -0.02734,0.101562 c -0.117503,0.447987 -0.199182,0.667512 -0.277344,0.982422 -0.07816,0.31491 -0.117188,0.675948 -0.117188,1.136719 0,1.469325 0.355977,2.210701 0.830078,3.160156 7.65e-4,0.0016 0.0012,0.0023 0.002,0.0039 0.0014,0.0027 0.0025,0.0051 0.0039,0.0078 0.268338,0.554569 0.42731,0.917681 0.814453,1.302734 0.195215,0.194161 0.574379,0.486977 1.128906,0.425781 0.554527,-0.06119 0.863631,-0.43977 1.003906,-0.666015 l -0.06641,0.09766 c -0.264563,0.341369 -0.34748,0.294375 -0.392578,0.314453 -0.0451,0.02008 -0.04928,0.01815 -0.04102,0.01563 0.01653,-0.005 0.0903,-0.02443 0.183594,-0.04297 0.186594,-0.03708 0.46547,-0.07662 0.748047,-0.09766 l 2.140625,-0.136718 1.458984,-2.214844 -0.634765,-0.652344 c -0.01632,-0.01682 -0.260688,-0.418552 -0.396485,-0.830078 -0.134668,-0.40811 -0.203911,-0.88815 -0.205078,-0.939453 0.01238,-0.831639 0.386883,-1.270142 1.101563,-1.65625 -0.07432,0.235665 -0.248219,0.433533 -0.257813,0.6875 -0.02301,0.609061 0.193594,1.29782 0.710938,1.792969 0.361641,0.351641 0.863642,0.486388 1.240234,0.478515 0.382551,-0.008 0.690306,-0.107311 0.974609,-0.222656 0.141928,-0.05758 0.231584,-0.148593 0.363282,-0.216797 -0.275264,0.554332 -0.700257,1.209472 -0.986328,1.519531 l -0.271485,0.294922 -0.134765,2 h 1.859375 c -0.09996,0 0.429457,0.04921 0.970703,0.150391 0.541246,0.101184 1.2146,0.24369 1.871094,0.396484 l -0.01172,-0.0039 c 0.692447,0.169645 1.341462,0.310142 1.849609,0.402344 0.254074,0.0461 0.469568,0.08054 0.660156,0.101562 0.09529,0.01051 0.180126,0.01903 0.292969,0.01953 0.05642,2.52e-4 0.119371,-0.0011 0.220703,-0.01563 0.08905,-0.01278 0.248726,-0.04486 0.492188,-0.207031 0.358615,-0.23542 0.50625,-0.466456 0.638672,-0.697265 0.141529,-0.246684 0.254498,-0.50892 0.357422,-0.792969 0.205847,-0.568099 0.363178,-1.21512 0.425781,-1.861328 h 0.002 c 0.165553,-1.722253 -0.252702,-3.779458 -1.091797,-5.404297 v -0.002 C 79.908591,64.718167 77.234333,62.80511 74.458984,62.302734 h -0.002 c -0.787634,-0.141488 -1.56529,-0.193187 -2.322265,-0.15625 z m 1.921875,2.388672 c 1.956044,0.355071 4.25011,2.029985 5.097656,3.683594 l 0.002,0.002 v 0.002 c 0.5903,1.142493 0.956372,3.037778 0.849609,4.148438 -0.03972,0.407832 -0.16406,0.921974 -0.302734,1.304687 -0.02264,0.06247 -0.03981,0.08822 -0.0625,0.142578 -0.02628,-0.0046 -0.0349,-0.0048 -0.0625,-0.0098 -0.445147,-0.08077 -1.062463,-0.213218 -1.714844,-0.373047 h -0.0059 l -0.0078,-0.002 c -0.688334,-0.160206 -1.384515,-0.30716 -1.966797,-0.416016 -0.118773,-0.0222 -0.18104,-0.0196 -0.283203,-0.03906 0.177415,-0.293366 0.403313,-0.528935 0.546875,-0.835938 0.188755,-0.403646 0.342228,-0.796909 0.416016,-1.236328 0.03689,-0.21971 0.0581,-0.456322 0.0059,-0.744141 -0.05224,-0.287818 -0.21343,-0.664267 -0.541015,-0.919921 l 0.271484,0.308593 c -0.02854,-0.04717 -0.147376,-0.378499 -0.570312,-0.699219 -0.422937,-0.320719 -1.188843,-0.390935 -1.72461,-0.173828 l -0.142578,0.05859 -0.121094,0.09375 c -0.190379,0.145864 -0.396076,0.250263 -0.601562,0.367188 0.131313,-0.162369 0.245877,-0.325106 0.333984,-0.539063 0.08946,-0.21724 0.115235,-0.491989 0.115235,-0.595703 0,-0.273565 -0.03587,-0.580989 -0.19336,-0.910156 -0.157491,-0.329168 -0.475773,-0.664579 -0.859375,-0.828125 -0.767202,-0.327093 -1.482941,-0.123186 -2.294922,0.240234 l -0.0098,0.0039 -0.0078,0.0039 c -1.426248,0.669809 -2.575282,2.048768 -2.597656,3.824218 v 0.0059 0.0078 c 0,0.548696 0.126362,1.070443 0.320312,1.658203 0.09097,0.27569 0.304377,0.528153 0.433594,0.796875 l -1.009765,0.06445 h -0.0059 c -0.381325,0.02839 -0.731431,0.07712 -1.021484,0.134765 -0.01061,0.0021 -0.01887,0.0057 -0.0293,0.0078 -0.06524,-0.111913 -0.04614,-0.06766 -0.125,-0.230469 l -0.0039,-0.0078 -0.002,-0.0059 c -0.510157,-1.02143 -0.597657,-0.932219 -0.597657,-2.158203 0,-0.362913 0.01247,-0.435479 0.05078,-0.589844 0.03235,-0.13034 0.124792,-0.4302 0.228515,-0.80664 0.73732,-1.559395 1.119505,-2.148232 1.853516,-2.873047 1.714357,-1.687166 3.805286,-2.320535 6.339844,-1.865235 z m -31.439453,0.533203 h 0.002 c 2.013466,0.604687 4.244489,2.234877 5.24414,4.337891 v 0.002 l 0.002,0.002 c 0.468743,0.97885 0.608332,3.144795 0.251954,4.097656 -5.09e-4,-3.06e-4 -0.117742,0.180663 -0.277344,0.328126 -0.08031,0.0742 -0.164093,0.143957 -0.242188,0.207031 -0.01792,0.01448 -0.05973,0.05799 -0.07227,0.06445 -0.05057,0.01113 -0.111727,0.02546 -0.22461,0.03906 -0.290638,0.03502 -0.716056,0.05364 -1.125,0.04883 -0.231081,-0.0027 -0.394474,-0.02518 -0.59375,-0.04102 0.278457,-0.527798 0.857422,-1.262569 0.857422,-2.433594 0,-0.755804 -0.01172,-1.489791 -0.78125,-2.050781 -0.384765,-0.280495 -0.923718,-0.334231 -1.298828,-0.244141 -0.37511,0.09009 -0.649283,0.261645 -0.90625,0.457031 l -0.0039,0.002 -0.0039,0.0039 c -0.137547,0.106486 -0.424138,0.170442 -0.609374,0.136719 -0.14208,-0.02587 -0.128659,-0.03886 -0.136719,-0.06055 0.03031,-0.04168 -0.0186,0.05644 0.189453,-0.216797 l 0.002,-0.002 0.002,-0.002 c 0.323068,-0.428765 0.470094,-1.222194 0.158203,-1.765625 -0.311891,-0.543432 -0.776281,-0.736794 -1.193359,-0.847657 -0.834156,-0.221724 -1.761996,-0.111939 -2.677734,0.365235 -1.054139,0.547378 -1.833559,1.505753 -2.376954,2.476562 l -0.0059,0.0098 -0.0059,0.0098 c -0.235192,0.440978 -0.404202,0.98522 -0.480469,1.667968 -0.07627,0.682748 -0.04399,1.494419 0.333984,2.291016 l 0.01563,0.0332 0.01953,0.0332 c 0.13615,0.24469 0.187757,0.168273 0.287109,0.25 -0.507521,0.08687 -0.984012,0.14701 -1.4375,0.251953 l -0.90625,0.208985 -0.164063,-0.126954 -0.002,-0.002 c -1.083656,-0.853473 -1.390173,-2.473734 -0.873047,-4.296875 0.517461,-1.82432 1.874717,-3.653679 3.708985,-4.527343 h 0.0039 l 0.002,-0.002 c 0.519309,-0.251275 1.406139,-0.580325 1.761719,-0.683594 0.763009,-0.203109 3.002973,-0.1806 3.556641,-0.02148 z M 41.083984,68.375 c -0.0018,0.0024 -0.0021,0.0035 -0.0039,0.0059 6.9e-5,-9.5e-5 -6.7e-5,-0.0019 0,-0.002 z m 17.583985,8.035156 c 2.492977,0.179309 3.394868,0.320419 5.130859,0.816406 2.563917,0.745077 4.524481,1.924642 5.732422,3.335938 0.586969,0.686714 1.103968,1.258916 1.621094,1.683594 0.258563,0.212339 0.506894,0.400704 0.886718,0.529297 0.375398,0.127093 1.074686,0.08801 1.496094,-0.304688 0.244079,-0.232938 0.382902,-0.57083 0.40625,-0.816406 0.02409,-0.253338 -0.01712,-0.431148 -0.05859,-0.574219 -0.08294,-0.286141 -0.189911,-0.465194 -0.292968,-0.640625 -0.109211,-0.185906 -0.152387,-0.247126 -0.240235,-0.382812 1.114966,0.106793 2.066015,0.304411 3.623047,0.24414 2.139353,-0.08151 2.826895,-0.04774 3.56836,0.121094 h 0.0039 0.002 c 3.403719,0.759019 6.130048,3.87613 6.699219,7.835937 0.434939,3.148451 -1.338402,6.357105 -5.277344,8.882813 -2.146479,1.354653 -4.587952,2.385563 -9.962891,4.275395 -0.01338,-0.0457 0.01583,-0.0655 -0.0039,-0.11329 l -0.0078,-0.0195 -0.0098,-0.0215 c -0.09222,-0.20082 -0.20837,-0.3759 -0.390625,-0.54492 -0.182255,-0.16902 -0.451874,-0.37891 -0.929688,-0.37891 -0.584131,0 -0.739314,0.17382 -0.988281,0.31641 -0.248966,0.14259 -0.496815,0.31408 -0.753906,0.51172 -0.514182,0.39527 -1.052165,0.88319 -1.494141,1.38867 l -0.002,0.004 -0.0039,0.002 c -0.376793,0.43755 -1.4103,1.53956 -2.21875,2.33789 l -0.0059,0.006 -0.0059,0.006 c -1.667225,1.69328 -1.753218,1.72391 -4.158203,2.04492 l 0.002,-0.002 c -2.233609,0.29409 -6.943359,0.0196 -10.318359,-0.6621 -0.878305,-0.17708 -1.674129,-0.73483 -3.501953,-2.85743 l -0.002,-0.002 v -0.002 c -1.2114,-1.39521 -1.993075,-2.27927 -2.533203,-2.84571 -0.270065,-0.28321 -0.475297,-0.48546 -0.685547,-0.656246 -0.21025,-0.170784 -0.397234,-0.412109 -1.009766,-0.412109 -0.32334,0 -0.84724,0.09196 -1.195313,0.554685 -0.343853,0.45712 -0.293498,0.95068 -0.216796,1.26367 -1.471377,-0.57624 -2.919613,-1.05949 -4.34961,-1.812496 -2.303113,-1.212776 -4.31759,-2.610073 -4.90625,-3.289062 v -0.002 C 28.712774,92.089278 28.053802,88.067102 30.117188,84.367188 l 0.002,-0.002 c 0.906725,-1.613956 2.412886,-2.666156 4.410156,-3.009765 h 0.002 0.002 c 0.276826,-0.04871 2.030768,-0.148783 3.433594,-0.132813 0.662955,0.0075 1.302979,0.0033 1.869141,-0.0098 -0.04869,0.139694 -0.132598,0.254682 -0.169922,0.398437 -0.07454,0.287085 -0.135609,0.572281 -0.101563,0.947266 0.03405,0.374984 0.305281,1.037082 0.914063,1.263672 l 0.0078,0.002 0.0078,0.002 c 0.376287,0.134156 0.73941,0.0573 0.958984,-0.03516 0.219574,-0.09246 0.354414,-0.198642 0.472656,-0.300782 0.236486,-0.204278 0.404754,-0.414288 0.583985,-0.652343 0.355893,-0.472699 0.716727,-1.052364 1.074218,-1.628907 0.482047,-0.758042 2.044066,-2.154888 3.50586,-2.958984 l 0.002,-0.002 0.0039,-0.002 c 1.261849,-0.703472 4.358592,-1.537523 7.251953,-1.822266 h 0.002 0.002 c 1.956354,-0.197552 1.797712,-0.194833 4.316407,-0.01367 z"
       style="color:#000000;font-style:normal;font-variant:normal;font-weight:normal;font-stretch:normal;font-size:medium;line-height:normal;font-family:sans-serif;font-variant-ligatures:normal;font-variant-position:normal;font-variant-caps:normal;font-variant-numeric:normal;font-variant-alternates:normal;font-feature-settings:normal;text-indent:0;text-align:start;text-decoration:none;text-decoration-line:none;text-decoration-style:solid;text-decoration-color:#000000;letter-spacing:normal;word-spacing:normal;text-transform:none;writing-mode:lr-tb;direction:ltr;text-orientation:mixed;dominant-baseline:auto;baseline-shift:baseline;text-anchor:start;white-space:normal;shape-padding:0;clip-rule:nonzero;display:inline;overflow:visible;visibility:visible;opacity:1;isolation:auto;mix-blend-mode:normal;color-interpolation:sRGB;color-interpolation-filters:linearRGB;solid-color:#000000;solid-opacity:1;vector-effect:none;fill:#000000;fill-opacity:1;fill-rule:nonzero;stroke:none;stroke-width:2.26799989;stroke-linecap:butt;stroke-linejoin:miter;stroke-miterlimit:4;stroke-dasharray:none;stroke-dashoffset:0;stroke-opacity:1;color-rendering:auto;image-rendering:auto;shape-rendering:auto;text-rendering:auto;enable-background:accumulate" />
    <path
       inkscape:connector-curvature="0"
       id="path6"
       d="m 18.898438,47.667969 c -0.584971,0.0015 -1.090098,0.125462 -1.603516,0.314453 -0.0011,3.92e-4 -0.0028,-3.93e-4 -0.0039,0 -0.920286,0.33134 -1.725633,0.929834 -2.171875,1.783203 -0.300679,0.556177 -0.375182,1.102706 -0.369141,1.640625 0.0061,0.541104 -0.07804,1.106895 0.667969,1.714844 l 0.002,0.002 0.002,0.002 c 0.222542,0.179465 0.503731,0.334824 0.857422,0.380859 0.353691,0.04604 0.770826,-0.05765 1.0625,-0.271484 0.583347,-0.427668 0.693359,-1.0239 0.693359,-1.552734 0,-0.330276 0.04895,-0.415818 0.01172,-0.34375 -0.03724,0.07207 -0.139777,0.118271 0.0332,0.03711 l 0.01953,-0.0098 0.01953,-0.0098 c 0.233212,-0.120366 0.181584,-0.138668 0.757812,-0.05469 0.576228,0.08398 1.628043,0.354863 3.416016,0.863281 h 0.002 c 2.514388,0.711763 4.096293,1.121736 5.167969,1.279297 0.535837,0.07878 0.922619,0.149695 1.472656,-0.0293 0.275019,-0.08949 0.639665,-0.31486 0.833984,-0.683593 0.19432,-0.368733 0.174861,-0.743592 0.121094,-0.992188 l -0.002,-0.0059 -0.002,-0.0078 c -0.09821,-0.427645 -0.271538,-0.558787 -0.398438,-0.683593 -0.1269,-0.124806 -0.245494,-0.21209 -0.373047,-0.294922 -0.252317,-0.163854 -0.535668,-0.300739 -0.855468,-0.41211 -1.675845,-0.613074 -3.723536,-1.270722 -5.47461,-1.779296 -0.877133,-0.254752 -1.678399,-0.471175 -2.328125,-0.626954 -0.644877,-0.154616 -1.011054,-0.268965 -1.558593,-0.259765 z m -1.78125,1.652343 c -0.007,0.0033 -0.0125,0.01421 -0.01953,0.01758 -0.0049,0.0025 -0.01466,-5.62e-4 -0.01953,0.002 z"
       style="color:#000000;font-style:normal;font-variant:normal;font-weight:normal;font-stretch:normal;font-size:medium;line-height:normal;font-family:sans-serif;font-variant-ligatures:normal;font-variant-position:normal;font-variant-caps:normal;font-variant-numeric:normal;font-variant-alternates:normal;font-feature-settings:normal;text-indent:0;text-align:start;text-decoration:none;text-decoration-line:none;text-decoration-style:solid;text-decoration-color:#000000;letter-spacing:normal;word-spacing:normal;text-transform:none;writing-mode:lr-tb;direction:ltr;text-orientation:mixed;dominant-baseline:auto;baseline-shift:baseline;text-anchor:start;white-space:normal;shape-padding:0;clip-rule:nonzero;display:inline;overflow:visible;visibility:visible;opacity:1;isolation:auto;mix-blend-mode:normal;color-interpolation:sRGB;color-interpolation-filters:linearRGB;solid-color:#000000;solid-opacity:1;vector-effect:none;fill:#000000;fill-opacity:1;fill-rule:nonzero;stroke:none;stroke-width:2.26771641;stroke-linecap:butt;stroke-linejoin:miter;stroke-miterlimit:4;stroke-dasharray:none;stroke-dashoffset:0;stroke-opacity:1;color-rendering:auto;image-rendering:auto;shape-rendering:auto;text-rendering:auto;enable-background:accumulate" />
    <path
       sodipodi:nodetypes="ccsccccccccccccccc"
       d="m 54.966871,78.977112 c -1.872545,0.131789 -4.630293,0.626 -5.958099,1.054316 -1.95766,0.642474 -2.468355,1.153159 -2.468355,2.504001 0,1.334369 0.64688,2.520475 2.195986,4.003107 1.515059,1.449686 2.706678,2.158055 4.715409,2.833476 1.378874,0.461264 1.617198,0.494211 3.455698,0.428316 1.872544,-0.04942 2.042776,-0.08237 3.319512,-0.675421 2.893933,-1.334369 5.549543,-4.10195 6.07726,-6.342372 0.697949,-2.89937 -3.728068,-4.382003 -11.337411,-3.805423 z m 7.490181,1.69679 c 0.476649,0.164737 1.038413,0.428316 1.276736,0.593053 0.492686,0.333697 0.359011,0.58919 0.186372,1.134114 -0.289393,0.06589 -1.037046,-0.114406 -1.530716,-0.213247 -0.493671,-0.08237 -2.324701,-0.101438 -3.635482,-0.20028 -3.268443,-0.280052 -7.0699,0.202278 -8.993514,0.910648 -0.783065,0.296526 -1.466647,-0.626339 -0.921907,-1.071129 0.59581,-0.461264 2.213008,-0.988422 4.1196,-1.301422 1.974684,-0.345947 8.341338,-0.230632 9.498911,0.148263 z"
       id="path8"
       inkscape:connector-curvature="0"
       style="fill:#000000;stroke:none;stroke-width:2.26771634;stroke-miterlimit:4;stroke-dasharray:none" />
    <path
       inkscape:connector-curvature="0"
       id="path10"
       d="m 76.310547,83.75 c -0.655037,0 -0.683729,0.199273 -0.806641,0.291016 -0.122912,0.09174 -0.216656,0.177535 -0.314453,0.273437 -0.195593,0.191804 -0.393665,0.416127 -0.591797,0.660156 l -0.0059,0.0078 -0.0059,0.0078 c -0.416079,0.530764 -1.131053,1.574492 -1.683594,2.464844 -0.808807,1.276639 -1.276115,1.883935 -1.816406,2.279297 -0.540292,0.395362 -1.305712,0.683009 -2.832032,1.109375 -2.714742,0.745929 -5.356606,1.04138 -7.201172,0.847656 l 0.0039,0.002 c -0.835151,-0.09064 -1.582533,-0.197351 -2.138672,-0.298828 -0.134496,-0.02454 -0.212793,-0.04503 -0.322266,-0.06836 -0.0016,-0.05882 -0.0044,-0.08949 -0.0059,-0.152344 -0.01217,-0.525344 -0.01604,-1.14722 -0.07813,-1.667969 l -0.0078,-0.0625 -0.01367,-0.0625 c -0.0334,-0.141426 -0.07403,-0.306649 -0.236328,-0.53125 -0.162294,-0.224601 -0.567219,-0.496003 -0.943359,-0.509765 -0.204002,-0.0075 -0.144239,0.07641 -0.267578,0.109375 -0.168621,-0.149645 -0.372403,-0.336929 -0.712891,-0.337891 -0.428336,-0.0012 -0.707111,0.217844 -0.839844,0.351563 -0.132733,0.133719 -0.185669,0.230304 -0.230468,0.3125 -0.0896,0.164391 -0.129853,0.287668 -0.179688,0.439453 l -0.05469,0.166015 -0.02148,2.003907 -0.671875,0.189453 h -0.002 c -5.491299,1.566403 -10.047064,0.382555 -14.289062,-3.751953 h -0.002 l -0.677734,-0.65625 c 0.0023,-0.0043 0.0055,-0.0054 0.0078,-0.0098 0.162939,-0.315362 0.221619,-0.79652 0.07617,-1.183594 l -0.0039,-0.0098 -0.0039,-0.0098 c -0.09115,-0.229349 -0.305074,-0.505436 -0.537109,-0.65625 -0.232036,-0.150814 -0.440931,-0.203761 -0.623047,-0.238281 -0.364233,-0.06904 -0.69263,-0.06836 -1.191406,-0.06836 -0.573732,0 -0.918769,-0.03013 -1.400391,0.113282 -0.478606,0.14251 -0.838557,0.505555 -1.054688,0.755859 -6.24e-4,7.15e-4 -0.0013,0.0012 -0.002,0.002 -0.271269,0.311113 -0.4756,0.627833 -0.597656,1 -0.122336,0.373023 -0.18956,0.870775 0.125,1.373047 0.31456,0.502272 0.984691,0.700444 1.425781,0.648437 0.256866,-0.03029 0.443022,-0.170483 0.650391,-0.273437 1.306559,1.923832 2.712754,3.33137 4.925781,4.720703 0.892185,0.562745 1.205414,0.758221 1.695313,1.306641 0.489898,0.54842 1.172793,1.51816 2.509765,3.447265 2.407304,3.494386 3.435379,4.938246 4.523438,5.724606 0.584209,0.43082 1.329987,0.72277 2.289062,0.86133 0.960779,0.13881 2.187147,0.17189 4.039063,0.16406 2.793275,-9e-5 3.693105,-0.0616 5.023437,-0.37109 h 0.002 c 1.744135,-0.3869 2.915653,-0.83551 3.890625,-1.55664 h 0.002 c 0.646513,-0.47481 1.035363,-1.08997 1.710938,-2.09961 0.676559,-1.011113 1.502737,-2.359956 2.455078,-4.007812 l 0.002,-0.002 c 0.759452,-1.308971 1.256599,-2.08866 1.636719,-2.544922 0.380459,-0.456668 0.608087,-0.616618 1.109375,-0.869141 l 0.0078,-0.002 0.0059,-0.0039 c 1.583298,-0.822152 2.896963,-2.300453 4.023437,-4.332031 h 0.002 c 0.233689,-0.42214 0.475796,-0.842687 0.675781,-1.175781 0.05683,-0.09466 0.05294,-0.08543 0.105469,-0.167969 0.215012,0.09129 0.385445,0.272498 0.648437,0.27539 0.273956,0.003 0.611059,-0.05292 0.929687,-0.302734 0.318629,-0.249816 0.521485,-0.714695 0.521485,-1.083984 0,-0.498281 -0.161683,-0.778524 -0.318359,-1.054688 C 78.491761,85.258993 78.304957,85.009299 78.097656,84.777344 77.890355,84.545388 77.666717,84.334227 77.408203,84.150391 77.14969,83.966554 76.88786,83.75 76.310547,83.75 Z m -19.328125,9.433594 c 7.26e-4,4.11e-4 0.0012,-4.11e-4 0.002,0 2.59e-4,1.48e-4 -2.58e-4,0.0018 0,0.002 0.0048,0.0027 9.71e-4,0.0032 0.0059,0.0059 l -0.0098,-0.0059 z m -12.259766,0.1875 c 0.06043,0.02252 0.119067,0.05248 0.179688,0.07422 -0.0245,0.0234 -0.02506,0.07528 -0.04883,0.103516 -0.03273,-0.0392 -0.09853,-0.140056 -0.13086,-0.177734 z m 19.970703,0.488281 c 0.0459,0.639064 0.0928,1.310603 0.09375,1.310547 -0.01701,0.0014 -0.04835,0.0067 -0.15039,-0.0078 -0.107328,-0.01526 -0.346017,-0.01103 -0.652344,-0.353515 -0.233629,-0.261208 -0.177907,-0.626879 -0.140625,-0.916016 0.294078,-0.02357 0.547217,0.0034 0.849609,-0.0332 z m -1.582031,0.04687 c -0.0895,0.06848 -0.157154,0.08314 -0.277344,0.230469 l -0.0098,0.01172 -0.0078,0.01172 c -0.048,0.06193 -0.06002,0.0984 -0.101562,0.158203 -0.04665,-0.09014 -0.03609,-0.169482 -0.09961,-0.259765 l -0.002,-0.0039 -0.002,-0.002 c -0.03092,-0.04339 -0.125804,-0.08588 -0.166016,-0.134765 0.220162,-8.1e-4 0.439219,-0.0023 0.666016,-0.01172 z m -11.666016,0.400391 c -0.0098,0.04846 -0.02343,0.115163 -0.02344,0.115234 -7e-6,2.34e-4 0.06242,0.402111 0.0625,0.402344 5e-6,1.3e-5 0.0087,0.0156 0.0098,0.01758 -0.01734,0.06634 -0.04505,0.120796 -0.05664,0.183594 -0.07437,-0.09686 -0.177262,-0.213226 -0.226562,-0.283203 -0.106958,-0.158707 -0.261299,-0.219275 -0.390626,-0.335938 0.204427,-0.0096 0.419182,-0.08233 0.625,-0.09961 z m 5.279297,0.25 c 0.01895,0.0024 0.01383,0.0015 0.03906,0.0059 0.156044,0.0271 0.411823,0.09154 0.683594,0.183594 l 0.0039,0.002 h 0.0039 c 0.760749,0.251856 1.784431,0.444787 2.574219,0.517578 l 0.0059,0.002 h 0.0059 c 0.553332,0.0459 0.81891,0.100849 0.783203,0.08789 -0.03571,-0.01296 -0.191574,-0.170186 -0.06055,0.01367 l -0.0039,-0.0059 c -0.01536,-0.02183 0.01842,0.07699 0.01367,0.482422 -0.0024,0.202718 -0.05266,0.480536 0.166015,0.935547 0.218671,0.455011 0.910995,0.814453 1.357422,0.814453 0.522447,0 0.913299,-0.247153 1.167969,-0.46875 0.254669,-0.221597 0.422456,-0.449918 0.570312,-0.666015 0.289459,-0.423055 0.524686,-0.841294 0.560547,-0.892579 -0.08673,0.105615 -0.04481,0.0496 0.05664,-0.01563 0.112102,-0.07207 0.268435,-0.163501 0.421875,-0.255859 0.06761,-0.04069 0.162668,-0.124751 0.228515,-0.164063 0.259626,-0.02018 0.560828,-0.04544 0.820313,-0.08008 h 0.002 0.0039 c 0.02066,-0.0029 0.07922,-0.0095 0.101563,-0.01172 -0.06795,0.124944 -0.138244,0.256979 -0.197266,0.361328 -0.09675,0.171043 -0.221836,0.350565 -0.148437,0.255859 l -0.0293,0.03906 -0.02734,0.04102 c -0.164263,0.254325 -0.562796,0.928089 -1.054687,1.726563 l -0.002,0.002 c -0.521885,0.854108 -0.86401,1.5156 -1.117187,1.970703 -0.264635,-0.104853 -0.492831,-0.268295 -0.794922,-0.365234 -0.675075,-0.216629 -1.42193,-0.409612 -2.09375,-0.56836 -0.0019,-4.61e-4 -0.004,4.61e-4 -0.0059,0 -1.297998,-0.321678 -1.943497,-0.343212 -4.076172,-0.265625 -2.491369,0.0707 -4.212044,0.768838 -5.740235,1.605469 l -0.226562,-0.324219 -0.429688,-0.503906 -0.01172,-0.01172 c 0.03595,0.03976 -0.32772,-0.426863 -0.699219,-0.947265 -0.371499,-0.520403 -0.829677,-1.17712 -1.273438,-1.820313 -0.115062,-0.166773 -0.197111,-0.290393 -0.308593,-0.453125 0.302642,0.02664 0.671388,0.05398 0.880859,0.0918 0.403177,0.07278 0.473137,0.161563 0.455078,0.134766 l 0.0059,0.0098 0.0059,0.0078 c 0.198082,0.282965 0.50351,0.682858 0.849609,1.058594 0.17305,0.187867 0.351414,0.367422 0.566406,0.535156 0.214993,0.167734 0.419501,0.410156 1.044922,0.410156 0.578516,0 1.186125,-0.499666 1.371094,-0.880859 0.18497,-0.381194 0.209761,-0.667922 0.244141,-0.923829 0.06807,-0.506672 0.196065,-0.878825 0.121093,-0.78125 0.494667,-0.09485 0.998452,-0.195164 1.582032,-0.355468 0.39838,-0.109432 0.782648,-0.223651 1.107422,-0.330078 0.188021,-0.06162 0.343463,-0.142133 0.496093,-0.203125 z m 0.03125,5.947269 h 0.0059 0.0039 c 2.124612,-0.0773 2.258263,-0.0958 3.455078,0.20117 l 0.0059,0.002 0.0059,0.002 c 0.63869,0.15075 1.347818,0.33547 1.933594,0.52344 0.325638,0.1045 0.395579,0.15328 0.595703,0.24414 -0.543974,0.26585 -0.953677,0.53877 -2.023438,0.77539 l -0.0059,0.002 -0.0059,0.002 c -1.198367,0.2789 -1.741398,0.31055 -4.515624,0.31055 h -0.0039 -0.002 c -1.81582,0.008 -2.976136,-0.0353 -3.705078,-0.14063 -0.571902,-0.0826 -0.761543,-0.20671 -0.996094,-0.34766 1.464719,-0.8832 2.832644,-1.50734 5.251953,-1.57421 z"
       style="color:#000000;font-style:normal;font-variant:normal;font-weight:normal;font-stretch:normal;font-size:medium;line-height:normal;font-family:sans-serif;font-variant-ligatures:normal;font-variant-position:normal;font-variant-caps:normal;font-variant-numeric:normal;font-variant-alternates:normal;font-feature-settings:normal;text-indent:0;text-align:start;text-decoration:none;text-decoration-line:none;text-decoration-style:solid;text-decoration-color:#000000;letter-spacing:normal;word-spacing:normal;text-transform:none;writing-mode:lr-tb;direction:ltr;text-orientation:mixed;dominant-baseline:auto;baseline-shift:baseline;text-anchor:start;white-space:normal;shape-padding:0;clip-rule:nonzero;display:inline;overflow:visible;visibility:visible;opacity:1;isolation:auto;mix-blend-mode:normal;color-interpolation:sRGB;color-interpolation-filters:linearRGB;solid-color:#000000;solid-opacity:1;vector-effect:none;fill:#000000;fill-opacity:1;fill-rule:nonzero;stroke:none;stroke-width:2.26771641;stroke-linecap:butt;stroke-linejoin:miter;stroke-miterlimit:4;stroke-dasharray:none;stroke-dashoffset:0;stroke-opacity:1;color-rendering:auto;image-rendering:auto;shape-rendering:auto;text-rendering:auto;enable-background:accumulate" />
    <path
       transform="scale(0.74999993)"
       inkscape:connector-curvature="0"
       id="path877"
       d="m 104.84908,60.217215 c -0.0796,-0.397971 -0.52931,-1.086298 -0.99936,-1.529616 -0.65212,-0.61503 -0.96685,-1.210919 -1.32812,-2.514612 -0.5134,-1.852669 -3.687521,-8.815143 -5.079553,-11.142064 l -0.861855,-1.440678 0.67096,-0.179189 c 0.710672,-0.189793 1.18532,-1.063737 2.05441,-3.782675 1.033128,-3.23214 4.460558,-10.421103 7.442978,-15.611515 4.34742,-7.565972 10.2956,-15.2729216 12.1337,-15.7214245 2.19527,-0.5356524 6.36826,7.4444035 8.61707,16.4785265 1.64616,6.613071 1.97764,9.43227 2.1143,17.982247 0.0824,5.151934 0.0326,8.495788 -0.14631,9.82491 -0.14914,1.108179 -0.31038,2.054094 -0.35832,2.10203 -0.0479,0.04794 -0.43573,0.187128 -0.86175,0.309311 -0.65505,0.187865 -0.75254,0.164692 -0.63172,-0.150176 0.39616,-1.032375 0.90128,-10.557609 0.76859,-14.49357 -0.3353,-9.945763 -1.60208,-15.693736 -4.95752,-22.494635 -2.03757,-4.129803 -2.64768,-4.878246 -3.97659,-4.878246 -0.62663,0 -0.94163,0.182037 -1.46833,0.848535 -0.3688,0.466695 -1.07431,1.284606 -1.5678,1.817581 -2.28999,2.473221 -6.89609,9.820029 -8.5056,13.566566 -3.9851,9.276338 -4.65384,18.984337 -2.11721,30.735363 0.13359,0.618868 0.0793,0.767692 -0.31808,0.871603 -0.38196,0.09989 -0.50853,-0.02149 -0.62389,-0.598272 z"
       style="fill:#000000;fill-opacity:1;stroke:#000000;stroke-width:1.81502736;stroke-linejoin:round;stroke-miterlimit:4;stroke-dasharray:none;stroke-opacity:1;paint-order:normal" />
    <path
       transform="scale(0.74999993)"
       inkscape:connector-curvature="0"
       id="path879"
       d="m 103.85963,60.62771 c -0.0669,-0.02523 -0.13042,-0.05516 -0.14127,-0.06652 -0.0189,-0.01975 -0.1086,-0.292143 -0.1086,-0.329666 0,-0.0099 0.0358,-0.02407 0.0796,-0.03145 0.0438,-0.0074 0.0959,-0.01788 0.11579,-0.02332 0.0453,-0.01237 0.12672,0.141613 0.16436,0.310723 0.0143,0.0642 0.0306,0.133441 0.0362,0.153869 0.0123,0.0448 0.008,0.04437 -0.14604,-0.01363 z"
       style="fill:#000000;fill-opacity:1;stroke:#000000;stroke-width:0.16042727;stroke-linejoin:round;stroke-miterlimit:4;stroke-dasharray:none;stroke-opacity:1;paint-order:normal" />
    <path
       transform="scale(0.74999993)"
       inkscape:connector-curvature="0"
       id="path881"
       d="m 101.88328,61.214254 c -0.005,-0.0089 -0.0167,-0.05187 -0.0249,-0.09555 -0.0144,-0.07674 -0.0128,-0.07942 0.0458,-0.07929 0.0334,7.7e-5 0.54199,-0.01977 1.13021,-0.04411 0.88633,-0.03667 1.07249,-0.03942 1.08701,-0.01606 0.01,0.01551 0.0107,0.0303 0.002,0.03288 -0.008,0.0026 -0.47843,0.04779 -1.04456,0.100485 -0.56613,0.05269 -1.06456,0.100746 -1.10763,0.106786 -0.0431,0.006 -0.0828,0.0037 -0.0883,-0.0051 z"
       style="fill:#000000;fill-opacity:1;stroke:#000000;stroke-width:0.16042727;stroke-linejoin:round;stroke-miterlimit:4;stroke-dasharray:none;stroke-opacity:1;paint-order:normal" />
    <path
       transform="scale(0.74999993)"
       inkscape:connector-curvature="0"
       id="path883"
       d="m 70.756262,63.799251 v -0.231812 l 0.0902,-0.01103 c 0.04961,-0.0061 0.314634,-0.0166 0.588944,-0.0234 3.229816,-0.08015 11.078702,-0.502049 15.418647,-0.828786 2.346201,-0.176635 2.545036,-0.200666 5.613534,-0.678432 1.83639,-0.285927 3.057557,-0.467071 3.857718,-0.572241 0.371466,-0.04883 0.702106,-0.105994 0.923209,-0.159629 0.49484,-0.120036 1.240483,-0.266149 1.670923,-0.327426 0.522487,-0.07438 0.861698,-0.101219 1.322603,-0.104645 l 0.39939,-0.003 0.11382,0.36048 c 0.0626,0.198264 0.11208,0.361665 0.10996,0.363114 -0.004,0.0026 -0.61049,0.09734 -2.372983,0.37041 -3.741411,0.579681 -6.719121,0.916464 -12.179365,1.377501 -5.469789,0.461842 -8.535758,0.605168 -14.755423,0.689778 l -0.801175,0.0109 z"
       style="fill:#000000;fill-opacity:1;stroke:#000000;stroke-width:0.16042727;stroke-linejoin:round;stroke-miterlimit:4;stroke-dasharray:none;stroke-opacity:1;paint-order:normal" />
    <path
       transform="scale(0.74999993)"
       inkscape:connector-curvature="0"
       id="path885"
       d="m 60.986786,63.952352 c -3.38481,-0.06424 -4.971101,-0.155256 -7.428117,-0.426194 -2.501627,-0.275856 -6.635331,-0.910132 -8.835858,-1.355774 l -0.431475,-0.08738 0.151913,-0.449986 c 0.0902,-0.267193 0.187546,-0.947026 0.239627,-1.673563 C 44.854677,57.56286 44.759416,51.17954 44.51449,48.676083 44.238737,45.85754 43.54101,41.329841 43.067032,39.283217 41.420202,32.17226 38.785065,25.569156 35.347581,19.939884 34.59285,18.703927 33.171687,16.561637 32.644383,15.865031 c -0.674052,-0.890471 -2.829757,-3.53483 -2.858332,-3.506256 -0.05414,0.05415 -0.889187,4.989745 -1.186207,7.011185 -0.166618,1.133964 -0.451423,2.929446 -0.632898,3.98996 -0.181476,1.060515 -0.464344,2.711344 -0.628595,3.668509 -0.299509,1.745372 -0.970713,6.937293 -1.174304,9.083526 -0.145896,1.538017 -0.145911,8.68849 -2.3e-5,10.738934 0.412816,5.802095 0.879035,8.608254 1.84349,11.095915 0.06584,0.169826 -0.135127,0.119773 -2.520483,-0.627753 l -1.415312,-0.443532 0.242297,-0.275961 c 0.360342,-0.410407 0.384612,-0.8128 0.129727,-2.150767 -0.394497,-2.070824 -0.623737,-3.50456 -0.760116,-4.753994 -0.723433,-6.627712 -0.178145,-15.175033 1.693421,-26.544147 0.891931,-5.418171 1.775427,-9.8436 2.255303,-11.296802 l 0.175208,-0.530579 h 1.380648 1.380647 l 0.50152,0.324147 c 1.448053,0.935922 4.100569,3.328642 6.134265,5.533453 2.011372,2.180609 4.105414,4.831653 5.70113,7.217591 3.54072,5.294138 5.594111,9.466496 9.038801,18.366257 l 1.507091,3.893747 -0.745291,1.666729 c -2.390462,5.345902 -4.352867,9.486813 -4.756343,10.036457 -0.380693,0.518608 -0.488137,1.227543 -0.254513,1.679323 0.18945,0.366354 0.679601,0.901743 1.011249,1.104576 0.625572,0.382596 5.822284,1.230858 11.473541,1.872831 3.80972,0.432777 5.061416,0.524546 7.831358,0.574157 2.434452,0.0436 2.652898,0.05954 2.652898,0.193603 0,0.118416 -0.108544,0.15634 -0.573026,0.200208 -0.683543,0.06456 -4.702773,0.04955 -9.104748,-0.034 z"
       style="fill:#000000;fill-opacity:1;stroke:#000000;stroke-width:0.64170909;stroke-linejoin:round;stroke-miterlimit:4;stroke-dasharray:none;stroke-opacity:1;paint-order:normal" />
    <path
       transform="scale(0.74999993)"
       inkscape:connector-curvature="0"
       id="path887"
       d="m 36.733723,124.87466 c -2.190325,-3.29471 -3.156889,-6.73875 -2.915209,-10.38739 0.188892,-2.85172 0.528289,-4.04654 2.822607,-9.93678 2.047419,-5.256382 2.44262,-6.590942 2.169999,-7.327907 -0.129679,-0.350555 0.0207,-0.66863 0.581853,-1.23068 0.683235,-0.684333 0.795689,-1.014465 1.157875,-3.399188 0.480726,-3.165219 0.865427,-8.59753 0.870323,-12.289715 l 0.0036,-2.685196 1.02048,-0.828287 c 4.470356,-3.628426 8.818227,-4.511639 21.91031,-4.450791 l 5.522599,0.02567 -5.728332,0.435244 c -3.150583,0.239384 -5.771073,0.477983 -5.823309,0.53022 -0.05224,0.05224 1.075739,0.831048 2.506616,1.730691 l 2.601593,1.635715 1.216388,2.185514 c 1.48235,2.663373 2.771353,5.874878 3.6045,8.980484 0.562748,2.097683 0.62674,2.775012 0.64349,6.811054 0.01023,2.464953 -0.03542,4.530597 -0.101455,4.590322 -0.06603,0.05973 -0.515601,0.180037 -0.999045,0.267361 l -0.878989,0.158768 0.357296,-1.147395 c 0.250466,-0.804325 0.325651,-1.815398 0.251453,-3.381515 -0.09596,-2.025434 -0.198129,-2.420362 -1.093847,-4.227994 -2.160157,-4.359379 -7.230366,-7.584497 -11.92359,-7.584497 -3.398333,0 -7.423415,1.748606 -9.670846,4.201281 -2.353673,2.568619 -3.39827,5.159297 -3.409442,8.455672 -0.008,2.361444 0.618029,3.968645 2.09222,5.371309 1.865834,1.77532 1.756111,1.73316 3.401266,1.30685 0.802646,-0.20798 2.567684,-0.54387 3.922307,-0.74642 2.682617,-0.40111 3.544438,-0.88118 3.544438,-1.974381 0,-0.909748 -0.908935,-2.171491 -1.9451,-2.700102 -0.75989,-0.387667 -0.936256,-0.607476 -0.936256,-1.166882 0,-0.6801 1.335468,-2.907643 1.845038,-3.0775 0.142238,-0.04741 0.328386,0.285714 0.413664,0.740281 0.08528,0.454566 0.366288,1.095032 0.62447,1.423256 0.643542,0.818132 2.290846,1.446644 3.296914,1.257903 l 0.800049,-0.150089 -0.389499,0.912885 c -0.719302,1.685857 -0.827924,2.022212 -0.827924,2.563725 0,0.649294 1.324713,2.070904 1.929757,2.070904 1.216201,0 1.140525,0.29811 -0.364933,1.43759 -2.071608,1.56799 -3.672432,1.92285 -8.695557,1.92755 -4.3444,0.004 -6.106842,0.32221 -8.326928,1.50316 -5.786982,3.0783 -7.835222,11.07366 -4.588335,17.91068 0.465674,0.98057 0.802642,1.8269 0.748818,1.88072 -0.05382,0.0538 -0.612403,-0.67611 -1.241288,-1.6221 z"
       style="fill:#000000;fill-opacity:1;stroke:#000000;stroke-width:1.81502736;stroke-linejoin:round;stroke-miterlimit:4;stroke-dasharray:none;stroke-opacity:1;paint-order:normal" />
    <path
       transform="scale(0.74999993)"
       inkscape:connector-curvature="0"
       id="path889"
       d="m 119.11837,115.46348 c -1.66072,-5.67082 -5.55824,-9.84914 -10.35192,-11.09774 -1.01736,-0.26499 -2.68823,-0.37121 -5.98327,-0.38038 -2.66213,-0.007 -5.374084,-0.14794 -6.49263,-0.33645 -1.522682,-0.25662 -2.016806,-0.26278 -2.383505,-0.0297 -0.40025,0.25438 -0.683589,0.14177 -2.102165,-0.83547 -0.901759,-0.62122 -1.963186,-1.26353 -2.358726,-1.42737 -0.751264,-0.31118 -0.930931,-0.66736 -0.419022,-0.83068 0.165077,-0.0527 1.1291,-0.16576 2.142271,-0.25131 l 1.842131,-0.15555 0.963437,-1.466039 0.963438,-1.466044 -0.575296,-0.6837 c -0.552531,-0.656647 -1.069827,-2.037485 -1.072637,-2.863231 -7.44e-4,-0.216479 0.198093,-0.639885 0.441842,-0.940903 l 0.443181,-0.547305 0.139298,1.038537 c 0.206519,1.53972 1.23516,2.485814 2.67897,2.463987 0.603696,-0.0091 1.09763,0.04448 1.09763,0.11913 0,0.07465 -0.254708,0.470076 -0.566017,0.878729 -0.390084,0.512058 -0.601466,1.172146 -0.680065,2.123653 l -0.114049,1.380646 1.22032,0.002 c 0.671175,9.7e-4 2.777714,0.32523 4.681194,0.72034 4.33442,0.89972 4.79527,0.90421 5.60917,0.0547 1.02531,-1.070196 1.45047,-2.540976 1.47397,-5.098999 0.0431,-4.692473 -1.81166,-8.306222 -5.54472,-10.803047 -2.39493,-1.601824 -4.371185,-2.20064 -7.280368,-2.205991 -2.790981,-0.0051 -4.830428,0.577747 -6.932169,1.981235 -1.903001,1.270776 -3.110039,2.670967 -4.390749,5.09337 -1.029426,1.947111 -1.042901,2.003622 -1.042901,4.373728 0,2.212912 0.05994,2.523136 0.764632,3.95759 0.420548,0.856053 0.743606,1.577487 0.717907,1.603187 -0.07613,0.07613 -4.254705,-0.567402 -4.331794,-0.667121 -0.14445,-0.18686 -0.6221,-2.780693 -0.768509,-4.173317 -0.194302,-1.848176 0.257837,-6.383192 0.897717,-9.004237 0.907951,-3.719099 2.41263,-6.90874 4.512049,-9.564704 0.907428,-1.147982 1.028796,-1.218985 2.201122,-1.287706 1.032003,-0.0605 1.324053,-0.184681 1.735957,-0.738166 0.431847,-0.580284 0.458536,-0.76261 0.208571,-1.424844 -0.157655,-0.417675 -0.225495,-0.82056 -0.150755,-0.8953 0.07474,-0.07474 2.26089,-0.133522 4.858112,-0.130627 4.107909,0.0046 4.987728,0.07507 6.763178,0.541885 2.83983,0.746664 5.01018,1.668933 6.90568,2.93449 l 1.61834,1.080509 0.16248,2.764267 c 0.0894,1.520346 0.44449,4.167592 0.78917,5.882768 0.74921,3.728266 2.24376,9.491164 2.56161,9.877433 0.40192,0.488431 4.50943,12.800077 4.86281,14.575557 0.38532,1.93591 0.74089,6.15845 0.5186,6.15845 -0.0801,0 -0.18518,-0.13507 -0.23352,-0.30014 z"
       style="fill:#000000;fill-opacity:1;stroke:#000000;stroke-width:1.81502736;stroke-linejoin:round;stroke-miterlimit:4;stroke-dasharray:none;stroke-opacity:1;paint-order:normal" />
    <path
       transform="scale(0.74999993)"
       inkscape:connector-curvature="0"
       id="path891"
       d="m 70.817853,72.325045 c -0.02152,-0.05609 -0.03913,-0.108926 -0.03913,-0.117414 0,-0.0085 1.343882,-0.03478 2.986405,-0.05844 1.642523,-0.02365 3.567179,-0.06833 4.277013,-0.09929 0.709834,-0.03096 2.776306,-0.07129 4.592161,-0.08963 3.174979,-0.03207 3.29465,-0.02928 3.121469,0.07264 -0.165873,0.09762 -0.530647,0.109354 -4.622175,0.148654 -4.331121,0.0416 -8.721552,0.13561 -9.760478,0.208995 -0.450994,0.03186 -0.521066,0.02359 -0.555261,-0.06552 z"
       style="fill:#000000;fill-opacity:1;stroke:#000000;stroke-width:0.45375684;stroke-linejoin:round;stroke-miterlimit:4;stroke-dasharray:none;stroke-opacity:1;paint-order:normal" />
    <path
       transform="scale(0.74999993)"
       inkscape:connector-curvature="0"
       id="path893"
       d="m 119.33873,117.32332 c -0.0146,-0.17509 -0.0394,-0.38998 -0.055,-0.47753 -0.0249,-0.13986 -0.0182,-0.15917 0.0556,-0.15917 0.0794,0 0.083,0.0238 0.066,0.43508 -0.0231,0.55853 -0.034,0.5914 -0.0666,0.20162 z"
       style="fill:#000000;fill-opacity:1;stroke:#000000;stroke-width:0.32085454;stroke-linejoin:round;stroke-miterlimit:4;stroke-dasharray:none;stroke-opacity:1;paint-order:normal" />
    <path
       transform="scale(0.74999993)"
       inkscape:connector-curvature="0"
       id="path895"
       d="m 78.220826,142.80462 c 2.449236,-0.0932 2.768793,-0.11742 4.12597,-0.31333 1.916466,-0.27662 2.423906,-0.50973 3.6863,-1.69339 0.676035,-0.63387 2.669141,-2.69835 3.639972,-3.77032 1.178159,-1.30089 2.086037,-2.09475 3.12809,-2.73522 0.575812,-0.3539 0.713221,-0.41285 1.085081,-0.46543 0.628236,-0.0889 1.168469,0.0901 1.600765,0.53017 0.234594,0.23883 0.518856,0.67811 0.518856,0.80181 0,0.0422 0.0066,0.0768 0.01456,0.0768 0.04111,0 3.399117,-1.2127 4.48314,-1.61903 2.68145,-1.0051 4.39313,-1.72971 6.11389,-2.58823 2.04753,-1.02154 3.34977,-1.8449 4.88134,-3.08628 0.62629,-0.50763 2.03148,-1.93048 2.48041,-2.51157 1.25714,-1.62727 2.01072,-3.23791 2.31922,-4.95696 0.12715,-0.70855 0.15666,-1.93263 0.0637,-2.64095 -0.54115,-4.12109 -2.86237,-7.70033 -6.20354,-9.5656 -1.15987,-0.64752 -2.48758,-1.07824 -3.74685,-1.21552 -0.29434,-0.0321 -1.35154,-0.0435 -3.20471,-0.0347 -2.96976,0.0142 -2.63076,0.0298 -4.717612,-0.21818 -0.373315,-0.0444 -0.685486,-0.0739 -0.693712,-0.0657 -0.0082,0.008 0.100708,0.20317 0.242076,0.43322 0.426709,0.69438 0.596153,1.27484 0.515965,1.76753 -0.127873,0.78569 -0.732608,1.35153 -1.572216,1.47111 -1.114642,0.15875 -1.99532,-0.4368 -3.989105,-2.69758 -0.392127,-0.44464 -0.830157,-0.91694 -0.9734,-1.04956 -1.876317,-1.73713 -4.299225,-2.98619 -7.468832,-3.85032 -1.789071,-0.48775 -3.294557,-0.72598 -5.628943,-0.89073 -0.350183,-0.0247 -0.717875,-0.0554 -0.817093,-0.0682 l -0.180397,-0.0233 v -2.43807 c 0,-2.120507 0.0082,-2.438066 0.06261,-2.438066 0.04495,0 0.05685,-0.03292 0.04219,-0.116728 -0.0916,-0.523725 -0.104191,-0.971126 -0.10448,-3.712778 -3.16e-4,-3.00096 0.0012,-3.056186 0.106309,-3.883844 0.128892,-1.014886 0.3155,-2.110564 0.500838,-2.940692 l 0.137414,-0.615472 18.003346,-0.01066 18.003352,-0.01066 0.093,0.413902 c 0.37644,1.675997 1.33764,5.514265 1.39804,5.582675 0.0757,0.08575 1.78727,-1.497598 4.88759,-4.521466 l 1.5123,-1.475011 h 3.63829 3.6383 l -0.1302,0.164393 c -0.23808,0.300596 -3.83655,3.914108 -5.06005,5.081189 -2.76344,2.63603 -5.08167,4.674374 -6.3929,5.621058 -0.14523,0.104853 -0.26461,0.211667 -0.26529,0.237365 -0.002,0.07391 0.7594,2.312348 1.75989,5.174175 1.22968,3.51743 1.50362,4.37262 1.86272,5.81516 0.53553,2.15128 0.76777,3.90522 0.82901,6.26084 0.0834,3.21014 -0.12869,5.69345 -0.67697,7.92509 -0.79397,3.23162 -2.31217,5.79653 -4.96943,8.39554 -4.35519,4.25971 -10.7797,7.39788 -20.942244,10.2296 -3.113096,0.86744 -3.813316,1.08529 -4.066154,1.26505 -0.108417,0.0771 -0.406195,0.33492 -0.661729,0.57298 l -0.464608,0.43283 -6.381164,-0.008 c -3.50964,-0.005 -6.237907,-0.0139 -6.062816,-0.0205 z m 41.113364,-24.23897 c 0.0642,-0.63097 0.0718,-0.92592 0.0206,-0.79665 -0.0185,0.0467 -0.0467,0.29351 -0.0628,0.54848 -0.0161,0.25497 -0.0406,0.55103 -0.0546,0.65792 -0.014,0.10688 -0.0103,0.18036 0.008,0.16327 0.0184,-0.0171 0.0583,-0.27494 0.0886,-0.57302 z M 106.3586,98.020825 c 0.2822,-0.884015 0.31998,-1.134806 0.32131,-2.132931 10e-4,-0.945017 -0.0293,-1.254011 -0.21641,-2.185988 -0.27141,-1.352037 -0.69566,-2.476397 -1.26529,-3.353264 -0.92413,-1.422592 -2.76371,-2.919897 -4.56445,-3.715178 -1.252845,-0.553311 -2.350279,-0.772939 -3.885089,-0.777521 -0.867138,-0.0026 -1.237534,0.02972 -1.93131,0.16849 -2.453656,0.490766 -4.794154,2.223379 -6.085841,4.505196 -0.507052,0.895729 -0.929125,1.811078 -1.098857,2.383088 -0.166499,0.561117 -0.171715,0.597964 -0.189974,1.342158 -0.02839,1.157063 0.0096,1.326693 0.52723,2.354608 0.283512,0.562993 0.437178,0.82494 0.480485,0.819059 0.03502,-0.0048 0.264229,-0.03776 0.509357,-0.07336 0.245127,-0.03559 0.779952,-0.08526 1.188498,-0.110372 0.833134,-0.05121 1.018713,-0.07297 1.018713,-0.119465 0,-0.01765 -0.107068,-0.212569 -0.237931,-0.433152 -0.259092,-0.436731 -0.459135,-0.98682 -0.616765,-1.696015 -0.128098,-0.57633 -0.140631,-1.57479 -0.0264,-2.103336 0.231399,-1.070694 0.704274,-1.955231 1.465894,-2.742033 0.766604,-0.791951 1.582133,-1.305837 2.662353,-1.677619 1.229138,-0.423035 2.24742,-0.261152 2.974265,0.472841 0.514157,0.519212 0.727615,1.105154 0.686834,1.885355 -0.02529,0.483857 -0.124962,0.779278 -0.396957,1.176568 -0.102419,0.149597 -0.175902,0.271995 -0.163297,0.271995 0.04106,0 0.672416,-0.380088 0.846668,-0.509712 0.426631,-0.317368 1.224579,-0.427371 1.886284,-0.26004 0.19475,0.04925 0.44214,0.140726 0.54974,0.203283 0.43249,0.251428 0.99154,0.980181 1.19415,1.55663 0.12594,0.358327 0.14825,0.784554 0.0658,1.257837 -0.13619,0.782086 -0.48404,1.633293 -0.91187,2.231411 -0.25552,0.357235 -0.36154,0.529252 -0.33631,0.545686 0.008,0.005 0.47247,0.0994 1.03277,0.209702 0.56029,0.110302 1.47713,0.306698 2.03742,0.436434 1.23147,0.285148 2.13259,0.477224 2.2558,0.48083 0.0784,0.0023 0.10935,-0.05475 0.22314,-0.411188 z"
       style="fill:#000000;fill-opacity:1;stroke:#000000;stroke-width:0.32085454;stroke-linejoin:round;stroke-miterlimit:4;stroke-dasharray:none;stroke-opacity:1;paint-order:normal" />
    <path
       transform="scale(0.74999993)"
       inkscape:connector-curvature="0"
       id="path897"
       d="m 38.893008,127.74835 c -0.243992,-0.2575 -0.446534,-0.48103 -0.450093,-0.49671 -0.0038,-0.0167 0.02493,-0.0389 0.06917,-0.0535 0.0416,-0.0137 0.08783,-0.0372 0.10274,-0.0521 0.02198,-0.022 0.055,0.0171 0.174897,0.20702 0.08129,0.12877 0.245019,0.37572 0.363845,0.54878 0.118826,0.17306 0.208626,0.31465 0.199556,0.31465 -0.0091,0 -0.216122,-0.21069 -0.460114,-0.4682 z"
       style="fill:#000000;fill-opacity:1;stroke:#000000;stroke-width:0.16042727;stroke-linejoin:round;stroke-miterlimit:4;stroke-dasharray:none;stroke-opacity:1;paint-order:normal" />
    <path
       transform="scale(0.74999993)"
       inkscape:connector-curvature="0"
       id="path899"
       d=""
       style="fill:#000000;fill-opacity:1;stroke:#000000;stroke-width:0.04010682;stroke-linejoin:round;stroke-miterlimit:4;stroke-dasharray:none;stroke-opacity:1;paint-order:normal" />
    <path
       transform="scale(0.74999993)"
       inkscape:connector-curvature="0"
       id="path901"
       d="m 38.969104,132.1047 c -0.973284,-0.78419 -1.893591,-1.65194 -2.770349,-2.61215 l -0.07751,-0.0849 -2.05e-4,-2.17936 -2.05e-4,-2.17935 2.285472,1.9e-4 2.285472,1.9e-4 0.03409,0.0568 c 0.583868,0.97371 1.35611,2.03179 2.210073,3.0281 0.07003,0.0817 0.145287,0.17004 0.167227,0.1963 0.02194,0.0263 0.09361,0.10157 0.159271,0.16735 0.821304,0.82288 2.757933,2.16572 4.86672,3.37453 l 0.07824,0.0449 v 0.13928 0.13928 h -4.562598 -4.562599 l -0.113136,-0.0912 z m 0.496535,-3.7781 c -0.05689,-0.0815 -0.05721,-0.0818 -0.07139,-0.0647 -0.0059,0.007 1.52e-4,0.0153 0.04302,0.0584 0.02744,0.0275 0.05192,0.0501 0.05441,0.0501 0.0025,0 -0.0092,-0.0197 -0.02604,-0.0438 z"
       style="fill:#000000;fill-opacity:1;stroke:#000000;stroke-width:0.04010682;stroke-linejoin:round;stroke-miterlimit:4;stroke-dasharray:none;stroke-opacity:1;paint-order:normal" />
    <path
       transform="scale(0.74999993)"
       inkscape:connector-curvature="0"
       id="path903"
       d="m 59.726752,124.61665 c -0.04239,-0.0592 -0.07071,-0.10512 -0.06293,-0.1021 0.03251,0.0126 0.18422,0.0759 0.187481,0.0781 0.0034,0.002 -0.04133,0.13157 -0.0455,0.13157 -0.0011,0 -0.03666,-0.0484 -0.07905,-0.10759 z"
       style="fill:#000000;fill-opacity:1;stroke:#000000;stroke-width:0.08021364;stroke-linejoin:round;stroke-miterlimit:4;stroke-dasharray:none;stroke-opacity:1;paint-order:normal" />
    <path
       transform="scale(0.74999993)"
       inkscape:connector-curvature="0"
       id="path905"
       d="m 68.370575,126.41226 c -0.117439,-0.14819 -0.280196,-0.31166 -0.38125,-0.38293 -0.09698,-0.0684 -0.173192,-0.12714 -0.169357,-0.13055 0.01061,-0.009 0.66785,-0.1328 0.707566,-0.1328 0.02123,0 0.03537,0.0555 0.03633,0.14256 8.68e-4,0.0784 0.01867,0.23796 0.03956,0.35455 0.02829,0.15786 0.02957,0.23696 0.005,0.30986 l -0.03296,0.0979 z"
       style="fill:#000000;fill-opacity:1;stroke:#000000;stroke-width:0.22687842;stroke-linejoin:round;stroke-miterlimit:4;stroke-dasharray:none;stroke-opacity:1;paint-order:normal" />
    <path
       transform="scale(0.74999993)"
       inkscape:connector-curvature="0"
       id="path907"
       d="m 86.033967,126.84567 c -0.321233,-0.0631 -0.720359,-0.37738 -0.845206,-0.66546 -0.07762,-0.1791 -0.107551,-0.48662 -0.07602,-0.78102 l 0.02072,-0.19347 0.545824,-0.016 c 0.300203,-0.009 0.550888,-0.0113 0.557079,-0.005 0.01189,0.0111 0.120965,1.42947 0.122759,1.59627 9.78e-4,0.0909 -0.0056,0.0973 -0.0965,0.0943 -0.05365,-0.002 -0.156545,-0.0149 -0.228655,-0.029 z"
       style="fill:#000000;fill-opacity:1;stroke:#000000;stroke-width:0.22687842;stroke-linejoin:round;stroke-miterlimit:4;stroke-dasharray:none;stroke-opacity:1;paint-order:normal" />
    <path
       transform="scale(0.74999993)"
       inkscape:connector-curvature="0"
       id="path909"
       d="m 83.568487,125.57108 c -0.02662,-0.0951 -0.07487,-0.16778 -0.159374,-0.24011 l -0.12119,-0.10373 h 0.400089 0.400089 l -0.124945,0.0905 c -0.06872,0.0498 -0.173312,0.15783 -0.232425,0.24011 -0.05911,0.0823 -0.11121,0.1496 -0.11577,0.1496 -0.0046,0 -0.02547,-0.0614 -0.04647,-0.13638 z"
       style="fill:#000000;fill-opacity:1;stroke:#000000;stroke-width:0.22687842;stroke-linejoin:round;stroke-miterlimit:4;stroke-dasharray:none;stroke-opacity:1;paint-order:normal" />
    <path
       transform="scale(0.74999993)"
       inkscape:connector-curvature="0"
       id="path911"
       d="m 27.981721,10.878189 c 0.09287,-0.166027 0.181836,-0.271893 0.370056,-0.440349 l 0.159432,-0.142691 0.154145,0.03747 c 0.192349,0.04675 0.361775,0.109757 0.621338,0.231051 0.195502,0.09136 0.677506,0.348907 0.763168,0.407782 0.03548,0.02438 -0.12424,0.02877 -1.047268,0.02877 h -1.089131 z"
       style="fill:#000000;fill-opacity:1;stroke:#000000;stroke-width:0.16042727;stroke-linejoin:round;stroke-miterlimit:4;stroke-dasharray:none;stroke-opacity:1;paint-order:normal" />
  </g>
</svg>
