<?xml version="1.0" encoding="UTF-8" standalone="no"?>
<svg
   xmlns:dc="http://purl.org/dc/elements/1.1/"
   xmlns:cc="http://creativecommons.org/ns#"
   xmlns:rdf="http://www.w3.org/1999/02/22-rdf-syntax-ns#"
   xmlns:svg="http://www.w3.org/2000/svg"
   xmlns="http://www.w3.org/2000/svg"
   xmlns:sodipodi="http://sodipodi.sourceforge.net/DTD/sodipodi-0.dtd"
   xmlns:inkscape="http://www.inkscape.org/namespaces/inkscape"
   version="1.0"
   width="4cm"
   height="4cm"
   viewBox="0 0 113.38582 113.38582"
   preserveAspectRatio="xMidYMid meet"
   id="svg14"
   sodipodi:docname="tracker.svg"
   inkscape:version="0.92.3 (2405546, 2018-03-11)">
  <defs
     id="defs18" />
  <sodipodi:namedview
     pagecolor="#ffffff"
     bordercolor="#666666"
     borderopacity="1"
     objecttolerance="10"
     gridtolerance="10"
     guidetolerance="10"
     inkscape:pageopacity="0"
     inkscape:pageshadow="2"
     inkscape:window-width="1920"
     inkscape:window-height="1000"
     id="namedview16"
     showgrid="false"
     units="cm"
     inkscape:zoom="5.8897836"
     inkscape:cx="76.934152"
     inkscape:cy="90.083356"
     inkscape:window-x="0"
     inkscape:window-y="26"
     inkscape:window-maximized="1"
     inkscape:current-layer="svg14" />
  <metadata
     id="metadata2">
Created by potrace 1.14, written by Peter Selinger 2001-2017
<rdf:RDF>
  <cc:Work
     rdf:about="">
    <dc:format>image/svg+xml</dc:format>
    <dc:type
       rdf:resource="http://purl.org/dc/dcmitype/StillImage" />
    <dc:title />
  </cc:Work>
</rdf:RDF>
</metadata>
  <path
     style="fill:#000000;stroke:#000000;stroke-width:0.85039365;stroke-miterlimit:4;stroke-dasharray:none;stroke-opacity:1"
     inkscape:connector-curvature="0"
     id="path4"
     d="m 89.671817,1.036857 c -1.603813,0.8553672 -5.91629,6.6112756 -9.106097,12.171162 -2.726483,4.74016 -5.720268,11.297976 -6.771657,14.772905 -0.231662,0.766266 -0.445503,1.389971 -0.498964,1.389971 -0.05346,0 -0.249482,-0.249482 -0.427683,-0.552424 -0.178202,-0.302943 -0.748447,-0.980108 -1.283051,-1.496893 -0.766267,-0.784086 -1.17613,-1.033568 -2.138418,-1.336511 -1.710735,-0.516784 -3.243267,-0.463324 -6.860758,0.285122 -3.011605,0.605886 -3.189807,0.623706 -6.219232,0.552425 -3.261088,-0.0891 -5.078743,-0.374223 -7.716125,-1.22959 -0.997929,-0.320763 -1.692914,-0.409864 -3.082886,-0.409864 -1.710735,0 -1.835476,0.03564 -2.566102,0.534605 -0.944468,0.659345 -1.728554,1.692914 -2.637382,3.510569 l -0.694986,1.389972 -0.320763,-0.855367 C 36.656871,22.403217 34.678834,18.322402 31.578128,13.689163 28.762544,9.5192484 25.109414,5.5453549 22.31165,3.656419 20.404894,2.3555481 19.638628,2.1951667 18.80108,2.9079727 18.123915,3.4782175 17.731871,4.6543474 17.072526,8.164917 14.363863,22.72398 13.811439,32.31122 15.290511,39.350179 c 0.124741,0.641526 0.213842,1.17613 0.196022,1.193951 -0.01782,0.03564 -0.837547,-0.142562 -1.782015,-0.392044 -2.209699,-0.570245 -4.6332394,-0.605885 -5.7380887,-0.106921 -0.6771657,0.302943 -1.5503531,1.211771 -2.0136769,2.102778 -0.1247411,0.231662 -0.4211276,1.205197 -0.4211276,2.880291 0,2.655202 0.2429259,2.911258 0.8666313,4.621992 1.0335687,2.762123 3.0472457,6.290513 5.1143829,8.945715 3.261088,4.152095 9.640701,10.941573 13.222551,14.042279 1.479073,1.28305 1.942397,1.799835 1.906756,2.067137 -0.10692,0.712806 -0.605885,2.174058 -1.728554,5.007462 -1.372152,3.421469 -1.960217,5.435146 -2.245339,7.520104 -0.784087,5.862829 2.156238,11.832579 7.591384,15.503527 4.864901,3.26109 10.210946,5.75591 13.507674,6.29052 1.033568,0.16038 1.158309,0.23166 2.530461,1.58599 2.530461,2.49482 3.350188,2.69084 11.511817,2.69084 7.1637,0 7.306261,-0.0356 9.694161,-2.67302 0.570245,-0.64153 1.211771,-1.24741 1.407792,-1.35433 0.213842,-0.12474 1.300871,-0.46333 2.423541,-0.78409 8.215089,-2.2988 13.07999,-4.63324 16.554919,-7.91215 3.332368,-3.189802 4.455038,-6.112307 4.455038,-11.690013 0.01782,-3.421469 -0.392044,-5.648988 -1.746375,-9.49814 -0.374223,-1.08703 -0.980108,-2.904685 -1.354332,-4.027354 l -0.641525,-2.013677 0.392043,-0.285123 c 1.853296,-1.283051 6.504355,-5.773728 9.783263,-9.391219 4.027356,-4.455037 6.825116,-9.070456 8.036886,-13.276012 0.42768,-1.496892 0.48115,-6.718196 0.0713,-8.054707 -0.87319,-2.904685 -3.24327,-4.365937 -6.00539,-3.724412 l -0.67716,0.160382 0.14256,-1.283051 c 0.21384,-2.156238 0.14256,-11.779119 -0.10692,-13.739336 C 99.811482,20.443 99.651101,19.480712 99.098676,16.80769 97.708705,9.9647521 94.910941,3.3891168 92.45176,1.2506988 91.685494,0.5735331 90.687566,0.5022525 89.671817,1.036857 Z M 92.3983,8.877723 c 0.463324,0.8375471 1.033569,2.031497 1.300871,2.673022 0.267302,0.641526 0.588065,1.389972 0.712806,1.692915 0.374223,0.801906 1.300871,4.134275 1.603813,5.720268 0.766267,4.045174 1.12267,10.228766 0.819727,14.505602 -0.124741,1.514713 -0.249482,3.403649 -0.302942,4.187735 -0.124741,2.049317 -0.356403,2.726483 -0.980108,2.851224 -0.285123,0.07128 -0.552425,0.196022 -0.605886,0.285123 -0.07128,0.0891 -0.285122,0.160381 -0.498964,0.160381 -0.213842,0.01782 -0.712806,0.142561 -1.104849,0.285122 -0.392043,0.160382 -1.033569,0.338583 -1.425612,0.427684 -0.392043,0.07128 -1.835475,0.427684 -3.207627,0.784087 -2.227519,0.588065 -4.490678,1.122669 -6.326153,1.496892 L 81.75967,44.072519 81.528008,43.00331 c -1.995856,-9.391219 -1.104849,-18.069632 2.637383,-25.482814 1.26523,-2.512641 5.203484,-8.5714924 5.684628,-8.7318738 0.160381,-0.05346 0.516784,-0.481144 0.801906,-0.9622881 0.623706,-1.0513888 0.623706,-1.0513888 1.746375,1.0513889 z m -68.999621,2.174058 c 3.225447,5.150024 5.470786,10.923752 6.860758,17.695409 0.106921,0.498964 0.570245,3.795692 0.784087,5.613347 0.320762,2.655203 0.356403,10.175306 0.03564,10.65645 -0.160382,0.267302 -0.677166,0.160382 -6.611276,-1.318691 -3.956073,-0.997928 -3.706591,-0.908828 -3.831332,-1.372151 -0.05346,-0.213842 -0.178202,-0.552425 -0.249482,-0.748447 -1.19395,-2.886864 -1.799835,-13.06217 -1.104849,-18.443855 0.0891,-0.730626 0.267302,-2.138418 0.374223,-3.118526 0.106921,-0.980109 0.356403,-2.583922 0.534604,-3.56403 0.196022,-0.980109 0.498964,-2.940325 0.712806,-4.365937 0.196022,-1.425612 0.409864,-2.8690442 0.463324,-3.207627 l 0.106921,-0.6237053 0.374223,0.4811441 c 0.213842,0.2673023 0.908828,1.3186912 1.550353,2.3166192 z M 47.2955,27.339398 c 3.617491,1.08703 5.185664,1.354332 8.535852,1.443433 3.474929,0.0891 4.918362,-0.05346 8.28637,-0.837548 2.013677,-0.463323 4.009534,-0.498964 5.043102,-0.0891 1.14049,0.463324 2.263159,1.942396 3.795692,5.007462 1.283051,2.566101 1.621634,3.261087 3.154167,6.753837 0.392043,0.873187 1.069209,2.35226 1.532533,3.278907 0.445504,0.908828 0.819727,1.675094 0.819727,1.710735 0,0.05346 -0.534605,0.124741 -5.791549,0.801906 -2.245339,0.285123 -5.025282,0.605886 -6.147952,0.712806 -4.419397,0.392044 -13.614594,0.891008 -16.572739,0.891008 -4.045174,0 -14.559063,-0.819727 -14.933286,-1.15831 -0.01782,-0.01782 0.641525,-1.514713 1.496893,-3.314548 1.318691,-2.833404 2.583921,-5.666807 4.472857,-10.050564 2.209699,-5.150024 3.314548,-6.041031 6.308333,-5.150024 z m 56.54334,13.240372 c 1.90675,1.19395 2.26316,5.684628 0.81972,10.050564 -1.62163,4.811441 -5.07874,9.783263 -11.137591,15.966855 -3.332368,3.403648 -5.417325,5.274764 -5.631167,5.060922 -0.124741,-0.160381 -1.24741,-4.651059 -1.675094,-6.736016 -0.463324,-2.31662 -0.801907,-4.74016 -0.801907,-5.86283 0,-1.033568 0,-1.051388 0.356403,-0.730626 0.374223,0.338583 0.891008,0.249482 0.891008,-0.160381 0,-0.124741 -0.481144,-0.694986 -1.087029,-1.247411 -2.779944,-2.583921 -6.130132,-3.991713 -10.923752,-4.579778 -1.853296,-0.213842 -7.983428,-0.142561 -15.699553,0.196021 -2.049317,0.0891 -6.736016,0.160382 -10.389147,0.160382 -9.319938,0.01782 -11.88604,0.302942 -15.093667,1.639454 -2.37008,0.980108 -4.918361,2.922504 -6.041031,4.615418 -0.659345,0.980109 -0.03564,1.692915 0.712806,0.784087 l 0.409864,-0.516784 v 2.851224 c 0.01782,2.708663 -0.249483,6.041031 -0.677166,8.678413 -0.356403,2.191878 -0.231662,2.174058 -2.37008,0.160381 -5.025282,-4.7758 -12.206803,-13.11563 -14.576883,-16.929142 -3.0116051,-4.864901 -4.3481164,-9.42686 -3.2967276,-11.226695 0.6415255,-1.104849 1.17613,-1.354331 2.8155836,-1.354331 1.247411,0.01782 1.853296,0.142561 4.134275,0.855367 1.479072,0.481144 2.993785,0.962288 3.385828,1.104849 1.10485,0.392044 7.306262,2.138418 9.088277,2.583922 0.891007,0.213842 1.888936,0.445504 2.227519,0.534604 0.908827,0.231662 4.401577,0.855368 6.860757,1.229591 4.526319,0.694986 6.611276,0.819727 14.077919,0.819727 7.377542,0 10.799011,-0.160382 17.641948,-0.819727 5.595528,-0.534605 6.058851,-0.605885 11.8504,-1.585994 5.346045,-0.908827 12.866149,-2.869044 18.176553,-4.740159 4.205554,-1.479073 4.740164,-1.550353 5.951934,-0.801907 z M 65.400773,54.728969 c -2.993785,3.439289 -4.455038,6.593455 -5.381686,11.583097 -0.498964,2.779944 -0.588064,5.84501 -0.213841,7.805226 l 0.231662,1.15831 -1.871116,-0.07128 c -1.033569,-0.03564 -2.690843,0 -3.670951,0.0891 l -1.799835,0.142561 0.160381,-1.24741 C 53.015768,72.7095 52.873207,69.715715 52.534624,67.95152 51.803998,64.066728 49.701221,58.898884 47.438062,55.388314 l -0.855368,-1.336511 6.985499,-0.142561 c 5.809369,-0.106921 8.820974,-0.213842 12.563206,-0.463324 0.338583,-0.01782 0.249482,0.160381 -0.730626,1.283051 z m 9.694161,9.213017 c 2.477001,0.463324 5.078743,2.405721 6.183592,4.633239 0.748447,1.496893 1.15831,3.635311 1.015749,5.167844 -0.106921,1.14049 -0.588065,2.512641 -0.962288,2.744303 -0.0891,0.07128 -1.336511,-0.160381 -2.744303,-0.516784 -1.407792,-0.338583 -2.869044,-0.623706 -3.243268,-0.623706 h -0.677165 l 0.356403,-0.409863 c 0.891007,-0.997928 1.425612,-3.225447 0.873187,-3.670951 -0.231662,-0.196022 -0.392043,-0.196022 -0.748446,-0.03564 -0.694986,0.320763 -1.300871,0.231662 -1.764195,-0.249482 -0.552425,-0.534605 -0.570245,-1.300871 -0.0891,-1.924576 0.196022,-0.249483 0.356403,-0.534605 0.356403,-0.641526 0,-0.677166 -2.35226,-0.694986 -3.777872,-0.03564 -1.21177,0.588065 -2.263159,2.334439 -2.280979,3.795692 0,0.641525 0.641526,2.084957 1.19395,2.673022 l 0.445504,0.481144 -1.265231,0.124741 c -0.694985,0.05346 -1.318691,0.196022 -1.372151,0.267303 -0.213842,0.356403 -0.481144,0.0891 -1.015749,-1.051389 -0.516784,-1.069209 -0.570245,-1.354332 -0.570245,-2.815584 0,-0.891007 0.0891,-1.817655 0.196022,-2.049317 0.819727,-1.799835 1.336511,-2.619562 2.209699,-3.51057 2.049317,-2.084957 4.704519,-2.904684 7.680483,-2.35226 z m -32.789076,0.605886 c 2.423541,0.748446 4.597599,2.762123 5.827189,5.435145 0.677166,1.461253 0.766267,3.706592 0.213842,5.221304 -0.231662,0.623706 -0.498964,1.229591 -0.588065,1.336512 -0.302942,0.409863 -3.154166,0.213841 -3.154166,-0.213842 0,-0.124741 0.106921,-0.267303 0.249482,-0.320763 0.142561,-0.05346 0.463324,-0.516784 0.712806,-1.015749 0.356403,-0.712806 0.463324,-1.19395 0.463324,-2.067137 0,-1.336511 -0.249482,-1.568173 -0.997929,-0.980108 -0.891007,0.712806 -2.031497,0.320763 -2.316619,-0.784087 -0.106921,-0.427683 -0.01782,-0.605885 0.730626,-1.621633 0.623705,-0.855368 -2.209699,-1.19395 -3.59967,-0.445504 -0.730626,0.392043 -1.728555,1.461252 -2.191879,2.316619 -0.285122,0.552425 -0.532739,2.083057 0,3.243268 0.124741,0.231662 0.463324,0.730626 0.748447,1.087029 0.285122,0.356403 0.445503,0.694986 0.374223,0.730626 -0.0891,0.05346 -0.659346,0.142561 -1.300871,0.196022 -0.641526,0.07128 -1.835476,0.285122 -2.655203,0.481144 l -1.496892,0.356403 -0.623706,-0.498965 c -3.225447,-2.619562 -1.372151,-9.373398 3.189807,-11.618737 0.641526,-0.320763 1.568174,-0.677166 2.049318,-0.819727 1.158309,-0.320763 3.350188,-0.320763 4.365936,-0.01782 z m 16.55492,12.224622 c 2.637382,0.196022 3.742231,0.374224 5.613347,0.926648 2.851224,0.855367 5.114383,2.227519 6.575635,3.991714 1.19395,1.443432 2.108157,2.350028 2.48238,1.975805 0.249482,-0.231662 -0.450883,-1.102618 -0.664725,-1.530301 -0.142562,-0.267303 -0.534605,-0.748447 -0.855368,-1.069209 -0.570244,-0.570245 -0.570244,-0.588065 -0.142561,-0.498965 1.728555,0.409864 3.350188,0.516785 6.023211,0.409864 2.263159,-0.0891 3.136346,-0.05346 4.045174,0.160381 4.098634,0.944468 7.270621,4.75798 7.929967,9.49814 0.534604,3.973894 -1.675094,7.912147 -6.058851,10.816829 -2.512641,1.63946 -5.060923,2.76213 -11.672199,5.13221 -0.677165,0.24948 -1.407791,0.51678 -1.603813,0.58806 -0.231662,0.0713 -0.07128,-0.1782 0.427684,-0.69499 0.498964,-0.51678 0.748446,-0.90882 0.677165,-1.08702 -0.07128,-0.16039 -0.196021,-0.28513 -0.302942,-0.28513 -0.392044,0 -1.710735,1.05139 -2.494821,1.97804 -0.445504,0.5346 -1.514713,1.71073 -2.3879,2.60174 -1.799836,1.88894 -2.459181,2.2097 -5.043103,2.5661 -2.619562,0.35641 -7.520103,0.0356 -11.191054,-0.73062 -1.283051,-0.26731 -2.37008,-1.14049 -4.330296,-3.49275 -2.530462,-3.01161 -3.261088,-3.81351 -3.52839,-3.81351 -0.588065,0 -0.445504,0.58806 0.463324,1.90675 0.819727,1.17613 0.891007,1.31869 0.516784,1.21177 -4.544138,-1.31869 -11.280155,-4.98964 -13.04435,-7.09242 -3.991713,-4.740158 -4.847081,-9.78326 -2.44136,-14.238298 1.122669,-2.067137 3.047245,-3.439289 5.452966,-3.866972 0.588065,-0.106921 2.298799,-0.178202 3.813512,-0.160382 1.514712,0.01782 3.029425,-0.01782 3.368008,-0.106921 l 0.588065,-0.142561 -0.463324,0.801907 c -0.463324,0.801907 -0.926831,2.156605 -0.463507,2.334806 0.338583,0.124741 1.087212,-1.087396 1.835659,-2.334806 0.712806,-1.15831 2.40572,-2.655202 4.098634,-3.617491 1.639454,-0.944467 4.900541,-1.799835 8.054708,-2.120597 2.049317,-0.213842 2.084958,-0.213842 4.72234,-0.01782 z"
     sodipodi:nodetypes="cccsccccccscscccccccccccscccccccccsccccccccccccccccccccscccccccccccccccccccccccccsccccccccccsccsccscccccccccscscccccccccccccccccccscccccccccccccccccccccccsccccccscccccccscccccccssssccccccccccccccccccccccccccccccscccccscccccsccscccccc" />
  <path
     style="fill:#000000;stroke:#000000;stroke-width:1.1338582;stroke-miterlimit:4;stroke-dasharray:none;stroke-opacity:1"
     inkscape:connector-curvature="0"
     id="path6"
     d="m 14.972644,47.495 c -0.819727,0.302942 -1.300871,0.677166 -1.639454,1.354331 -0.338583,0.641526 -0.320763,1.817656 0.01782,2.102778 0.427684,0.356403 0.801907,0.07128 0.801907,-0.605885 0,-0.855367 0.142561,-1.15831 0.730626,-1.443432 0.801907,-0.427684 1.479072,-0.320763 5.239124,0.784086 5.239124,1.532533 6.629096,1.746375 6.468714,0.980109 -0.03564,-0.160382 -0.445503,-0.445504 -0.944468,-0.623706 -3.439289,-1.300871 -8.535851,-2.833404 -9.391219,-2.815583 -0.320762,0 -0.908827,0.124741 -1.28305,0.267302 z" />
  <path
     style="fill:#000000;stroke:none;stroke-width:0.28346455;stroke-miterlimit:4;stroke-dasharray:none"
     inkscape:connector-curvature="0"
     id="path8"
     d="m 55.029445,78.57233 c -1.960216,0.142561 -4.84708,0.677165 -6.237052,1.140489 -2.049317,0.694986 -2.583922,1.247411 -2.583922,2.708663 0,1.443432 0.677166,2.726483 2.2988,4.330296 1.585993,1.568174 2.833403,2.33444 4.936181,3.065066 1.443432,0.498965 1.692914,0.534605 3.617491,0.463324 1.960216,-0.05346 2.138418,-0.0891 3.474929,-0.730626 3.029425,-1.443432 5.809369,-4.437217 6.361793,-6.860758 0.730627,-3.136346 -3.902613,-4.74016 -11.86822,-4.116454 z m 7.840866,1.835475 c 0.498965,0.178202 1.08703,0.463324 1.336512,0.641525 0.515753,0.360972 0.375819,0.637347 0.195097,1.22681 -0.302942,0.07128 -1.085599,-0.123757 -1.602383,-0.230677 -0.516784,-0.0891 -2.433541,-0.109728 -3.805692,-0.216649 -3.421469,-0.302942 -7.400907,0.218811 -9.414584,0.985078 -0.819727,0.320763 -1.535314,-0.677532 -0.96507,-1.158676 0.623706,-0.498965 2.31662,-1.069209 4.312477,-1.407792 2.067137,-0.374223 8.731873,-0.249482 9.943643,0.160381 z"
     sodipodi:nodetypes="ccsccccccccccccccc" />
  <path
     style="fill:#000000;stroke:#000000;stroke-width:1.13385817;stroke-miterlimit:4;stroke-dasharray:none;stroke-opacity:1"
     inkscape:connector-curvature="0"
     id="path10"
     d="m 77.625396,87.856628 c -0.392044,0.516784 -1.211771,1.746375 -1.799835,2.726483 -1.835476,2.993785 -2.441361,3.457109 -5.89847,4.455037 -3.136347,0.891008 -6.183592,1.265231 -8.482392,1.015749 -1.906756,-0.213842 -3.421468,-0.498964 -3.777871,-0.712806 -0.124741,-0.07128 -0.302943,-0.891008 -0.409864,-1.817656 -0.213842,-1.782015 -0.338583,-2.067137 -0.784086,-1.906756 -0.213842,0.0891 -0.285123,0.498965 -0.320763,1.942397 l -0.05346,1.835475 -1.657274,0.481144 C 47.972666,97.782451 42.288038,96.249918 37.316216,91.242456 L 35.641122,89.567362 36.050986,89.2466 c 0.267302,-0.196022 0.374223,-0.409864 0.302942,-0.605886 -0.0891,-0.231662 -0.374223,-0.285122 -1.443432,-0.285122 -1.265231,0 -1.336511,0.01782 -1.782015,0.552425 -0.873187,1.033568 -0.427684,1.782015 0.623705,1.015748 0.534605,-0.392043 0.570245,-0.392043 0.766267,-0.07128 1.514713,2.512641 2.958145,3.973893 5.595527,5.684627 1.995857,1.300871 2.067137,1.389972 5.043102,5.827188 2.673023,4.00954 3.902613,5.64899 4.74016,6.27269 0.980109,0.74845 2.209699,0.94447 6.290513,0.92665 3.100706,0 3.902613,-0.0535 5.310405,-0.39204 1.871116,-0.42768 2.958145,-0.87319 3.866972,-1.56817 0.659346,-0.49897 2.191879,-2.86905 4.294657,-6.6291 1.710734,-3.047246 2.280979,-3.760052 3.58185,-4.437218 1.461252,-0.784086 2.779943,-2.263159 3.956073,-4.455037 0.534605,-0.997928 1.104849,-1.978037 1.283051,-2.209699 l 0.320763,-0.427683 0.445503,0.427683 c 0.427684,0.409864 0.997929,0.409864 0.997929,0.01782 0,-0.623706 -1.15831,-1.960217 -1.692915,-1.960217 -0.124741,0 -0.534604,0.427684 -0.926647,0.926649 z M 60.553692,97.56861 c 1.24741,0.10692 1.372152,0.142561 1.728554,0.659345 0.570245,0.837547 0.855368,0.997928 1.675095,0.997928 0.659345,0 0.837547,-0.0891 1.21177,-0.588064 0.267302,-0.338583 0.463324,-0.694986 0.463324,-0.801907 0,-0.0891 0.427683,-0.231662 0.944468,-0.302943 0.498964,-0.07128 1.407792,-0.231662 1.995856,-0.374223 0.570245,-0.124741 1.08703,-0.196022 1.12267,-0.160381 0.03564,0.03564 -0.0891,0.285122 -0.285122,0.570245 -0.196022,0.267302 -0.552425,0.891007 -0.819727,1.389971 -0.249482,0.481144 -0.534605,1.015749 -0.641526,1.158309 -0.0891,0.14256 -0.605885,1.03357 -1.15831,1.96022 -1.21177,2.04931 -1.407791,2.26316 -1.728554,1.99585 -0.588065,-0.48114 -2.512641,-1.28305 -3.973894,-1.63945 -1.389971,-0.3564 -1.906756,-0.39204 -4.276836,-0.30294 -3.118526,0.0891 -4.81144,0.5346 -6.664736,1.72855 l -1.069209,0.69499 -0.427683,-0.51679 c -0.498964,-0.57024 -4.223376,-6.165768 -4.223376,-6.308329 0,-0.05346 0.178202,-0.03564 0.409864,0.05346 0.213841,0.0891 0.873187,0.213842 1.443432,0.285123 1.389972,0.160381 1.425612,0.178201 1.960216,0.997928 0.374223,0.552425 0.588065,0.694986 0.997929,0.694986 0.766266,0 1.283051,-0.302943 1.817655,-1.051389 0.427684,-0.588065 0.605885,-0.694986 1.372152,-0.784086 0.891007,-0.106921 3.65313,-0.891008 4.080814,-1.15831 0.124741,-0.0891 0.748446,0.01782 1.461252,0.267302 0.677166,0.231662 1.835476,0.463324 2.583922,0.534605 z" />
</svg>
