<?xml version="1.0" encoding="UTF-8" standalone="no"?>
<svg
   xmlns:dc="http://purl.org/dc/elements/1.1/"
   xmlns:cc="http://creativecommons.org/ns#"
   xmlns:rdf="http://www.w3.org/1999/02/22-rdf-syntax-ns#"
   xmlns:svg="http://www.w3.org/2000/svg"
   xmlns="http://www.w3.org/2000/svg"
   xmlns:sodipodi="http://sodipodi.sourceforge.net/DTD/sodipodi-0.dtd"
   xmlns:inkscape="http://www.inkscape.org/namespaces/inkscape"
   version="1.0"
   width="4cm"
   height="4cm"
   viewBox="0 0 113.38582 113.38582"
   preserveAspectRatio="xMidYMid meet"
   id="svg14"
   sodipodi:docname="tracker-thicker.svg"
   inkscape:version="0.92.3 (2405546, 2018-03-11)">
  <defs
     id="defs18" />
  <sodipodi:namedview
     pagecolor="#ffffff"
     bordercolor="#666666"
     borderopacity="1"
     objecttolerance="10"
     gridtolerance="10"
     guidetolerance="10"
     inkscape:pageopacity="0"
     inkscape:pageshadow="2"
     inkscape:window-width="1920"
     inkscape:window-height="1000"
     id="namedview16"
     showgrid="false"
     units="cm"
     inkscape:zoom="8"
     inkscape:cx="74.21233"
     inkscape:cy="105.25974"
     inkscape:window-x="0"
     inkscape:window-y="26"
     inkscape:window-maximized="1"
     inkscape:current-layer="svg14" />
  <metadata
     id="metadata2">
Created by potrace 1.14, written by Peter Selinger 2001-2017
<rdf:RDF>
  <cc:Work
     rdf:about="">
    <dc:format>image/svg+xml</dc:format>
    <dc:type
       rdf:resource="http://purl.org/dc/dcmitype/StillImage" />
    <dc:title />
  </cc:Work>
</rdf:RDF>
</metadata>
  <g
     id="g1091">
    <path
       inkscape:connector-curvature="0"
       id="path877"
       d="m 77.498478,43.88648 c -0.0597,-0.298478 -0.396983,-0.814723 -0.74952,-1.147212 -0.48909,-0.461272 -0.725138,-0.908189 -0.99609,-1.885959 -0.38505,-1.389501 -2.76564,-6.611356 -3.809664,-8.356547 l -0.646392,-1.080508 0.50322,-0.134392 c 0.533004,-0.142345 0.88899,-0.797803 1.540808,-2.837006 0.774846,-2.424105 3.345418,-7.815827 5.582233,-11.708635 3.260564,-5.674479 7.721699,-11.4546903 9.100274,-11.7910675 1.646452,-0.4017392 4.776194,5.5833025 6.462802,12.3588935 1.23462,4.959803 1.48323,7.074202 1.585725,13.486684 0.0618,3.86395 0.02445,6.371841 -0.109733,7.368682 -0.111855,0.831134 -0.232785,1.54057 -0.26874,1.576522 -0.03592,0.03596 -0.326797,0.140346 -0.646312,0.231984 -0.491288,0.140898 -0.564405,0.123519 -0.47379,-0.112632 0.29712,-0.774282 0.67596,-7.918206 0.576442,-10.870177 -0.251475,-7.459321 -1.20156,-11.770301 -3.718139,-16.870974 -1.528178,-3.0973525 -1.98576,-3.6586847 -2.982443,-3.6586847 -0.469972,0 -0.706222,0.1365278 -1.101247,0.6364012 -0.2766,0.3500212 -0.805732,0.9634545 -1.17585,1.3631855 -1.717492,1.854916 -5.172067,7.365021 -6.379199,10.174924 -2.988825,6.957253 -3.49038,14.238251 -1.587908,23.05152 0.100193,0.464151 0.05948,0.575769 -0.23856,0.653702 -0.28647,0.07492 -0.381397,-0.01612 -0.467917,-0.448704 z"
       style="fill:#000000;fill-opacity:1;stroke:#000000;stroke-width:1.36127043;stroke-linejoin:round;stroke-miterlimit:4;stroke-dasharray:none;stroke-opacity:1;paint-order:normal" />
    <path
       inkscape:connector-curvature="0"
       id="path879"
       d="m 76.75639,44.194351 c -0.05017,-0.01892 -0.09781,-0.04137 -0.105952,-0.04989 -0.01417,-0.01481 -0.08145,-0.219107 -0.08145,-0.247249 0,-0.0074 0.02685,-0.01805 0.0597,-0.02359 0.03285,-0.0055 0.07193,-0.01341 0.08684,-0.01749 0.03397,-0.0093 0.09504,0.10621 0.12327,0.233043 0.01072,0.04815 0.02295,0.10008 0.02715,0.115401 0.0092,0.0336 0.006,0.03328 -0.10953,-0.01022 z"
       style="fill:#000000;fill-opacity:1;stroke:#000000;stroke-width:0.12032044;stroke-linejoin:round;stroke-miterlimit:4;stroke-dasharray:none;stroke-opacity:1;paint-order:normal" />
    <path
       inkscape:connector-curvature="0"
       id="path881"
       d="m 75.274128,44.634259 c -0.0038,-0.0067 -0.01253,-0.0389 -0.01868,-0.07166 -0.0108,-0.05755 -0.0096,-0.05956 0.03435,-0.05947 0.02505,5.8e-5 0.406493,-0.01483 0.847657,-0.03308 0.664748,-0.0275 0.804368,-0.02956 0.815258,-0.01205 0.0075,0.01163 0.008,0.02273 0.0015,0.02466 -0.006,0.002 -0.358823,0.03584 -0.78342,0.07536 -0.424597,0.03952 -0.79842,0.07556 -0.830722,0.08009 -0.03233,0.0045 -0.0621,0.0028 -0.06623,-0.0038 z"
       style="fill:#000000;fill-opacity:1;stroke:#000000;stroke-width:0.12032044;stroke-linejoin:round;stroke-miterlimit:4;stroke-dasharray:none;stroke-opacity:1;paint-order:normal" />
    <path
       inkscape:connector-curvature="0"
       id="path883"
       d="m 51.928867,46.573007 v -0.173859 l 0.06765,-0.0083 c 0.03721,-0.0046 0.235975,-0.01245 0.441708,-0.01755 2.422361,-0.06011 8.309025,-0.376536 11.563984,-0.621589 1.75965,-0.132476 1.908777,-0.1505 4.21015,-0.508824 1.377292,-0.214445 2.293168,-0.350303 2.893288,-0.429181 0.2786,-0.03662 0.52658,-0.07949 0.692407,-0.119722 0.37113,-0.09003 0.930362,-0.199611 1.253192,-0.245569 0.391865,-0.05579 0.646273,-0.07591 0.991952,-0.07848 l 0.299543,-0.0023 0.08536,0.27036 c 0.04695,0.148698 0.08406,0.271249 0.08247,0.272336 -0.003,0.002 -0.457868,0.07301 -1.779737,0.277807 -2.806058,0.434761 -5.039341,0.687348 -9.134523,1.033126 -4.102342,0.346381 -6.401818,0.453876 -11.066567,0.517333 l -0.600881,0.0082 z"
       style="fill:#000000;fill-opacity:1;stroke:#000000;stroke-width:0.12032044;stroke-linejoin:round;stroke-miterlimit:4;stroke-dasharray:none;stroke-opacity:1;paint-order:normal" />
    <path
       inkscape:connector-curvature="0"
       id="path885"
       d="m 44.60176,46.687833 c -2.538607,-0.04818 -3.728325,-0.116442 -5.571087,-0.319646 -1.87622,-0.206892 -4.976498,-0.682599 -6.626893,-1.01683 l -0.323606,-0.06553 0.113935,-0.33749 c 0.06765,-0.200395 0.140659,-0.710269 0.17972,-1.255172 0.128851,-1.797446 0.05741,-6.584936 -0.126289,-8.462528 C 32.040725,33.116725 31.51743,29.720951 31.161946,28.185983 29.926824,22.852766 27.950471,17.900438 25.372358,13.678485 24.80631,12.751517 23.740438,11.1448 23.34496,10.622345 22.839421,9.954492 21.222643,7.9712229 21.201211,7.9926534 c -0.0406,0.040612 -0.66689,3.7423086 -0.889655,5.2583886 -0.124963,0.850473 -0.338567,2.197084 -0.474673,2.992469 -0.136107,0.795387 -0.348258,2.033508 -0.471446,2.751382 -0.224632,1.309029 -0.728035,5.202969 -0.880728,6.812644 -0.109422,1.153512 -0.109434,6.516367 -1.8e-5,8.054199 0.309612,4.351571 0.659277,6.45619 1.382618,8.321936 0.04938,0.127369 -0.101346,0.08983 -1.890362,-0.470815 l -1.061484,-0.332649 0.181722,-0.20697 c 0.270257,-0.307806 0.288459,-0.6096 0.0973,-1.613076 -0.295873,-1.553117 -0.467803,-2.628419 -0.570087,-3.565495 -0.542575,-4.970783 -0.133609,-11.381273 1.270065,-19.908108 0.668949,-4.063628 1.331571,-7.3826994 1.691478,-8.4726008 L 19.717343,7.216024 h 1.035485 1.035486 l 0.37614,0.2431102 c 1.086039,0.7019414 3.075426,2.4964813 4.600698,4.1500898 1.508529,1.635456 3.07906,3.623739 4.275847,5.413192 2.65554,3.970603 4.195583,7.099872 6.7791,13.774692 l 1.130318,2.92031 -0.558968,1.250046 c -1.792846,4.009426 -3.26465,7.115109 -3.567257,7.527342 -0.28552,0.388956 -0.366103,0.920658 -0.190885,1.259493 0.142088,0.274765 0.509701,0.676307 0.758437,0.828431 0.469179,0.286947 4.366713,0.923144 8.605155,1.404624 2.85729,0.324582 3.796062,0.393409 5.873518,0.430617 1.825839,0.0327 1.989673,0.04465 1.989673,0.145203 0,0.08881 -0.08141,0.117255 -0.429769,0.150156 -0.512657,0.04842 -3.52708,0.03716 -6.828561,-0.0255 z"
       style="fill:#000000;fill-opacity:1;stroke:#000000;stroke-width:0.48128176;stroke-linejoin:round;stroke-miterlimit:4;stroke-dasharray:none;stroke-opacity:1;paint-order:normal" />
    <path
       inkscape:connector-curvature="0"
       id="path887"
       d="m 26.411965,92.379559 c -1.642744,-2.471032 -2.367667,-5.054062 -2.186407,-7.790542 0.141669,-2.138789 0.396217,-3.034904 2.116955,-7.452584 1.535564,-3.942286 1.831965,-4.943206 1.627499,-5.49593 -0.09726,-0.262916 0.01553,-0.501472 0.43639,-0.923009 0.512426,-0.51325 0.596767,-0.760849 0.868406,-2.549391 0.360545,-2.373914 0.649071,-6.448147 0.652743,-9.217286 l 0.0027,-2.013896 0.765359,-0.621216 c 3.352767,-2.721319 6.61367,-3.383729 16.432731,-3.338093 l 4.141949,0.01925 -4.296248,0.326433 c -2.362937,0.179538 -4.328305,0.358487 -4.367482,0.397665 -0.03918,0.03918 0.806805,0.623286 1.879962,1.298018 l 1.951195,1.226786 0.912291,1.639135 c 1.111762,1.99753 2.078514,4.406159 2.703374,6.735363 0.422061,1.573262 0.470055,2.081259 0.482618,5.10829 0.0077,1.848714 -0.02656,3.397947 -0.07609,3.442741 -0.04952,0.0448 -0.386701,0.135028 -0.749284,0.200521 l -0.659242,0.119076 0.267972,-0.860546 c 0.18785,-0.603244 0.244238,-1.361549 0.18859,-2.536136 -0.07197,-1.519076 -0.148597,-1.815272 -0.820385,-3.170996 -1.620118,-3.269534 -5.422774,-5.688372 -8.942692,-5.688372 -2.548749,0 -5.567561,1.311455 -7.253134,3.150961 -1.765254,1.926464 -2.548702,3.869472 -2.557081,6.341753 -0.006,1.771083 0.463522,2.976484 1.569165,4.028481 1.399375,1.33149 1.317083,1.29987 2.550949,0.980138 0.601985,-0.155985 1.925763,-0.407903 2.94173,-0.559815 2.011963,-0.300833 2.658328,-0.660885 2.658328,-1.480786 0,-0.682311 -0.681701,-1.628618 -1.458824,-2.025076 -0.569918,-0.29075 -0.702192,-0.455607 -0.702192,-0.875161 0,-0.510075 1.001601,-2.180733 1.383778,-2.308125 0.106678,-0.03556 0.246289,0.214285 0.310248,0.55521 0.06396,0.340925 0.274716,0.821274 0.468352,1.067442 0.482657,0.613599 1.718135,1.084983 2.472686,0.943427 l 0.600036,-0.112566 -0.292124,0.684663 c -0.539476,1.264393 -0.620943,1.516659 -0.620943,1.922794 0,0.48697 0.993535,1.553178 1.447318,1.553178 0.91215,0 0.855393,0.223582 -0.2737,1.078192 -1.553706,1.175993 -2.754324,1.442138 -6.521667,1.445663 -3.2583,0.003 -4.580131,0.241657 -6.245195,1.12737 -4.340237,2.308724 -5.876416,8.305244 -3.441251,13.433008 0.349255,0.735428 0.601981,1.370175 0.561613,1.41054 -0.04037,0.04035 -0.459302,-0.507082 -0.930966,-1.216575 z"
       style="fill:#000000;fill-opacity:1;stroke:#000000;stroke-width:1.36127043;stroke-linejoin:round;stroke-miterlimit:4;stroke-dasharray:none;stroke-opacity:1;paint-order:normal" />
    <path
       inkscape:connector-curvature="0"
       id="path889"
       d="m 88.200444,85.321175 c -1.24554,-4.253115 -4.168679,-7.386854 -7.763939,-8.323304 -0.76302,-0.198743 -2.016172,-0.278408 -4.487452,-0.285285 -1.996597,-0.0053 -4.030563,-0.110955 -4.869472,-0.252338 -1.142011,-0.192465 -1.512604,-0.197085 -1.787629,-0.02228 -0.300187,0.190785 -0.512691,0.106328 -1.576623,-0.626602 -0.676319,-0.465915 -1.47239,-0.947648 -1.769045,-1.070528 -0.563448,-0.233385 -0.698198,-0.50052 -0.314266,-0.62301 0.123808,-0.03952 0.846825,-0.12432 1.606703,-0.188482 l 1.381598,-0.116663 0.722578,-1.099529 0.722578,-1.099533 -0.431472,-0.512775 c -0.414398,-0.492485 -0.80237,-1.528113 -0.804477,-2.147423 -5.58e-4,-0.162359 0.148569,-0.479913 0.331381,-0.705677 l 0.332386,-0.410478 0.104473,0.778902 c 0.15489,1.15479 0.92637,1.864361 2.009228,1.84799 0.452772,-0.0068 0.823222,0.03336 0.823222,0.08935 0,0.05599 -0.191031,0.352557 -0.424513,0.659046 -0.292563,0.384044 -0.451099,0.87911 -0.510048,1.59274 l -0.08554,1.035484 0.91524,0.0015 c 0.503381,7.28e-4 2.083285,0.243923 3.510895,0.540255 3.250815,0.67479 3.596452,0.678158 4.206877,0.04103 0.768983,-0.802646 1.087853,-1.905731 1.105478,-3.824248 0.03233,-3.519355 -1.358745,-6.229666 -4.15854,-8.102285 -1.796197,-1.201368 -3.278389,-1.65048 -5.460276,-1.654493 -2.093235,-0.0038 -3.62282,0.43331 -5.199126,1.485926 -1.42725,0.953082 -2.332529,2.003225 -3.293061,3.820027 -0.77207,1.460333 -0.782176,1.502717 -0.782176,3.280296 0,1.659684 0.04496,1.892352 0.573474,2.968192 0.315411,0.64204 0.557704,1.183115 0.53843,1.20239 -0.0571,0.0571 -3.191028,-0.425551 -3.248845,-0.50034 -0.108338,-0.140145 -0.466575,-2.08552 -0.576382,-3.129988 -0.145726,-1.386132 0.193378,-4.787393 0.673288,-6.753177 0.680963,-2.789324 1.809472,-5.181555 3.384036,-7.173527 0.680571,-0.860987 0.771597,-0.914239 1.650842,-0.96578 0.774002,-0.04537 0.993039,-0.13851 1.301967,-0.553624 0.323886,-0.435213 0.343902,-0.571958 0.156429,-1.068633 -0.118242,-0.313256 -0.169122,-0.61542 -0.113067,-0.671475 0.05606,-0.05606 1.695668,-0.100142 3.643584,-0.09797 3.080932,0.0035 3.740796,0.0563 5.072383,0.406413 2.129872,0.559998 3.757635,1.2517 5.17926,2.200868 l 1.213754,0.810381 0.12186,2.0732 c 0.06705,1.14026 0.333368,3.125694 0.591878,4.412076 0.561907,2.796199 1.68282,7.118372 1.921207,7.408074 0.30144,0.366323 3.382072,9.600057 3.647107,10.931667 0.28899,1.451932 0.555668,4.618837 0.38895,4.618837 -0.06007,0 -0.138885,-0.101303 -0.17514,-0.225105 z"
       style="fill:#000000;fill-opacity:1;stroke:#000000;stroke-width:1.36127043;stroke-linejoin:round;stroke-miterlimit:4;stroke-dasharray:none;stroke-opacity:1;paint-order:normal" />
    <path
       sodipodi:nodetypes="ccscc"
       inkscape:connector-curvature="0"
       id="path893"
       d="m 88.365714,86.716055 c -0.01095,-0.131318 -0.02955,-0.292485 -0.04125,-0.358148 -0.01868,-0.104895 -0.01365,-0.119377 0.0417,-0.119377 0.05955,0 0.06225,0.01785 0.0495,0.32631 -0.01732,0.418897 -0.622016,10.186652 -0.04995,0.151215 z"
       style="fill:#000000;fill-opacity:1;stroke:#000000;stroke-width:0.24064088;stroke-linejoin:round;stroke-miterlimit:4;stroke-dasharray:none;stroke-opacity:1;paint-order:normal" />
    <path
       inkscape:connector-curvature="0"
       id="path897"
       d="m 28.031428,94.534827 c -0.182994,-0.193125 -0.3349,-0.360773 -0.337569,-0.372533 -0.0028,-0.01252 0.0187,-0.02918 0.05188,-0.04013 0.0312,-0.01027 0.06587,-0.0279 0.07705,-0.03907 0.01649,-0.0165 0.04125,0.01282 0.131173,0.155265 0.06097,0.09658 0.183764,0.28179 0.272884,0.411585 0.08912,0.129795 0.156469,0.235988 0.149667,0.235988 -0.0068,0 -0.162092,-0.158018 -0.345086,-0.35115 z"
       style="fill:#000000;fill-opacity:1;stroke:#000000;stroke-width:0.12032044;stroke-linejoin:round;stroke-miterlimit:4;stroke-dasharray:none;stroke-opacity:1;paint-order:normal" />
    <g
       id="g1065">
      <path
         style="color:#000000;font-style:normal;font-variant:normal;font-weight:normal;font-stretch:normal;font-size:medium;line-height:normal;font-family:sans-serif;font-variant-ligatures:normal;font-variant-position:normal;font-variant-caps:normal;font-variant-numeric:normal;font-variant-alternates:normal;font-feature-settings:normal;text-indent:0;text-align:start;text-decoration:none;text-decoration-line:none;text-decoration-style:solid;text-decoration-color:#000000;letter-spacing:normal;word-spacing:normal;text-transform:none;writing-mode:lr-tb;direction:ltr;text-orientation:mixed;dominant-baseline:auto;baseline-shift:baseline;text-anchor:start;white-space:normal;shape-padding:0;clip-rule:nonzero;display:inline;overflow:visible;visibility:visible;opacity:1;isolation:auto;mix-blend-mode:normal;color-interpolation:sRGB;color-interpolation-filters:linearRGB;solid-color:#000000;solid-opacity:1;vector-effect:none;fill:#000000;fill-opacity:1;fill-rule:nonzero;stroke:none;stroke-width:2.26799989;stroke-linecap:butt;stroke-linejoin:miter;stroke-miterlimit:4;stroke-dasharray:none;stroke-dashoffset:0;stroke-opacity:1;color-rendering:auto;image-rendering:auto;shape-rendering:auto;text-rendering:auto;enable-background:accumulate"
         d="m 88.558941,2.5653699 c -0.683575,-0.053149 -1.3941,0.089544 -2.03125,0.4140625 l -0.002,0.00195 h -0.002 C 85.864119,3.3218008 85.326987,3.8514756 84.640879,4.5809918 83.954771,5.310508 83.182782,6.2333226 82.365488,7.2899761 80.7309,9.403283 78.919746,12.047955 77.369394,14.663023 74.828146,18.938781 72.181764,24.539212 71.019785,28.008726 70.851116,27.834042 70.744704,27.655558 70.556894,27.479429 69.768924,26.70053 69.05,26.271455 68.052988,25.967711 l -0.0059,-0.002 -0.0078,-0.002 c -1.829505,-0.534823 -3.58779,-0.461723 -7.09375,0.240235 -2.863855,0.557581 -2.807686,0.553988 -5.693359,0.488281 l 0.0039,0.002 C 52.193612,26.613257 50.64162,26.376009 48.195532,25.60829 h -0.002 -0.002 c -1.039008,-0.323187 -1.906547,-0.431641 -3.28125,-0.431641 -0.824732,0 -1.302757,-0.0053 -1.804687,0.09766 -0.501931,0.102937 -0.908107,0.345788 -1.271485,0.585938 l -0.0039,0.002 -0.0059,0.0039 c -0.914155,0.617584 -1.656706,1.597212 -2.396485,2.863281 -2.284893,-5.847519 -4.187288,-9.69846 -6.947265,-13.689453 l -0.002,-0.002 -0.002,-0.002 C 29.718562,11.08278 26.223793,7.3638631 23.320659,5.4657605 22.369515,4.8377935 21.661509,4.4208534 20.863628,4.2567761 20.066651,4.0928846 19.186736,4.3797404 18.623394,4.8427136 c -6.39e-4,5.248e-4 -0.0013,0.00143 -0.002,0.00195 -0.534236,0.4369955 -0.898381,1.0768871 -1.185547,1.9199218 -0.287851,0.8450436 -0.538998,1.9569821 -0.857422,3.5976566 l -0.002,0.002 c -2.53048,13.162321 -3.097616,21.988013 -1.771485,28.697266 -0.01941,-0.0049 -0.03126,-0.0067 -0.05078,-0.01172 h -0.002 -0.0039 c -1.1446,-0.285847 -2.323931,-0.437015 -3.392578,-0.455078 -1.067198,-0.01804 -1.9996458,0.06081 -2.8144533,0.416015 -1.0739947,0.464964 -1.8916748,1.374869 -2.4628906,2.431641 -7.12e-4,0.0013 -0.00124,0.0026 -0.00195,0.0039 -0.2005363,0.361562 -0.2673309,0.645036 -0.3671876,1.164063 -0.1002094,0.520861 -0.1777343,1.203498 -0.1777343,2.046875 0,2.526054 0.3256679,3.146373 0.9003906,4.671875 l 0.00195,0.0059 0.00195,0.0039 c 1.0488694,2.712542 3.0037654,6.015638 5.0605472,8.572266 l 0.002,0.002 v 0.002 c 3.189833,3.930286 9.244881,10.170422 12.783203,13.134766 0.672129,0.564232 1.090362,0.947122 1.316406,1.18164 -0.106465,0.475869 -0.47861,1.645249 -1.464844,4.054688 -6.55e-4,0.0016 6.55e-4,0.0023 0,0.0039 -5.72e-4,0.0014 -0.0014,5.54e-4 -0.002,0.002 -1.324895,3.197861 -1.930543,5.183163 -2.21875,7.222657 v 0.002 0.002 c -0.815939,5.904085 2.249293,11.836403 7.75586,15.435547 v 0.002 h 0.002 c 4.743999,3.077407 9.848116,5.435497 13.345703,5.984377 h 0.0039 l 0.0039,0.002 c 0.4759,0.0715 0.520716,0.079 0.667969,0.16797 0.147253,0.0889 0.484601,0.37508 1.134766,0.99609 1.242159,1.18514 2.33131,2.0134 4.013672,2.39453 1.682361,0.38114 3.85854,0.40625 7.765625,0.40625 3.423468,0 5.192997,0.0243 6.632812,-0.35937 1.439815,-0.38367 2.308575,-1.24527 3.455078,-2.4707 l 0.0039,-0.004 0.0039,-0.004 c 0.249366,-0.27148 0.522405,-0.54265 0.742187,-0.74609 0.219782,-0.20344 0.533623,-0.3945 0.296875,-0.26953 l 0.01367,-0.008 0.01367,-0.008 c -0.115858,0.0654 -0.0038,0.005 0.117188,-0.0371 0.120974,-0.0425 0.293138,-0.0999 0.49414,-0.16211 0.40036,-0.1239 0.917526,-0.27252 1.44336,-0.41796 l 0.0059,-0.002 c 7.921405,-2.14562 12.76761,-4.36545 16.277344,-7.570306 l 0.002,-0.002 0.0039,-0.0039 c 3.341711,-3.095501 4.617773,-6.322437 4.619141,-11.63086 v -0.0039 c 0.01712,-3.254249 -0.420802,-5.549463 -1.734375,-9.164063 l -0.002,-0.0078 c -0.352156,-0.990131 -0.92615,-2.652872 -1.283203,-3.689453 l -0.0039,-0.01367 -0.345626,-1.048628 -0.3125,0.21875 -0.02148,0.01563 c 2.05804,-1.378811 6.363092,-5.456694 9.541015,-8.84961 h 0.002 c 3.9351,-4.212483 6.7065,-8.594812 7.93555,-12.722656 v -0.002 -0.002 c 0.30203,-1.022994 0.36549,-2.504589 0.38086,-4.087891 0.0154,-1.582537 0.01,-2.982989 -0.31836,-4.019531 -0.88397,-2.839072 -3.41069,-4.460882 -6.203128,-4.238281 0.22838,-2.510568 0.188847,-10.528947 -0.103515,-12.751953 v -0.002 C 97.852379,21.770295 97.686562,20.81257 97.156597,18.330995 96.476275,15.091357 95.457254,11.929512 94.293316,9.289979 93.129852,6.6515224 91.881026,4.5443663 90.431987,3.3231824 89.896757,2.8668018 89.241045,2.6184045 88.558941,2.5653699 Z m -0.197266,2.2070312 c 0.218652,0.012746 0.403472,0.1096079 0.599609,0.2773438 l 0.0039,0.00195 0.0039,0.00391 c 0.898559,0.7561362 2.158901,2.6740886 3.25,5.1484381 1.091098,2.474349 2.071269,5.512939 2.71875,8.597656 l 0.002,0.002 v 0.002 c 0.525471,2.460532 0.666749,3.282095 1.074219,6.337891 0.179343,1.366418 0.264424,10.808307 0.09766,12.435547 l -0.257812,2.25 c -0.490759,0.159069 -0.680201,0.162295 -1.328126,0.382812 -0.05455,0.0186 -0.13244,0.03607 -0.1875,0.05469 0.0082,-0.02072 0.03171,-0.03788 0.03906,-0.05859 0.220982,-0.62268 0.289712,-1.309646 0.351563,-2.292969 0.05152,-0.731445 0.169522,-2.465904 0.287109,-3.847656 l 0.002,-0.0059 v -0.0078 c 0.299931,-4.097636 -0.03967,-9.820703 -0.800781,-13.708984 l -0.002,-0.002 c -0.158015,-0.800553 -0.455092,-1.943413 -0.763672,-3.011719 -0.308581,-1.068306 -0.572751,-1.954458 -0.859375,-2.548828 l 0.02344,0.04883 C 92.485665,14.525668 92.183714,13.845328 91.931987,13.260682 91.648799,12.602968 91.112984,11.517857 90.640972,10.69037 90.372858,10.204396 90.170727,9.835219 89.982769,9.532167 89.794811,9.229115 89.695297,8.964055 89.205425,8.6786511 88.960489,8.5359492 88.528377,8.4464674 88.183941,8.5419324 87.839505,8.6373974 87.644455,8.820146 87.515972,8.955995 87.259005,9.227693 87.161018,9.429805 87.012066,9.672792 v 0.002 c -0.104439,0.170551 -0.230785,0.341347 -0.320313,0.445312 -0.04476,0.05198 -0.08046,0.0865 -0.08203,0.08789 -0.0016,0.0014 -0.0095,-0.04527 0.255859,-0.130859 -0.417528,0.134685 -0.451055,0.246433 -0.550781,0.339843 -0.09973,0.09341 -0.18321,0.185132 -0.273437,0.289063 -0.180456,0.207861 -0.379786,0.46374 -0.607422,0.767578 -0.455273,0.607676 -1.013599,1.403694 -1.595704,2.269531 -1.164208,1.731675 -2.406118,3.703246 -3.060546,4.960938 -3.708572,7.109382 -4.574248,15.43056 -2.621094,24.324219 v 0.002 l 0.287109,1.283203 c -0.308606,0.05538 -0.710972,0.167884 -1.005859,0.216797 -0.0039,6.55e-4 -0.0097,0.0013 -0.01367,0.002 0.01096,-0.03149 0.03125,-0.08789 0.03125,-0.08789 0,0 -2.187514,0.206993 -2.1875,0.207031 7e-6,2.1e-5 -0.01664,-0.07627 -0.0332,-0.152343 0.01849,-7.36e-4 1.956322,-0.07895 2.130859,-0.08594 -0.05948,-0.0207 -0.382321,-0.133421 -0.728515,-0.253906 -0.01153,-0.02963 -0.06683,-0.224013 -0.08594,-0.279297 0.365947,-0.06753 0.785156,-0.144531 0.785156,-0.144531 0,0 0.04036,0.145573 0.07813,0.279297 0.01335,0.141202 0.03271,0.348059 0.03711,0.394531 8.4e-5,-4e-6 0.0098,0 0.0098,0 2.5e-5,-1.95e-4 0.0077,-0.119167 0.0078,-0.134766 1.8e-5,-0.0024 -8e-6,-0.0036 0,-0.0059 0,-0.0015 7.3e-5,-0.0066 0,-0.0098 -3.09e-4,-0.0075 -0.0011,-0.02083 -0.002,-0.04102 -2.05e-4,-0.0058 -2e-6,-0.01761 0,-0.01758 0,1e-6 4e-6,-0.0019 0,-0.002 -2.3e-4,-0.0045 -0.0017,-0.01097 -0.002,-0.01563 -1.71e-4,-0.0029 1.9e-4,-0.0069 0,-0.0098 -1e-6,-2e-6 -0.0019,-0.0056 -0.002,-0.0059 -0.003,-0.0439 -0.005,-0.09013 -0.01367,-0.144531 -0.02119,-0.132396 -0.06407,-0.297837 -0.146485,-0.480469 -0.164822,-0.365262 -0.512386,-0.785122 -1.029297,-1.058593 -0.04194,-0.02219 -0.118549,-0.01453 -0.162109,-0.03516 -0.06734,-0.231195 -0.09509,-0.279226 -0.158203,-0.511718 -0.294959,-1.086605 -0.508798,-2.052701 -0.835938,-2.757813 -1.461939,-3.224137 -1.81004,-3.915963 -3.035156,-6.287109 -0.365249,-0.70692 -0.674681,-1.112277 -1.005859,-1.671875 0.09654,0.04107 0.108427,0.09766 0.322265,0.09766 7.98e-4,0 0.25353,-0.02386 0.34961,-0.05469 0.09608,-0.03082 0.170149,-0.06803 0.230469,-0.103515 0.120638,-0.07098 0.186545,-0.135303 0.236328,-0.185547 0.09956,-0.100488 0.134887,-0.160034 0.166015,-0.208984 0.06226,-0.0979 0.08669,-0.152806 0.113281,-0.210938 0.05318,-0.116263 0.09651,-0.226127 0.144532,-0.357422 0.09605,-0.26259 0.204208,-0.595547 0.318359,-0.960937 0.942664,-3.015025 3.805209,-9.113528 6.361328,-13.414063 v -0.002 h 0.002 C 80.81745,13.294553 82.588532,10.708478 84.15855,8.6786511 84.943559,7.6637378 85.678924,6.7868676 86.291363,6.1356824 86.901821,5.4866016 87.449949,5.0581165 87.558941,5.0009168 87.891002,4.8320452 88.143514,4.7596839 88.361675,4.7724011 Z M 20.406597,6.4774792 c 0.223507,0.045962 0.793731,0.306247 1.664062,0.8808594 h 0.002 l 0.002,0.00195 c 2.441363,1.5951074 5.923243,5.2199914 8.542968,8.9746094 2.911678,4.210944 4.73723,7.851917 7.291016,14.611328 l 0.002,0.0039 1.076032,2.773447 c -1.465205,3.270249 -2.643106,5.849138 -3.746094,8.142578 -0.182647,0.370322 -0.304846,0.564085 -0.339844,0.613281 -0.01776,0.02497 -0.01676,0.01578 0.04102,-0.03906 0.02889,-0.02742 0.06735,-0.06633 0.167969,-0.126953 0.0079,-0.0048 0.02837,-0.01248 0.03711,-0.01758 -0.123221,0.06404 -0.237627,0.127427 -0.373047,0.308593 -0.03842,0.0514 -0.118825,0.198546 -0.11914,0.199219 -3.16e-4,6.73e-4 -0.103461,0.370547 -0.103516,0.371094 -2.7e-5,2.74e-4 0.0097,0.298593 0.0098,0.298828 3.9e-5,2.35e-4 0.126847,0.363089 0.126953,0.363281 1.06e-4,1.92e-4 0.269357,0.326028 0.269531,0.326172 1.6e-5,1.3e-5 0.0244,0.01473 0.0293,0.01758 l 0.01953,0.04687 0.197266,0.173828 c 0.426611,0.373524 0.46057,0.263783 0.597656,0.304688 0.137086,0.04091 0.28231,0.07539 0.453125,0.113281 0.341631,0.07579 0.781859,0.159417 1.308594,0.25 1.05347,0.181166 2.444798,0.388779 3.949219,0.587891 3.008842,0.398223 6.418842,0.761719 8.490234,0.761718 2.93811,0 11.138986,-0.420276 15.412109,-0.787109 h 0.0039 0.0039 c 1.245063,-0.114749 3.946219,-0.614393 6.035156,-0.871094 l 0.07031,-0.0078 0.07031,-0.01758 c 1.34975,-0.341389 2.179444,-0.397991 2.751953,-0.375 0.05887,0.177051 0.110915,0.39322 0.177735,0.554687 -2.683607,0.420442 -4.422274,0.719688 -8.425782,1.089844 -6.519019,0.60786 -9.716371,0.753906 -16.748046,0.753906 -7.120473,0 -8.987936,-0.108161 -13.28125,-0.746094 h -0.002 c -1.477561,-0.217589 -2.716095,-0.458455 -4.101562,-0.708984 0.01049,-0.01435 0.03797,-0.02742 0.04687,-0.04102 0.184339,-0.280012 0.1891,-0.403818 0.216797,-0.53125 0.02913,-0.134037 0.0479,-0.260888 0.06445,-0.402343 0.03312,-0.282911 0.05594,-0.619797 0.07422,-1.011719 0.03657,-0.783845 0.05119,-1.783856 0.04687,-2.847656 -0.0086,-2.126175 -0.08722,-4.457391 -0.25586,-5.810547 v -0.0039 c -0.104082,-0.855777 -0.266294,-2.039301 -0.416015,-3.074219 -0.149245,-1.031624 -0.259532,-1.801729 -0.34961,-2.210938 v -0.002 c -1.35209,-6.373644 -3.550409,-11.852853 -6.710902,-16.73629 l -0.0039,-0.0059 -0.0039,-0.0059 c -0.615129,-0.925881 -1.17492,-1.779704 -1.541028,-2.224528 l -0.0098,-0.01172 -1.912109,-2.378906 -0.539063,3.042969 -0.002,0.0078 c -0.05616,0.344202 -0.256896,1.662212 -0.445312,2.988281 -0.203465,1.312183 -0.497046,3.130316 -0.669922,3.966797 l -0.002,0.0098 -0.002,0.0098 c -0.176218,0.937922 -0.414728,2.412615 -0.523437,3.376953 -0.09969,0.884336 -0.267322,2.175619 -0.353516,2.859375 -0.35006,2.623235 -0.363944,6.246965 -0.15625,9.609375 0.207695,3.36241 0.560724,6.323752 1.292969,8.037109 l -0.01953,-0.04687 c 0.05655,0.15049 0.124225,0.343392 0.164062,0.464844 -0.238045,-0.07045 -0.942634,-0.253419 -1.041015,-0.28711 l -0.0078,-0.002 c -0.305989,-0.107485 -1.255697,-0.400725 -2.050781,-0.648437 0.07101,-0.0787 0.193641,-0.215118 0.263672,-0.292969 0.0421,-0.06038 0.08976,-0.130681 0.08984,-0.130859 2.17e-4,-4.89e-4 0.05666,-0.152898 0.06836,-0.203125 0.0234,-0.100455 0.02482,-0.153553 0.02734,-0.195313 0.0051,-0.08352 0.0019,-0.119272 0,-0.152344 -0.0038,-0.06614 -0.0081,-0.105206 -0.01367,-0.148437 -0.01112,-0.08646 -0.02643,-0.176695 -0.04492,-0.285156 -0.03697,-0.216923 -0.0891,-0.495735 -0.150391,-0.800781 l -0.002,-0.0078 -0.002,-0.0098 c -1.354864,-6.240909 -0.8659,-14.975815 1.709241,-28.371085 v -0.002 c 0.311187,-1.60308 0.560832,-2.657434 0.779297,-3.2987816 0.218588,-0.6417073 0.364053,-0.8063893 0.47461,-0.8964844 l 0.002,-0.00195 0.002,-0.00195 C 20.299675,6.3996164 20.18309,6.4315169 20.406597,6.4774792 Z m 68.082031,5.0136718 c 0.06402,0.115184 0.09143,0.159734 0.166016,0.294922 l 0.0039,0.0078 0.0039,0.0078 c 0.411118,0.719187 0.959761,1.831074 1.185547,2.355469 0.258967,0.601462 0.57128,1.305768 0.679688,1.560547 l 0.0098,0.02539 0.01172,0.02344 c 0.07086,0.146945 0.428869,1.171459 0.724609,2.195312 0.295741,1.023853 0.585419,2.154707 0.716797,2.820313 0.702665,3.590872 1.044441,9.298253 0.765625,13.107422 -0.12007,1.413353 -0.240406,3.15473 -0.291015,3.873046 v 0.0059 0.0039 c -0.05665,0.900583 -0.156264,1.457003 -0.22461,1.65625 -0.143287,0.04165 -0.28697,0.0813 -0.421875,0.142578 -0.05955,0.02705 -0.163522,0.164179 -0.226562,0.185547 h -0.0332 l -0.04492,0.0039 c -0.48608,0.03919 -0.876529,0.161179 -1.339844,0.324219 l -0.02148,0.0078 -0.01953,0.0078 c -0.248142,0.09824 -0.871272,0.271818 -1.189453,0.341797 l 0.04883,-0.0098 c -0.542057,0.09537 -1.824747,0.410451 -3.144531,0.742188 h -0.002 -0.002 c -1.9349,0.494326 -3.844032,0.923317 -5.488281,1.257812 C 78.52757,34.00675 79.363361,26.320488 82.789352,19.752816 v -0.002 c 0.554214,-1.065099 1.797726,-3.055571 2.931641,-4.742188 0.566958,-0.843308 1.110181,-1.618972 1.527344,-2.175781 0.208581,-0.278404 0.387878,-0.504727 0.505859,-0.640625 0.05899,-0.06795 0.10486,-0.113082 0.111328,-0.119141 0.0065,-0.0061 0.05539,0.04596 -0.304687,0.16211 0.341952,-0.110303 0.434961,-0.225629 0.548828,-0.326172 0.113867,-0.100544 0.207232,-0.201911 0.300781,-0.310547 0.02721,-0.03159 0.05122,-0.07449 0.07813,-0.107422 z m -65.900391,2.09375 c 0.08694,0.128694 0.109789,0.155535 0.19336,0.28125 3.001064,4.637503 5.093101,9.829741 6.396484,15.97461 l 0.002,0.0059 v 0.0039 c 0.01185,0.0535 0.174269,1.031686 0.322266,2.054688 0.147997,1.023001 0.307994,2.203051 0.408203,3.027343 l 0.002,0.002 v 0.002 c 0.137547,1.101833 0.22988,3.469777 0.238281,5.542968 0.0042,1.036596 -0.01127,2.010983 -0.04492,2.732422 -0.0057,0.122997 -0.0147,0.18406 -0.02148,0.291016 -0.80858,-0.159369 -2.291241,-0.50977 -5.060547,-1.177735 h -0.002 c -1.787038,-0.436238 -2.595213,-0.639532 -2.929687,-0.746093 -0.06343,-0.18684 -0.13206,-0.398609 -0.173828,-0.509766 l -0.0078,-0.02539 -0.0098,-0.02148 c -0.408337,-0.955514 -0.914405,-4.033511 -1.115266,-7.285289 -0.200861,-3.251778 -0.173216,-6.818102 0.140625,-9.169922 v -0.0039 -0.0039 c 0.08425,-0.668595 0.255065,-1.973122 0.359375,-2.898438 0.09493,-0.842078 0.330019,-2.314929 0.494141,-3.191406 l 0.0039,-0.02148 c 0.200857,-0.976225 0.483571,-2.754666 0.6875,-4.070312 l 0.002,-0.0078 v -0.0078 c 0.04917,-0.34607 0.0665,-0.446032 0.115234,-0.777344 z m 22.199219,15.578125 c 0.332188,-0.02225 0.811426,0.04415 1.458985,0.230469 h 0.002 c 3.490696,1.014981 5.190583,1.295288 8.439453,1.378906 3.3565,0.08329 4.936557,-0.06759 8.191406,-0.800781 1.77835,-0.39597 3.64658,-0.326383 4.160156,-0.130859 0.561206,0.223014 1.603127,1.331519 3.029297,4.091796 1.224684,2.370309 1.524916,2.968246 2.986328,6.191407 l 0.002,0.0039 0.002,0.0039 c 0.03969,0.08556 0.333769,1.091593 0.591796,2.011719 -0.747168,0.0462 -1.526106,0.11859 -2.609374,0.392578 l 0.138671,-0.02539 c -2.197968,0.2701 -5.055111,0.777373 -5.958984,0.861329 -4.170355,0.35801 -12.505176,0.779296 -15.21875,0.779296 -1.79286,0 -5.230506,-0.350309 -8.191406,-0.742187 -1.48045,-0.195939 -2.854539,-0.402362 -3.865235,-0.576172 -0.252202,-0.04337 -0.3976,-0.07485 -0.599609,-0.113281 1.246094,-2.593943 2.444509,-5.191138 4.226563,-9.19336 v -0.002 c 1.036871,-2.338581 1.832395,-3.596587 2.398437,-4.042969 0.283021,-0.22319 0.483785,-0.296077 0.816406,-0.318359 z m 46.800781,10.597656 c -0.131264,0.04519 -0.238154,0.0097 -0.470703,0.384766 l 0.08984,-0.125 c 0.226165,-0.273597 0.312105,-0.242725 0.347656,-0.253906 0.02318,-0.0073 0.02625,-0.0056 0.0332,-0.0059 z m 7.365238,1.507813 c 0.57186,-0.0745 0.54052,-0.04713 1.03711,0.25 0.398315,0.24386 0.922715,1.180453 1.046875,2.666016 0.12442,1.48856 -0.10824,3.406709 -0.75,5.285156 -1.465127,4.202692 -4.640694,8.668412 -10.363285,14.320312 h -0.002 c -1.581458,1.56315 -2.863824,2.770841 -3.751953,3.542969 -0.07754,0.06741 -0.102254,0.0799 -0.173828,0.140625 -0.08222,-0.306787 -0.155369,-0.567844 -0.248047,-0.927734 -0.330837,-1.284713 -0.699534,-2.79987 -0.896485,-3.728516 -0.386744,-1.871308 -0.606856,-3.650899 -0.664062,-4.634766 1.528225,0.02154 1.517913,-0.386946 1.394531,-1.179687 -0.06014,-0.386422 -0.0533,-0.433391 -0.374023,-0.813477 -0.177826,-0.179702 -0.353157,-0.388059 -0.497071,-0.567382 -0.222616,-0.249704 -0.505576,-0.532628 -0.824218,-0.814454 l -0.0078,-0.0059 c -2.838783,-2.550438 -6.328581,-3.948891 -11.0527,-4.509725 l -0.0039,-0.002 h -0.0039 c -2.072106,-0.231373 -7.78216,-0.138012 -15.171875,0.175782 -1.910486,0.08038 -6.401484,0.146484 -9.876953,0.146484 h -0.002 c -8.925098,0.01651 -11.633015,0.304603 -14.839844,1.597656 -2.482173,0.993659 -5.252551,2.738649 -6.548828,4.628906 -0.240622,0.3471 -0.579261,1.018139 -0.628906,1.423828 -0.04982,0.407152 -0.115797,1.079274 0.259765,1.486329 0.234856,0.254549 1.170606,-0.224636 1.509766,-0.185547 v 0.851562 0.0039 c 0.01614,2.3747 -0.236465,5.338879 -0.619141,7.679688 -0.144973,-0.132082 -0.212253,-0.187051 -0.390624,-0.349609 l -0.0039,-0.0039 C 21.794387,63.410979 14.881825,55.602771 12.773784,52.321229 l -0.002,-0.002 c -1.391923,-2.17635 -2.386985,-4.280179 -2.8984368,-5.966797 -0.511654,-1.687281 -0.407633,-2.92587 -0.234375,-3.21289 h 0.002 v -0.002 c 0.25429,-0.423808 0.350315,-0.496774 0.4921868,-0.5625 0.14073,-0.0652 0.499219,-0.13557 1.214844,-0.136718 1.119161,0.0157 1.473636,0.08786 3.63086,0.740234 1.413372,0.444879 2.923076,0.912809 3.1875,1.00586 l 0.0039,0.002 h 0.0039 c 1.309848,0.449783 7.006996,1.990202 8.783203,2.419921 h 0.0039 l 0.0059,0.002 c 0.857106,0.199066 1.84289,0.421412 2.105469,0.488281 h 0.0039 l 0.0039,0.002 c 1.064293,0.262534 4.282646,0.808332 6.658203,1.158203 4.354442,0.647016 6.470317,0.769531 13.615235,0.769531 7.062672,0 10.403772,-0.152656 16.957031,-0.763672 5.348754,-0.494534 5.867005,-0.568413 11.40039,-1.474609 v -0.002 c 5.196582,-0.854905 12.391486,-2.670535 17.544922,-4.427734 v 0.002 c 2.000118,-0.680727 3.123365,-1.017035 3.697269,-1.091797 z m -76.767581,0.582031 c -0.0011,-0.004 0.0031,0.0082 0.002,0.0039 l 0.0059,0.02148 c -0.0027,-0.0103 -0.0051,-0.01515 -0.0078,-0.02539 z m 13.417969,0.308594 c -5.98e-4,4.2e-5 0.244588,0.034 0.373046,0.05273 -0.239795,-0.04976 -0.500853,-0.05772 -0.730468,0.04102 0.03469,-0.01574 0.04823,-0.03018 0.101562,-0.04687 0.06231,-0.0195 0.256626,-0.04693 0.25586,-0.04687 z m 0.638671,0.162109 c 0.08093,0.04703 0.162197,0.09382 0.16211,0.09375 -7.2e-5,-5.9e-5 0.05617,0.0686 0.109375,0.132813 -0.01586,-0.0043 -0.05396,-0.01249 -0.06445,-0.01563 -0.02196,-0.0066 0.102656,0.07999 0.113281,0.07422 0.05321,0.0642 0.109418,0.132892 0.109375,0.132813 -1.4e-5,-2.6e-5 0.01362,0.03743 0.01758,0.04883 -0.104378,-0.172476 -0.204261,-0.341076 -0.447266,-0.466797 z m 36.316407,10.222656 c 4.254869,0.505126 7.072271,1.686521 9.480468,3.744141 -0.0058,0.01054 -0.03418,0.02132 -0.03906,0.03125 -0.207029,0.420729 -0.147277,0.53967 -0.154297,0.712891 -0.007,0.17322 -0.0059,0.356834 -0.0059,0.595703 0,1.273448 0.336896,3.460578 0.789062,5.648437 l 0.002,0.0039 v 0.002 c 0.21177,0.999053 0.582968,2.519656 0.919922,3.828125 0.168477,0.654234 0.327669,1.253616 0.455078,1.707031 0.0637,0.226708 0.11986,0.416055 0.167969,0.568359 0.02405,0.07615 0.04444,0.141328 0.07031,0.210938 0.02587,0.06961 -0.06918,0.03772 0.212891,0.388672 l 0.04492,0.05469 0.05078,0.04883 c 0.129356,0.12518 0.239742,0.0802 0.378906,0.13086 l -0.25,0.175781 0.876954,2.667969 0.0039,0.0078 c 0.357486,1.037842 0.935142,2.715587 1.296875,3.732422 l 0.002,0.0039 v 0.0039 c 1.270856,3.495327 1.618065,5.319996 1.601562,8.386718 v 0.0039 0.002 c 0,1.111903 -0.06392,2.043595 -0.164062,2.914062 0.01312,-0.486083 0.122989,-0.963755 0.05469,-1.455078 v -0.002 -0.0039 C 87.663322,81.852971 84.329615,77.919748 79.902691,76.932557 78.908755,76.706598 77.93087,76.673624 75.748394,76.756776 h -0.002 c -2.50656,0.09703 -3.912618,0.0043 -5.455078,-0.349609 l -0.01563,-0.0039 -0.01367,-0.0039 c -0.109318,-0.02204 -0.182482,-0.05021 -0.410157,-0.05859 -0.113837,-0.0042 -0.287274,-0.06577 -0.677734,0.167968 -0.09601,0.05748 -0.15969,0.212017 -0.251953,0.324219 -1.504738,-1.311311 -3.339035,-2.396577 -5.632813,-3.0625 h -0.0039 l -0.002,-0.002 C 62.210813,73.462 61.055745,73.38813 60.02174,73.245026 l -0.396484,-1.916015 c -0.307426,-1.558351 -0.246775,-4.342318 0.207031,-6.789063 0.793153,-4.129165 2.051371,-6.677998 4.378906,-9.447265 0.389958,-0.01554 0.997461,0.0018 1.390625,-0.02344 0.222236,-0.01132 0.569378,-0.110652 0.81836,-0.378906 0.248981,-0.268254 0.317894,-0.607502 0.316406,-0.822266 -0.003,-0.429527 -0.129551,-0.582018 -0.226562,-0.736328 -0.135768,-0.215956 -0.336069,-0.35384 -0.529297,-0.503906 2.160437,-0.01341 5.924277,-0.156662 6.578125,-0.08398 z m -9.152344,0.115235 c -0.11174,0.08436 -0.256724,0.08409 -0.353516,0.1875 -2.884025,0.06977 -5.60083,-0.0055 -10.498047,0.177734 h -0.01953 l -9.908203,0.712891 3.818359,2.419922 c 2.009822,3.067336 3.348455,6.515506 4.007813,9.908203 v 0.002 l 0.002,0.002 c 0.287322,1.448791 0.416399,4.284492 0.291016,5.412109 l -0.242188,1.833985 c -0.612142,0.108355 -1.256312,0.17091 -1.830078,0.310547 0.149681,-0.189419 0.313946,-0.297696 0.423828,-0.583985 l 0.002,-0.002 v -0.0039 c 0.697128,-1.849781 0.496224,-4.16137 -0.328125,-5.882812 -1.348396,-2.834508 -4.038694,-4.756006 -6.652344,-5.53711 l -0.0039,-0.002 -0.0059,-0.002 c -1.387918,-0.400586 -3.325343,-0.37935 -4.777344,0.0098 l -0.0098,0.0039 -0.0098,0.002 c -0.569707,0.163353 -1.435243,0.488858 -2.136719,0.828125 -2.520825,1.202739 -4.225651,3.531047 -4.912109,5.951172 -0.686927,2.421774 -0.339576,5.13257 1.65625,6.701172 l 0.002,0.002 1.025391,0.792969 1.953124,-0.449219 c 0.723912,-0.167522 1.880488,-0.365758 2.402344,-0.421875 l -0.0293,0.002 c 0.329897,-0.0266 0.637282,-0.06196 0.892579,-0.09961 0.127648,-0.01882 0.242132,-0.03727 0.351562,-0.06055 0.0946,-0.02012 0.177454,-0.02429 0.412109,-0.146485 0.386515,-0.199124 0.598726,-0.632608 0.632813,-0.867187 0.03471,-0.238847 0.0019,-0.365549 -0.02148,-0.466797 -0.04681,-0.202497 -0.102293,-0.305977 -0.160157,-0.417969 -0.115727,-0.223984 -0.257437,-0.430214 -0.439453,-0.650391 -0.520424,-0.629532 -0.900531,-0.637994 -1.246094,-0.789062 -0.07219,-0.03156 -0.106794,-0.04903 -0.167968,-0.07617 -0.06992,-0.251638 -0.135272,-0.522449 -0.101563,-0.824219 0.0432,-0.386712 0.187394,-0.765769 0.226563,-0.841797 0.34495,-0.608899 1.094045,-1.384231 1.433593,-1.560546 l 0.002,-0.002 c 0.08286,-0.04318 0.124019,-0.0095 0.210938,-0.03711 -0.01614,0.05331 -0.05975,0.06455 -0.07422,0.126953 -0.06982,0.301117 0.01126,0.689573 0.06055,0.820313 0.04929,0.130739 0.03927,0.104317 0.03906,0.103515 l 0.002,0.0039 0.002,0.0039 c 0.261258,0.979699 1.14004,1.578711 1.962891,1.728515 0.534013,0.09722 1.072675,5.22e-4 1.589843,-0.189453 -0.07786,0.276535 -0.161066,0.47676 -0.46875,1.072266 -0.187038,0.362003 -0.269748,0.684931 -0.322265,0.867187 -0.02626,0.09113 -0.04949,0.151974 -0.0332,0.113282 0.01629,-0.03869 0.03766,-0.318425 0.570313,-0.511719 -0.197928,0.07183 -0.610632,0.315587 -0.738281,0.800781 -0.127649,0.485195 0.0688,0.808161 0.164062,0.951172 0.190531,0.286023 0.2644,0.293447 0.316406,0.335938 0.05201,0.04249 0.07495,0.0667 0.03711,0.0293 -0.03784,-0.0374 -0.279297,-0.114054 -0.279297,-0.71289 0,0.437439 0.257242,0.7776 0.433594,0.929687 0.176351,0.152088 0.309637,0.208584 0.427734,0.25586 0.236194,0.09455 0.426591,0.128268 0.636719,0.162109 0.297118,0.04785 0.642474,0.05776 0.980469,0.07227 -0.964809,0.555556 -1.835472,1.218939 -2.605469,1.9375 l -2.210938,0.517578 -0.0098,0.0039 c 0.195165,-0.0497 -0.37755,0.03491 -0.939453,0.05078 -0.561903,0.01588 -1.273798,0.01981 -1.984375,0.01172 -1.4896,-0.01696 -3.002415,0.01743 -3.84961,0.166016 -2.597948,0.446949 -4.767517,1.930191 -6.005859,4.136718 v 0.002 c -2.276094,4.078944 -1.577619,8.753612 1.482422,13.019531 -3.217266,-3.112536 -4.877436,-7.172738 -4.324219,-11.175781 0.256441,-1.812637 0.776597,-3.550108 2.070313,-6.671875 v -0.002 l 0.002,-0.002 c 1.079616,-2.636803 1.574652,-3.931869 1.722656,-4.886718 v -0.0078 l 0.002,-0.0098 c 0.0606,-0.439832 -0.09276,-0.757899 -0.222656,-0.97461 -0.04122,-0.06878 -0.09623,-0.11914 -0.140625,-0.179687 0.413088,-0.03069 0.841524,-0.32788 1.017578,-0.580079 0.177765,-0.25465 0.230387,-0.454087 0.28125,-0.642578 0.101726,-0.376981 0.151009,-0.751893 0.234375,-1.248046 0.42116,-2.513329 0.679159,-5.624977 0.662109,-8.210938 v -0.0078 -3.447266 c 1.116635,-1.016218 2.537353,-2.060766 3.986328,-2.640625 h 0.002 v -0.002 c 2.920884,-1.177754 5.117739,-1.417074 13.994141,-1.433594 3.504019,0 7.967821,-0.06408 9.972656,-0.148438 2.809193,-0.119288 3.4266,-0.02883 5.664063,-0.07227 z m -1.947266,2.480469 c -1.837998,2.593936 -3.14879,5.296141 -3.855468,8.978515 l -0.002,0.0039 v 0.0039 c -0.476097,2.566928 -0.565187,5.266693 -0.222656,7.30664 l -0.392532,-0.01366 h -0.002 c -1.052917,-0.03514 -2.623389,-0.0039 -3.644531,0.08594 l -0.351563,0.02734 c 0.152899,-1.622659 0.03787,-4.150964 -0.308594,-5.900391 v -0.0039 c -0.667452,-3.432392 -2.034275,-6.882732 -3.99214,-10.052739 l 3.966797,-0.285156 c 4.021528,-0.149855 6.244712,-0.130757 8.804687,-0.15039 z m 21.109375,2.666015 c 0.0011,9.89e-4 0.0028,9.67e-4 0.0039,0.002 0.0072,0.0057 -0.0094,-0.0065 -0.002,0 z m -11.572265,3.064453 c -2.270925,0.110813 -4.361175,1.013624 -6.011719,2.638672 -0.922392,0.910837 -1.535074,1.860351 -2.339844,3.570313 l -0.04492,0.09375 -0.02734,0.101562 c -0.117503,0.447987 -0.199182,0.667512 -0.277344,0.982422 -0.07816,0.31491 -0.117188,0.675948 -0.117188,1.136719 0,1.469325 0.355977,2.210701 0.830078,3.160156 7.65e-4,0.0016 0.0012,0.0023 0.002,0.0039 0.0014,0.0027 0.0025,0.0051 0.0039,0.0078 0.268338,0.554569 0.42731,0.917681 0.814453,1.302734 0.195215,0.194161 0.574379,0.486977 1.128906,0.425781 0.554527,-0.06119 0.863631,-0.43977 1.003906,-0.666015 l -0.06641,0.09766 c -0.264563,0.341369 -0.34748,0.294375 -0.392578,0.314453 -0.0451,0.02008 -0.04928,0.01815 -0.04102,0.01563 0.01653,-0.005 0.0903,-0.02443 0.183594,-0.04297 0.186594,-0.03708 0.46547,-0.07662 0.748047,-0.09766 l 2.140625,-0.136718 1.458984,-2.214844 -0.634765,-0.652344 c -0.01632,-0.01682 -0.260688,-0.418552 -0.396485,-0.830078 -0.134668,-0.40811 -0.203911,-0.88815 -0.205078,-0.939453 0.01238,-0.831639 0.386883,-1.270142 1.101563,-1.65625 -0.07432,0.235665 -0.248219,0.433533 -0.257813,0.6875 -0.02301,0.609061 0.193594,1.29782 0.710938,1.792969 0.361641,0.351641 0.863642,0.486388 1.240234,0.478515 0.382551,-0.008 0.690306,-0.107311 0.974609,-0.222656 0.141928,-0.05758 0.231584,-0.148593 0.363282,-0.216797 -0.275264,0.554332 -0.700257,1.209472 -0.986328,1.519531 l -0.271485,0.294922 -0.134765,2 h 1.859375 c -0.09996,0 0.429457,0.04921 0.970703,0.150391 0.541246,0.101184 1.2146,0.24369 1.871094,0.396484 l -0.01172,-0.0039 c 0.692447,0.169645 1.341462,0.310142 1.849609,0.402344 0.254074,0.0461 0.469568,0.08054 0.660156,0.101562 0.09529,0.01051 0.180126,0.01903 0.292969,0.01953 0.05642,2.52e-4 0.119371,-0.0011 0.220703,-0.01563 0.08905,-0.01278 0.248726,-0.04486 0.492188,-0.207031 0.358615,-0.23542 0.50625,-0.466456 0.638672,-0.697265 0.141529,-0.246684 0.254498,-0.50892 0.357422,-0.792969 0.205847,-0.568099 0.363178,-1.21512 0.425781,-1.861328 h 0.002 c 0.165553,-1.722253 -0.252702,-3.779458 -1.091797,-5.404297 v -0.002 C 78.770266,63.44174 76.096008,61.528683 73.320659,61.026307 h -0.002 c -0.787634,-0.141488 -1.56529,-0.193187 -2.322265,-0.15625 z m 1.921875,2.388672 c 1.956044,0.355071 4.25011,2.029985 5.097656,3.683594 l 0.002,0.002 v 0.002 c 0.5903,1.142493 0.956372,3.037778 0.849609,4.148438 -0.03972,0.407832 -0.16406,0.921974 -0.302734,1.304687 -0.02264,0.06247 -0.03981,0.08822 -0.0625,0.142578 -0.02628,-0.0046 -0.0349,-0.0048 -0.0625,-0.0098 -0.445147,-0.08077 -1.062463,-0.213218 -1.714844,-0.373047 h -0.0059 l -0.0078,-0.002 c -0.688334,-0.160206 -1.384515,-0.30716 -1.966797,-0.416016 -0.118773,-0.0222 -0.18104,-0.0196 -0.283203,-0.03906 0.177415,-0.293366 0.403313,-0.528935 0.546875,-0.835938 0.188755,-0.403646 0.342228,-0.796909 0.416016,-1.236328 0.03689,-0.21971 0.0581,-0.456322 0.0059,-0.744141 -0.05224,-0.287818 -0.21343,-0.664267 -0.541015,-0.919921 l 0.271484,0.308593 c -0.02854,-0.04717 -0.147376,-0.378499 -0.570312,-0.699219 -0.422937,-0.320719 -1.188843,-0.390935 -1.72461,-0.173828 l -0.142578,0.05859 -0.121094,0.09375 c -0.190379,0.145864 -0.396076,0.250263 -0.601562,0.367188 0.131313,-0.162369 0.245877,-0.325106 0.333984,-0.539063 0.08946,-0.21724 0.115235,-0.491989 0.115235,-0.595703 0,-0.273565 -0.03587,-0.580989 -0.19336,-0.910156 -0.157491,-0.329168 -0.475773,-0.664579 -0.859375,-0.828125 -0.767202,-0.327093 -1.482941,-0.123186 -2.294922,0.240234 l -0.0098,0.0039 -0.0078,0.0039 c -1.426248,0.669809 -2.575282,2.048768 -2.597656,3.824218 v 0.0059 0.0078 c 0,0.548696 0.126362,1.070443 0.320312,1.658203 0.09097,0.27569 0.304377,0.528153 0.433594,0.796875 l -1.009765,0.06445 h -0.0059 c -0.381325,0.02839 -0.731431,0.07712 -1.021484,0.134765 -0.01061,0.0021 -0.01887,0.0057 -0.0293,0.0078 -0.06524,-0.111913 -0.04614,-0.06766 -0.125,-0.230469 l -0.0039,-0.0078 -0.002,-0.0059 c -0.510157,-1.02143 -0.597657,-0.932219 -0.597657,-2.158203 0,-0.362913 0.01247,-0.435479 0.05078,-0.589844 0.03235,-0.13034 0.124792,-0.4302 0.228515,-0.80664 0.73732,-1.559395 1.119505,-2.148232 1.853516,-2.873047 1.714357,-1.687166 3.805286,-2.320535 6.339844,-1.865235 z m -31.439453,0.533203 h 0.002 c 2.013466,0.604687 4.244489,2.234877 5.24414,4.337891 v 0.002 l 0.002,0.002 c 0.468743,0.97885 0.608332,3.144795 0.251954,4.097656 -5.09e-4,-3.06e-4 -0.117742,0.180663 -0.277344,0.328126 -0.08031,0.0742 -0.164093,0.143957 -0.242188,0.207031 -0.01792,0.01448 -0.05973,0.05799 -0.07227,0.06445 -0.05057,0.01113 -0.111727,0.02546 -0.22461,0.03906 -0.290638,0.03502 -0.716056,0.05364 -1.125,0.04883 -0.231081,-0.0027 -0.394474,-0.02518 -0.59375,-0.04102 0.278457,-0.527798 0.857422,-1.262569 0.857422,-2.433594 0,-0.755804 -0.01172,-1.489791 -0.78125,-2.050781 -0.384765,-0.280495 -0.923718,-0.334231 -1.298828,-0.244141 -0.37511,0.09009 -0.649283,0.261645 -0.90625,0.457031 l -0.0039,0.002 -0.0039,0.0039 c -0.137547,0.106486 -0.424138,0.170442 -0.609374,0.136719 -0.14208,-0.02587 -0.128659,-0.03886 -0.136719,-0.06055 0.03031,-0.04168 -0.0186,0.05644 0.189453,-0.216797 l 0.002,-0.002 0.002,-0.002 c 0.323068,-0.428765 0.470094,-1.222194 0.158203,-1.765625 -0.311891,-0.543432 -0.776281,-0.736794 -1.193359,-0.847657 -0.834156,-0.221724 -1.761996,-0.111939 -2.677734,0.365235 -1.054139,0.547378 -1.833559,1.505753 -2.376954,2.476562 l -0.0059,0.0098 -0.0059,0.0098 c -0.235192,0.440978 -0.404202,0.98522 -0.480469,1.667968 -0.07627,0.682748 -0.04399,1.494419 0.333984,2.291016 l 0.01563,0.0332 0.01953,0.0332 c 0.13615,0.24469 0.187757,0.168273 0.287109,0.25 -0.507521,0.08687 -0.984012,0.14701 -1.4375,0.251953 l -0.90625,0.208985 -0.164063,-0.126954 -0.002,-0.002 c -1.083656,-0.853473 -1.390173,-2.473734 -0.873047,-4.296875 0.517461,-1.82432 1.874717,-3.653679 3.708985,-4.527343 h 0.0039 l 0.002,-0.002 c 0.519309,-0.251275 1.406139,-0.580325 1.761719,-0.683594 0.763009,-0.203109 3.002973,-0.1806 3.556641,-0.02148 z m -1.533204,3.306641 c -0.0018,0.0024 -0.0021,0.0035 -0.0039,0.0059 6.9e-5,-9.5e-5 -6.7e-5,-0.0019 0,-0.002 z m 17.583985,8.035156 c 2.492977,0.179309 3.394868,0.320419 5.130859,0.816406 2.563917,0.745077 4.524481,1.924642 5.732422,3.335938 0.586969,0.686714 1.103968,1.258916 1.621094,1.683594 0.258563,0.212339 0.506894,0.400704 0.886718,0.529297 0.375398,0.127093 1.074686,0.08801 1.496094,-0.304688 0.244079,-0.232938 0.382902,-0.57083 0.40625,-0.816406 0.02409,-0.253338 -0.01712,-0.431148 -0.05859,-0.574219 -0.08294,-0.286141 -0.189911,-0.465194 -0.292968,-0.640625 -0.109211,-0.185906 -0.152387,-0.247126 -0.240235,-0.382812 1.114966,0.106793 2.066015,0.304411 3.623047,0.24414 2.139353,-0.08151 2.826895,-0.04774 3.56836,0.121094 h 0.0039 0.002 c 3.403719,0.759019 6.130048,3.87613 6.699219,7.835937 0.434939,3.148451 -1.338402,6.357105 -5.277344,8.882813 -2.146479,1.354653 -4.587952,2.385563 -9.962891,4.275392 -0.01338,-0.0457 0.01583,-0.0655 -0.0039,-0.11329 l -0.0078,-0.0195 -0.0098,-0.0215 c -0.09222,-0.20082 -0.20837,-0.3759 -0.390625,-0.54492 -0.182255,-0.16902 -0.451874,-0.37891 -0.929688,-0.37891 -0.584131,0 -0.739314,0.17382 -0.988281,0.31641 -0.248966,0.14259 -0.496815,0.31408 -0.753906,0.51172 -0.514182,0.39527 -1.052165,0.88319 -1.494141,1.38867 l -0.002,0.004 -0.0039,0.002 c -0.376793,0.43755 -1.4103,1.53956 -2.21875,2.33789 l -0.0059,0.006 -0.0059,0.006 c -1.667225,1.69328 -1.753218,1.72391 -4.158203,2.04492 l 0.002,-0.002 c -2.233609,0.29409 -6.943359,0.0196 -10.318359,-0.6621 -0.878305,-0.17708 -1.674129,-0.73483 -3.501953,-2.85743 l -0.002,-0.002 v -0.002 c -1.2114,-1.39521 -1.993075,-2.27927 -2.533203,-2.84571 -0.270065,-0.28321 -0.475297,-0.48546 -0.685547,-0.656246 -0.21025,-0.170784 -0.397234,-0.412109 -1.009766,-0.412109 -0.32334,0 -0.84724,0.09196 -1.195313,0.554685 -0.343853,0.45712 -0.293498,0.95068 -0.216796,1.26367 -1.471377,-0.57624 -2.919613,-1.05949 -4.34961,-1.812496 -2.303113,-1.212776 -4.31759,-2.610073 -4.90625,-3.289062 v -0.002 c -3.603539,-4.141434 -4.262511,-8.16361 -2.199125,-11.863524 l 0.002,-0.002 c 0.906725,-1.613956 2.412886,-2.666156 4.410156,-3.009765 h 0.002 0.002 c 0.276826,-0.04871 2.030768,-0.148783 3.433594,-0.132813 0.662955,0.0075 1.302979,0.0033 1.869141,-0.0098 -0.04869,0.139694 -0.132598,0.254682 -0.169922,0.398437 -0.07454,0.287085 -0.135609,0.572281 -0.101563,0.947266 0.03405,0.374984 0.305281,1.037082 0.914063,1.263672 l 0.0078,0.002 0.0078,0.002 c 0.376287,0.134156 0.73941,0.0573 0.958984,-0.03516 0.219574,-0.09246 0.354414,-0.198642 0.472656,-0.300782 0.236486,-0.204278 0.404754,-0.414288 0.583985,-0.652343 0.355893,-0.472699 0.716727,-1.052364 1.074218,-1.628907 0.482047,-0.758042 2.044066,-2.154888 3.50586,-2.958984 l 0.002,-0.002 0.0039,-0.002 c 1.261849,-0.703472 4.358592,-1.537523 7.251953,-1.822266 h 0.002 0.002 c 1.956354,-0.197552 1.797712,-0.194833 4.316407,-0.01367 z"
         id="path4"
         inkscape:connector-curvature="0"
         sodipodi:nodetypes="scccssccccccccccccscccccccccsccsccccccccccsscccccccccccccccccccccccsscccsccccccccccccccccccccccccccccccscsscccscccccccccccccccsccscssscccccccccccccccccccccccccccccccccccccccccscsccccccccccsccsccccccccccsccccccsccccccssscccccccccsccccccccccsccccccccccccccscsccccccccccccccccccsccccccccccccscccccccccccccccccccccssccccccccccccscccsccccccccscccccccccccccccccscccccccsscccccccccccccccccccccsccsccccccccscccccccccccccsccccccccccccccccscccccccccccccccccccccccccccccccscccsccsccccccccccccsccccccccccccccccccccccccccccccccccccccccccccccccccscccccccccccccccccccccccccscccccsccscccccccccscccccccccccccssccccccccccccccccccccccccccccccccccccscccscccccccccccccccccccccccccccccccccccccccccccccccccccccsccccccccccscccccccscccccccccscccccccccccccccccsssccccccccsccccccccccccccscccccccccccccscccsccccccccccccssccccccccccccccccscccccccccccccccccsccccccccccc" />
      <path
         style="color:#000000;font-style:normal;font-variant:normal;font-weight:normal;font-stretch:normal;font-size:medium;line-height:normal;font-family:sans-serif;font-variant-ligatures:normal;font-variant-position:normal;font-variant-caps:normal;font-variant-numeric:normal;font-variant-alternates:normal;font-feature-settings:normal;text-indent:0;text-align:start;text-decoration:none;text-decoration-line:none;text-decoration-style:solid;text-decoration-color:#000000;letter-spacing:normal;word-spacing:normal;text-transform:none;writing-mode:lr-tb;direction:ltr;text-orientation:mixed;dominant-baseline:auto;baseline-shift:baseline;text-anchor:start;white-space:normal;shape-padding:0;clip-rule:nonzero;display:inline;overflow:visible;visibility:visible;opacity:1;isolation:auto;mix-blend-mode:normal;color-interpolation:sRGB;color-interpolation-filters:linearRGB;solid-color:#000000;solid-opacity:1;vector-effect:none;fill:#000000;fill-opacity:1;fill-rule:nonzero;stroke:none;stroke-width:2.26771641;stroke-linecap:butt;stroke-linejoin:miter;stroke-miterlimit:4;stroke-dasharray:none;stroke-dashoffset:0;stroke-opacity:1;color-rendering:auto;image-rendering:auto;shape-rendering:auto;text-rendering:auto;enable-background:accumulate"
         d="m 17.760113,46.391542 c -0.584971,0.0015 -1.090098,0.125462 -1.603516,0.314453 -0.0011,3.92e-4 -0.0028,-3.93e-4 -0.0039,0 -0.920286,0.33134 -1.725633,0.929834 -2.171875,1.783203 -0.300679,0.556177 -0.375182,1.102706 -0.369141,1.640625 0.0061,0.541104 -0.07804,1.106895 0.667969,1.714844 l 0.002,0.002 0.002,0.002 c 0.222542,0.179465 0.503731,0.334824 0.857422,0.380859 0.353691,0.04604 0.770826,-0.05765 1.0625,-0.271484 0.583347,-0.427668 0.693359,-1.0239 0.693359,-1.552734 0,-0.330276 0.04895,-0.415818 0.01172,-0.34375 -0.03724,0.07207 -0.139777,0.118271 0.0332,0.03711 l 0.01953,-0.0098 0.01953,-0.0098 c 0.233212,-0.120366 0.181584,-0.138668 0.757812,-0.05469 0.576228,0.08398 1.628043,0.354863 3.416016,0.863281 h 0.002 c 2.514388,0.711763 4.096293,1.121736 5.167969,1.279297 0.535837,0.07878 0.922619,0.149695 1.472656,-0.0293 0.275019,-0.08949 0.639665,-0.31486 0.833984,-0.683593 0.19432,-0.368733 0.174861,-0.743592 0.121094,-0.992188 l -0.002,-0.0059 -0.002,-0.0078 C 28.650232,50.02053 28.476904,49.889388 28.350004,49.764582 28.223104,49.639776 28.10451,49.552492 27.976957,49.46966 27.72464,49.305806 27.441289,49.168921 27.121489,49.05755 25.445644,48.444476 23.397953,47.786828 21.646879,47.278254 20.769746,47.023502 19.96848,46.807079 19.318754,46.6513 18.673877,46.496684 18.3077,46.382335 17.760161,46.391535 Z m -1.78125,1.652343 c -0.007,0.0033 -0.0125,0.01421 -0.01953,0.01758 -0.0049,0.0025 -0.01466,-5.62e-4 -0.01953,0.002 z"
         id="path6"
         inkscape:connector-curvature="0" />
      <path
         style="fill:#000000;stroke:none;stroke-width:2.26771641;stroke-miterlimit:4;stroke-dasharray:none"
         inkscape:connector-curvature="0"
         id="path8"
         d="m 53.828546,77.700685 c -1.872545,0.131789 -4.630293,0.626 -5.958099,1.054316 -1.95766,0.642474 -2.468355,1.153159 -2.468355,2.504001 0,1.334369 0.64688,2.520475 2.195986,4.003107 1.515059,1.449686 2.706678,2.158055 4.715409,2.833476 1.378874,0.461264 1.617198,0.494211 3.455698,0.428316 1.872544,-0.04942 2.042776,-0.08237 3.319512,-0.675421 2.893933,-1.334369 5.549543,-4.10195 6.07726,-6.342372 0.697949,-2.89937 -3.728068,-4.382003 -11.337411,-3.805423 z m 7.326119,2.329602 c 0.476649,0.164737 1.06185,0.264254 1.300173,0.428991 0.492686,0.333697 0.499636,0.77669 0.326997,1.321614 -0.289393,0.06589 -1.130796,-0.06753 -1.624466,-0.166372 -0.493671,-0.08237 -2.254388,-0.335813 -3.565169,-0.434655 -3.268443,-0.280052 -6.648025,0.249153 -8.571639,0.957523 -0.783065,0.296526 -1.701023,-0.860714 -1.156283,-1.305504 0.59581,-0.461264 2.377071,-0.847797 4.283663,-1.160797 1.974684,-0.345947 7.849151,-0.01969 9.006724,0.3592 z"
         sodipodi:nodetypes="ccsccccccccccccccc" />
      <path
         style="color:#000000;font-style:normal;font-variant:normal;font-weight:normal;font-stretch:normal;font-size:medium;line-height:normal;font-family:sans-serif;font-variant-ligatures:normal;font-variant-position:normal;font-variant-caps:normal;font-variant-numeric:normal;font-variant-alternates:normal;font-feature-settings:normal;text-indent:0;text-align:start;text-decoration:none;text-decoration-line:none;text-decoration-style:solid;text-decoration-color:#000000;letter-spacing:normal;word-spacing:normal;text-transform:none;writing-mode:lr-tb;direction:ltr;text-orientation:mixed;dominant-baseline:auto;baseline-shift:baseline;text-anchor:start;white-space:normal;shape-padding:0;clip-rule:nonzero;display:inline;overflow:visible;visibility:visible;opacity:1;isolation:auto;mix-blend-mode:normal;color-interpolation:sRGB;color-interpolation-filters:linearRGB;solid-color:#000000;solid-opacity:1;vector-effect:none;fill:#000000;fill-opacity:1;fill-rule:nonzero;stroke:none;stroke-width:2.26771641;stroke-linecap:butt;stroke-linejoin:miter;stroke-miterlimit:4;stroke-dasharray:none;stroke-dashoffset:0;stroke-opacity:1;color-rendering:auto;image-rendering:auto;shape-rendering:auto;text-rendering:auto;enable-background:accumulate"
         d="m 75.172222,82.473573 c -0.655037,0 -0.683729,0.199273 -0.806641,0.291016 -0.122912,0.09174 -0.216656,0.177535 -0.314453,0.273437 -0.195593,0.191804 -0.393665,0.416127 -0.591797,0.660156 l -0.0059,0.0078 -0.0059,0.0078 c -0.416079,0.530764 -1.131053,1.574492 -1.683594,2.464844 -0.808807,1.276639 -1.276115,1.883935 -1.816406,2.279297 -0.540292,0.395362 -1.305712,0.683009 -2.832032,1.109375 -2.714742,0.745929 -5.356606,1.04138 -7.201172,0.847656 l 0.0039,0.002 c -0.835151,-0.09064 -1.582533,-0.197351 -2.138672,-0.298828 -0.134496,-0.02454 -0.212793,-0.04503 -0.322266,-0.06836 -0.0016,-0.05882 -0.0044,-0.08949 -0.0059,-0.152344 -0.01217,-0.525344 -0.01604,-1.14722 -0.07813,-1.667969 l -0.0078,-0.0625 -0.01367,-0.0625 c -0.0334,-0.141426 -0.07403,-0.306649 -0.236328,-0.53125 -0.162294,-0.224601 -0.567219,-0.496003 -0.943359,-0.509765 -0.204002,-0.0075 -0.144239,0.07641 -0.267578,0.109375 -0.168621,-0.149645 -0.372403,-0.336929 -0.712891,-0.337891 -0.428336,-0.0012 -0.707111,0.217844 -0.839844,0.351563 -0.132733,0.133719 -0.185669,0.230304 -0.230468,0.3125 -0.0896,0.164391 -0.129853,0.287668 -0.179688,0.439453 l -0.05469,0.166015 -0.02148,2.003907 -0.671875,0.189453 h -0.002 C 47.700289,91.864216 43.144524,90.680368 38.902526,86.54586 h -0.002 l -0.677734,-0.65625 c 0.0023,-0.0043 0.0055,-0.0054 0.0078,-0.0098 0.162939,-0.315362 0.221619,-0.79652 0.07617,-1.183594 l -0.0039,-0.0098 -0.0039,-0.0098 c -0.09115,-0.229349 -0.305074,-0.505436 -0.537109,-0.65625 -0.232036,-0.150814 -0.440931,-0.203761 -0.623047,-0.238281 -0.364233,-0.06904 -0.69263,-0.06836 -1.191406,-0.06836 -0.573732,0 -0.918769,-0.03013 -1.400391,0.113282 -0.478606,0.14251 -0.838557,0.505555 -1.054688,0.755859 -6.24e-4,7.15e-4 -0.0013,0.0012 -0.002,0.002 -0.271269,0.311113 -0.4756,0.627833 -0.597656,1 -0.122336,0.373023 -0.18956,0.870775 0.125,1.373047 0.31456,0.502272 0.984691,0.700444 1.425781,0.648437 0.256866,-0.03029 0.443022,-0.170483 0.650391,-0.273437 1.306559,1.923832 2.712754,3.33137 4.925781,4.720703 0.892185,0.562745 1.205414,0.758221 1.695313,1.306641 0.489898,0.54842 1.172793,1.51816 2.509765,3.447265 2.407304,3.494388 3.435379,4.938248 4.523438,5.724598 0.584209,0.43082 1.329987,0.72277 2.289062,0.86133 0.960779,0.13882 2.187147,0.17189 4.039063,0.16407 2.793275,-9e-5 3.693105,-0.0616 5.023437,-0.37109 h 0.002 c 1.744135,-0.3869 2.915653,-0.83551 3.890625,-1.55664 h 0.002 c 0.646513,-0.47482 1.035363,-1.08997 1.710938,-2.099607 0.676559,-1.011118 1.502737,-2.359961 2.455078,-4.007817 l 0.002,-0.002 c 0.759452,-1.308971 1.256599,-2.08866 1.636719,-2.544922 0.380459,-0.456668 0.608087,-0.616618 1.109375,-0.869141 l 0.0078,-0.002 0.0059,-0.0039 c 1.583298,-0.822152 2.896963,-2.300453 4.023437,-4.332031 h 0.002 c 0.233689,-0.42214 0.475796,-0.842687 0.675781,-1.175781 0.05683,-0.09466 0.05294,-0.08543 0.105469,-0.167969 0.215012,0.09129 0.385445,0.272498 0.648437,0.27539 0.273956,0.003 0.611059,-0.05292 0.929687,-0.302734 0.318629,-0.249816 0.521485,-0.714695 0.521485,-1.083984 0,-0.498281 -0.161683,-0.778524 -0.318359,-1.054688 -0.156632,-0.27604 -0.343436,-0.525734 -0.550737,-0.757689 C 76.75203,83.268961 76.528392,83.0578 76.269878,82.873964 76.011365,82.690127 75.749535,82.473573 75.172222,82.473573 Z m -19.328125,9.433594 c 7.26e-4,4.11e-4 0.0012,-4.11e-4 0.002,0 2.59e-4,1.48e-4 -2.58e-4,0.0018 0,0.002 0.0048,0.0027 9.71e-4,0.0032 0.0059,0.0059 l -0.0098,-0.0059 z m -12.259766,0.1875 c 0.06043,0.02252 0.119067,0.05248 0.179688,0.07422 -0.0245,0.0234 -0.02506,0.07528 -0.04883,0.103516 -0.03273,-0.0392 -0.09853,-0.140056 -0.13086,-0.177734 z m 19.970703,0.488281 c 0.0459,0.639064 0.0928,1.310603 0.09375,1.310547 -0.01701,0.0014 -0.04835,0.0067 -0.15039,-0.0078 -0.107328,-0.01526 -0.346017,-0.01103 -0.652344,-0.353515 -0.233629,-0.261208 -0.177907,-0.626879 -0.140625,-0.916016 0.294078,-0.02357 0.547217,0.0034 0.849609,-0.0332 z m -1.582031,0.04687 c -0.0895,0.06848 -0.157154,0.08314 -0.277344,0.230469 l -0.0098,0.01172 -0.0078,0.01172 c -0.048,0.06193 -0.06002,0.0984 -0.101562,0.158203 -0.04665,-0.09014 -0.03609,-0.169482 -0.09961,-0.259765 l -0.002,-0.0039 -0.002,-0.002 c -0.03092,-0.04339 -0.125804,-0.08588 -0.166016,-0.134765 0.220162,-8.1e-4 0.439219,-0.0023 0.666016,-0.01172 z m -11.666016,0.400391 c -0.0098,0.04846 -0.02343,0.115163 -0.02344,0.115234 -7e-6,2.34e-4 0.06242,0.402111 0.0625,0.402344 5e-6,1.3e-5 0.0087,0.0156 0.0098,0.01758 -0.01734,0.06634 -0.04505,0.120796 -0.05664,0.183594 -0.07437,-0.09686 -0.177262,-0.213226 -0.226562,-0.283203 -0.106958,-0.158707 -0.261299,-0.219275 -0.390626,-0.335938 0.204427,-0.0096 0.419182,-0.08233 0.625,-0.09961 z m 5.279297,0.25 c 0.01895,0.0024 0.01383,0.0015 0.03906,0.0059 0.156044,0.0271 0.411823,0.09154 0.683594,0.183594 l 0.0039,0.002 h 0.0039 c 0.760749,0.251856 1.784431,0.444787 2.574219,0.517578 l 0.0059,0.002 h 0.0059 c 0.553332,0.0459 0.81891,0.100849 0.783203,0.08789 -0.03571,-0.01296 -0.191574,-0.170186 -0.06055,0.01367 l -0.0039,-0.0059 c -0.01536,-0.02183 0.01842,0.07699 0.01367,0.482422 -0.0024,0.202718 -0.05266,0.480536 0.166015,0.935547 0.218671,0.455011 0.910995,0.814453 1.357422,0.814453 0.522447,0 0.913299,-0.247153 1.167969,-0.46875 0.254669,-0.221597 0.422456,-0.449918 0.570312,-0.666015 0.289459,-0.423055 0.524686,-0.841294 0.560547,-0.892579 -0.08673,0.105615 -0.04481,0.0496 0.05664,-0.01563 0.112102,-0.07207 0.268435,-0.163501 0.421875,-0.255859 0.06761,-0.04069 0.162668,-0.124751 0.228515,-0.164063 0.259626,-0.02018 0.560828,-0.04544 0.820313,-0.08008 h 0.002 0.0039 c 0.02066,-0.0029 0.07922,-0.0095 0.101563,-0.01172 -0.06795,0.124944 -0.138244,0.256979 -0.197266,0.361328 -0.09675,0.171043 -0.221836,0.350565 -0.148437,0.255859 l -0.0293,0.03906 -0.02734,0.04102 c -0.164263,0.254325 -0.562796,0.928089 -1.054687,1.726563 l -0.002,0.002 c -0.521885,0.854108 -0.86401,1.5156 -1.117187,1.970703 -0.264635,-0.104853 -0.492831,-0.268295 -0.794922,-0.365234 -0.675075,-0.216629 -1.42193,-0.409612 -2.09375,-0.56836 -0.0019,-4.61e-4 -0.004,4.61e-4 -0.0059,0 -1.297998,-0.321678 -1.943497,-0.343212 -4.076172,-0.265625 -2.491369,0.0707 -4.212044,0.768838 -5.740235,1.605469 l -0.226562,-0.324219 -0.429688,-0.503906 -0.01172,-0.01172 c 0.03595,0.03976 -0.32772,-0.426863 -0.699219,-0.947265 -0.371499,-0.520403 -0.829677,-1.17712 -1.273438,-1.820313 -0.115062,-0.166773 -0.197111,-0.290393 -0.308593,-0.453125 0.302642,0.02664 0.671388,0.05398 0.880859,0.0918 0.403177,0.07278 0.473137,0.161563 0.455078,0.134766 l 0.0059,0.0098 0.0059,0.0078 c 0.198082,0.282965 0.50351,0.682858 0.849609,1.058594 0.17305,0.187867 0.351414,0.367422 0.566406,0.535156 0.214993,0.167734 0.419501,0.410156 1.044922,0.410156 0.578516,0 1.186125,-0.499666 1.371094,-0.880859 0.18497,-0.381194 0.209761,-0.667922 0.244141,-0.923829 0.06807,-0.506672 0.196065,-0.878825 0.121093,-0.78125 0.494667,-0.09485 0.998452,-0.195164 1.582032,-0.355468 0.39838,-0.109432 0.782648,-0.223651 1.107422,-0.330078 0.188021,-0.06162 0.343463,-0.142133 0.496093,-0.203125 z m 0.03125,5.947274 h 0.0059 0.0039 c 2.124612,-0.0773 2.258263,-0.0958 3.455078,0.20117 l 0.0059,0.002 0.0059,0.002 c 0.63869,0.15075 1.347818,0.33547 1.933594,0.52343 0.325638,0.104497 0.395579,0.153277 0.595703,0.244137 -0.543974,0.26585 -0.953677,0.53877 -2.023438,0.77539 l -0.0059,0.002 -0.0059,0.002 c -1.198367,0.2789 -1.741398,0.31055 -4.515624,0.31055 h -0.0039 -0.002 c -1.81582,0.008 -2.976136,-0.0353 -3.705078,-0.14063 -0.571902,-0.0826 -0.761543,-0.20671 -0.996094,-0.34766 1.464719,-0.883197 2.832644,-1.507337 5.251953,-1.574207 z"
         id="path10"
         inkscape:connector-curvature="0" />
      <path
         inkscape:connector-curvature="0"
         id="path891"
         d="m 62.952978,52.51263 c -0.311268,-0.0072 -0.926011,-3.08e-4 -2.1167,0.01172 -1.363106,0.01377 -2.909394,0.04235 -3.449706,0.06592 -0.526118,0.02295 -1.972892,0.05699 -3.203613,0.07471 -0.616185,0.0089 -1.175623,0.01842 -1.582031,0.02637 -0.203204,0.004 -0.368908,0.0072 -0.483399,0.01025 -0.05725,0.0015 -0.101887,0.0032 -0.1333,0.0044 -0.01571,6.21e-4 -0.02754,7.81e-4 -0.03809,0.0015 -0.0053,3.42e-4 -0.01,5.89e-4 -0.01758,0.0015 -0.0038,4.38e-4 -0.0064,0.002 -0.01758,0.0044 -0.0056,0.0012 -0.03064,0.0087 -0.03076,0.0088 -6.2e-5,2.6e-5 -0.04245,0.02634 -0.04248,0.02637 -3.1e-5,2.6e-5 0.105468,-0.03955 0.105468,-0.03955 0,3.97e-4 -0.166413,0.19203 -0.165527,0.197754 8.86e-4,0.0057 0.0022,0.0098 0.0029,0.01318 0.0015,0.0068 0.0031,0.01144 0.0044,0.01611 0.0026,0.0094 0.0041,0.01824 0.0073,0.02783 0.0064,0.01918 0.01453,0.04123 0.02344,0.06445 0.01306,0.03404 0.04386,0.08601 0.09082,0.118653 0.04696,0.03264 0.09473,0.0431 0.13916,0.04834 0.08886,0.01049 0.186649,0.0033 0.357422,-0.0088 0.755773,-0.05338 4.064052,-0.125552 7.311035,-0.156739 1.534436,-0.01474 2.368613,-0.02438 2.840331,-0.03955 0.235859,-0.0076 0.381199,-0.0163 0.483398,-0.0293 0.102201,-0.01299 0.173739,-0.03454 0.227051,-0.06592 0.02007,-0.01181 0.03971,-0.0095 0.08496,-0.07178 0.02263,-0.03112 0.05015,-0.119942 0.01611,-0.1875 -0.03403,-0.06756 -0.07744,-0.08112 -0.102538,-0.09082 -0.0502,-0.0194 -0.07917,-0.0195 -0.125977,-0.02344 -0.0468,-0.0039 -0.106753,-0.007 -0.18457,-0.0088 z"
         style="color:#000000;font-style:normal;font-variant:normal;font-weight:normal;font-stretch:normal;font-size:medium;line-height:normal;font-family:sans-serif;font-variant-ligatures:normal;font-variant-position:normal;font-variant-caps:normal;font-variant-numeric:normal;font-variant-alternates:normal;font-feature-settings:normal;text-indent:0;text-align:start;text-decoration:none;text-decoration-line:none;text-decoration-style:solid;text-decoration-color:#000000;letter-spacing:normal;word-spacing:normal;text-transform:none;writing-mode:lr-tb;direction:ltr;text-orientation:mixed;dominant-baseline:auto;baseline-shift:baseline;text-anchor:start;white-space:normal;shape-padding:0;clip-rule:nonzero;display:inline;overflow:visible;visibility:visible;opacity:1;isolation:auto;mix-blend-mode:normal;color-interpolation:sRGB;color-interpolation-filters:linearRGB;solid-color:#000000;solid-opacity:1;vector-effect:none;fill:#000000;fill-opacity:1;fill-rule:nonzero;stroke:none;stroke-width:0.34031761;stroke-linecap:butt;stroke-linejoin:round;stroke-miterlimit:4;stroke-dasharray:none;stroke-dashoffset:0;stroke-opacity:1;paint-order:normal;color-rendering:auto;image-rendering:auto;shape-rendering:auto;text-rendering:auto;enable-background:accumulate" />
      <path
         style="fill:#000000;fill-opacity:1;stroke:#000000;stroke-width:0.03008011;stroke-linejoin:round;stroke-miterlimit:4;stroke-dasharray:none;stroke-opacity:1;paint-order:normal"
         d=""
         id="path899"
         inkscape:connector-curvature="0" />
    </g>
    <path
       inkscape:connector-curvature="0"
       id="path901"
       d="m 28.0885,97.802089 c -0.729962,-0.588143 -1.420193,-1.238955 -2.077761,-1.959113 l -0.05813,-0.06367 -1.53e-4,-1.634519 -1.54e-4,-1.634513 1.714104,1.43e-4 1.714104,1.42e-4 0.02557,0.0426 c 0.437901,0.730283 1.017083,1.523843 1.657555,2.271075 0.05252,0.06127 0.108965,0.12753 0.12542,0.147225 0.01646,0.01973 0.07021,0.07618 0.119453,0.125513 0.615978,0.617159 2.06845,1.624289 3.65004,2.530897 l 0.05868,0.03368 v 0.10446 0.10446 H 31.59528 28.173331 l -0.08485,-0.0684 z m 0.372402,-2.833575 c -0.04267,-0.06113 -0.04291,-0.06135 -0.05354,-0.04852 -0.0044,0.0053 1.14e-4,0.01148 0.03226,0.0438 0.02058,0.02062 0.03894,0.03757 0.04081,0.03757 0.0019,0 -0.0069,-0.01478 -0.01953,-0.03285 z"
       style="fill:#000000;fill-opacity:1;stroke:#000000;stroke-width:0.03008011;stroke-linejoin:round;stroke-miterlimit:4;stroke-dasharray:none;stroke-opacity:1;paint-order:normal" />
    <path
       inkscape:connector-curvature="0"
       id="path903"
       d="m 43.656735,92.186052 c -0.03179,-0.0444 -0.05303,-0.07884 -0.0472,-0.07658 0.02438,0.0095 0.138165,0.05693 0.14061,0.05858 0.0025,0.0015 -0.031,0.09868 -0.03413,0.09868 -8.25e-4,0 -0.0275,-0.0363 -0.05929,-0.08069 z"
       style="fill:#000000;fill-opacity:1;stroke:#000000;stroke-width:0.06016023;stroke-linejoin:round;stroke-miterlimit:4;stroke-dasharray:none;stroke-opacity:1;paint-order:normal" />
    <path
       inkscape:connector-curvature="0"
       id="path905"
       d="m 50.139602,93.532759 c -0.08808,-0.111142 -0.210147,-0.233745 -0.285938,-0.287197 -0.07274,-0.0513 -0.129894,-0.09536 -0.127018,-0.09791 0.008,-0.0067 0.500888,-0.0996 0.530675,-0.0996 0.01592,0 0.02653,0.04162 0.02725,0.10692 6.51e-4,0.0588 0.014,0.17847 0.02967,0.265913 0.02122,0.118395 0.02218,0.17772 0.0037,0.232395 l -0.02472,0.07343 z"
       style="fill:#000000;fill-opacity:1;stroke:#000000;stroke-width:0.1701588;stroke-linejoin:round;stroke-miterlimit:4;stroke-dasharray:none;stroke-opacity:1;paint-order:normal" />
    <path
       inkscape:connector-curvature="0"
       id="path907"
       d="M 63.387144,93.857817 C 63.14622,93.810487 62.846875,93.574782 62.75324,93.358722 62.69503,93.224397 62.67258,92.993757 62.69623,92.772957 l 0.01554,-0.145103 0.409368,-0.012 c 0.225152,-0.0067 0.413166,-0.0085 0.417809,-0.0037 0.0089,0.0083 0.09072,1.072103 0.09207,1.197203 7.34e-4,0.06817 -0.0042,0.07297 -0.07238,0.07072 -0.04024,-0.0015 -0.117408,-0.01117 -0.171491,-0.02175 z"
       style="fill:#000000;fill-opacity:1;stroke:#000000;stroke-width:0.1701588;stroke-linejoin:round;stroke-miterlimit:4;stroke-dasharray:none;stroke-opacity:1;paint-order:normal" />
    <path
       inkscape:connector-curvature="0"
       id="path909"
       d="m 61.538035,92.901874 c -0.01996,-0.07133 -0.05615,-0.125835 -0.119531,-0.180082 l -0.09089,-0.0778 h 0.300066 0.300067 l -0.09371,0.06787 c -0.05154,0.03735 -0.129984,0.118373 -0.174318,0.180083 -0.04433,0.06172 -0.08341,0.1122 -0.08683,0.1122 -0.0035,0 -0.0191,-0.04605 -0.03485,-0.102285 z"
       style="fill:#000000;fill-opacity:1;stroke:#000000;stroke-width:0.1701588;stroke-linejoin:round;stroke-miterlimit:4;stroke-dasharray:none;stroke-opacity:1;paint-order:normal" />
    <path
       inkscape:connector-curvature="0"
       id="path911"
       d="m 19.847964,6.882214 c 0.06965,-0.1245202 0.136377,-0.2039197 0.277542,-0.3302617 L 20.24508,6.444934 20.360689,6.473037 c 0.144261,0.035062 0.271331,0.082318 0.466003,0.1732883 0.146627,0.06852 0.50813,0.2616802 0.572376,0.3058364 0.02661,0.018285 -0.09318,0.021578 -0.785451,0.021578 h -0.816848 z"
       style="fill:#000000;fill-opacity:1;stroke:#000000;stroke-width:0.12032044;stroke-linejoin:round;stroke-miterlimit:4;stroke-dasharray:none;stroke-opacity:1;paint-order:normal" />
    <path
       transform="scale(0.74999993)"
       inkscape:connector-curvature="0"
       id="path1021"
       d="m 70.83155,135.02063 c -1.410586,-0.043 -2.340554,-0.13196 -2.894718,-0.27691 -0.194159,-0.0508 -0.751556,-0.30143 -0.751122,-0.33776 4.84e-4,-0.0406 1.168746,-0.67815 1.723996,-0.94089 1.226298,-0.58027 2.616603,-0.9468 4.109456,-1.08338 0.774306,-0.0708 2.646573,-0.13232 3.568679,-0.11717 0.918644,0.0151 1.060042,0.0381 2.612634,0.42478 1.454499,0.36227 2.331109,0.62368 2.734861,0.81555 l 0.198874,0.0945 -0.486136,0.24397 c -0.914798,0.4591 -1.532828,0.66088 -2.795281,0.91264 -0.691622,0.13792 -1.143232,0.19241 -2.021884,0.24394 -0.512546,0.0301 -5.16576,0.0461 -5.999359,0.0207 z"
       style="fill:#000000;fill-opacity:1;stroke:#000000;stroke-width:0.03340662;stroke-miterlimit:4;stroke-dasharray:none;stroke-opacity:1" />
    <path
       transform="scale(0.74999993)"
       inkscape:connector-curvature="0"
       id="path1023"
       d="m 71.218249,138.05525 c -1.41844,-0.0239 -2.738339,-0.1233 -3.502388,-0.26389 -1.523752,-0.28037 -2.54728,-0.81137 -3.61452,-1.87518 -0.997773,-0.99456 -1.905527,-2.19296 -4.502899,-5.94462 -2.977906,-4.30131 -3.581175,-5.12272 -4.267847,-5.8111 -0.416527,-0.41756 -0.686774,-0.61611 -1.856307,-1.36378 -0.873212,-0.55824 -1.265196,-0.82487 -1.823009,-1.24003 -0.579112,-0.43102 -1.174754,-0.91964 -1.597774,-1.31071 l -0.128318,-0.11863 h 4.461874 4.461875 l 0.24054,0.0904 c 3.399363,1.27819 6.965971,1.41376 10.968676,0.41692 0.57575,-0.14338 1.687784,-0.451 1.756718,-0.48595 0.02931,-0.0149 0.896157,-0.0204 2.574311,-0.0164 l 2.530116,0.006 0.386699,0.0705 c 0.695911,0.12685 2.036525,0.30525 2.905767,0.38667 0.405608,0.038 2.164174,0.0384 2.662699,6e-4 1.1491,-0.0871 2.337824,-0.23623 3.308363,-0.415 l 0.29211,-0.0538 h 4.618967 4.618968 v 0.97841 0.97841 l -0.303835,0.2007 c -0.360172,0.23791 -0.494807,0.31661 -0.976115,0.57061 -0.199605,0.10534 -0.448197,0.24995 -0.552427,0.32136 -0.723964,0.49601 -1.385551,1.40861 -2.907413,4.01053 -1.693291,2.895 -2.400216,4.04514 -3.504121,5.70105 -1.222329,1.83355 -1.572762,2.23269 -2.499094,2.84642 -1.284696,0.85117 -2.76311,1.39461 -5.233189,1.92362 -1.206711,0.25844 -2.146341,0.34726 -4.121107,0.38956 -0.862509,0.0185 -3.473982,0.0228 -4.39732,0.007 z m 4.684582,-3.01116 c 0.328142,-0.008 -0.527015,-0.0105 -1.900349,-0.005 -1.373334,0.005 -2.501114,0.0136 -2.506178,0.0179 -0.01605,0.0139 3.783701,0.003 4.406527,-0.0129 z m -4.911077,-0.0176 c -0.07596,-0.004 -0.200255,-0.004 -0.276214,0 -0.07596,0.004 -0.01381,0.008 0.138107,0.008 0.151918,0 0.214066,-0.004 0.138107,-0.008 z m -0.729204,-0.0217 c -0.0395,-0.005 -0.104133,-0.005 -0.143631,0 -0.0395,0.005 -0.0072,0.009 0.07182,0.009 0.079,0 0.111315,-0.004 0.07182,-0.009 z m 6.684764,2e-4 c -0.0332,-0.005 -0.09287,-0.005 -0.132582,-2.3e-4 -0.03972,0.005 -0.01255,0.009 0.06037,0.009 0.07292,1.3e-4 0.105417,-0.004 0.07221,-0.009 z m -7.115657,-0.0221 c -0.03342,-0.005 -0.08811,-0.005 -0.121534,0 -0.03342,0.005 -0.0061,0.009 0.06077,0.009 0.06684,0 0.09419,-0.004 0.06077,-0.009 z m 7.458069,2.7e-4 c -0.02718,-0.005 -0.0769,-0.005 -0.110485,-3e-4 -0.03359,0.005 -0.01135,0.009 0.04942,0.01 0.06077,1.8e-4 0.08825,-0.004 0.06107,-0.009 z m -7.80027,-0.0221 c -0.02718,-0.005 -0.0769,-0.005 -0.110486,-3e-4 -0.03359,0.005 -0.01135,0.009 0.04942,0.01 0.06077,1.8e-4 0.08825,-0.004 0.06107,-0.009 z m 8.07644,3.7e-4 c -0.02113,-0.006 -0.0609,-0.006 -0.08839,-4.5e-4 -0.02749,0.005 -0.0102,0.01 0.03841,0.0101 0.04861,2.4e-4 0.0711,-0.004 0.04998,-0.01 z m -8.341909,-0.0225 c -0.02734,-0.005 -0.07209,-0.005 -0.09944,0 -0.02734,0.005 -0.005,0.01 0.04972,0.01 0.05469,0 0.07706,-0.004 0.04972,-0.01 z m 8.562621,3.6e-4 c -0.02127,-0.006 -0.05607,-0.006 -0.07734,0 -0.02127,0.006 -0.0039,0.0101 0.03867,0.0101 0.04254,0 0.05994,-0.005 0.03867,-0.0101 z m -8.81648,-0.022 c -0.02113,-0.006 -0.0609,-0.006 -0.08839,-4.5e-4 -0.02749,0.005 -0.0102,0.01 0.03841,0.0101 0.04861,2.4e-4 0.0711,-0.004 0.04998,-0.01 z m 9.004725,6.8e-4 c -0.01496,-0.006 -0.04479,-0.006 -0.06629,-8.2e-4 -0.0215,0.006 -0.0093,0.0106 0.0272,0.011 0.03646,4.5e-4 0.05405,-0.004 0.03909,-0.0102 z m -9.203599,-0.0228 c -0.02113,-0.006 -0.0609,-0.006 -0.08839,-4.5e-4 -0.02749,0.005 -0.0102,0.01 0.03841,0.0101 0.04861,2.4e-4 0.0711,-0.004 0.04998,-0.01 z m 9.380376,6.8e-4 c -0.01496,-0.006 -0.04479,-0.006 -0.06629,-8.2e-4 -0.0215,0.006 -0.0093,0.0106 0.0272,0.011 0.03646,4.5e-4 0.05405,-0.004 0.03909,-0.0102 z m -9.55741,-0.0228 c -0.02127,-0.006 -0.05607,-0.006 -0.07734,0 -0.02127,0.006 -0.0039,0.0101 0.03867,0.0101 0.04254,0 0.05994,-0.005 0.03867,-0.0101 z m 9.712089,7.4e-4 c -0.01496,-0.006 -0.04479,-0.006 -0.06629,-8.2e-4 -0.0215,0.006 -0.0093,0.0105 0.0272,0.011 0.03646,4.5e-4 0.05405,-0.004 0.03909,-0.0102 z m -9.8553,-0.0221 c -0.01496,-0.006 -0.04479,-0.006 -0.06629,-8.2e-4 -0.0215,0.006 -0.0093,0.0106 0.0272,0.011 0.03646,4.5e-4 0.05405,-0.004 0.03909,-0.0102 z m 9.987883,0 c -0.01496,-0.006 -0.04479,-0.006 -0.06629,-8.2e-4 -0.0215,0.006 -0.0093,0.0106 0.0272,0.011 0.03646,4.5e-4 0.05405,-0.004 0.03909,-0.0102 z m -10.120465,-0.0221 c -0.01496,-0.006 -0.04479,-0.006 -0.06629,-8.2e-4 -0.0215,0.006 -0.0093,0.0105 0.0272,0.011 0.03646,4.5e-4 0.05405,-0.004 0.03909,-0.0102 z m 10.253048,0 c -0.01496,-0.006 -0.04479,-0.006 -0.06629,-8.2e-4 -0.0215,0.006 -0.0093,0.0105 0.0272,0.011 0.03646,4.5e-4 0.05405,-0.004 0.03909,-0.0102 z m -10.386051,-0.0222 c -0.01519,-0.006 -0.04005,-0.006 -0.05524,0 -0.01519,0.006 -0.0028,0.0111 0.02762,0.0111 0.03038,0 0.04281,-0.005 0.02762,-0.0111 z m 10.496116,0 c -0.01519,-0.006 -0.04005,-0.006 -0.05524,0 -0.01519,0.006 -0.0028,0.0111 0.02762,0.0111 0.03038,0 0.04281,-0.005 0.02762,-0.0111 z m -10.596013,-0.0208 c -0.0073,-0.007 -0.0264,-0.008 -0.04235,-0.002 -0.01763,0.007 -0.01239,0.0123 0.01335,0.0134 0.02329,9.6e-4 0.03634,-0.004 0.029,-0.0116 z m 10.706499,-10e-4 c -0.01519,-0.006 -0.04005,-0.006 -0.05524,0 -0.01519,0.006 -0.0028,0.0111 0.02762,0.0111 0.03038,0 0.04281,-0.005 0.02762,-0.0111 z m -10.794888,-0.0208 c -0.0073,-0.007 -0.0264,-0.008 -0.04235,-0.002 -0.01763,0.007 -0.01239,0.0123 0.01335,0.0133 0.02329,9.6e-4 0.03634,-0.004 0.029,-0.0116 z m 10.905373,-0.001 c -0.01519,-0.006 -0.04005,-0.006 -0.05524,0 -0.01519,0.006 -0.0028,0.0112 0.02762,0.0112 0.03038,0 0.04281,-0.005 0.02762,-0.0112 z m -11.189722,-0.0944 c -0.117147,-0.0474 -0.244853,-0.10264 -0.283791,-0.12277 -0.03894,-0.0201 -0.07457,-0.0328 -0.07917,-0.0282 -0.01235,0.0123 0.224319,0.12921 0.377084,0.1862 0.223075,0.0832 0.212325,0.0564 -0.01412,-0.0352 z m 11.300207,0.0723 c -0.01519,-0.006 -0.04005,-0.006 -0.05524,0 -0.01519,0.006 -0.0028,0.0111 0.02762,0.0111 0.03038,0 0.04281,-0.005 0.02762,-0.0111 z m 0.09898,-0.0208 c -0.0073,-0.007 -0.0264,-0.008 -0.04235,-0.002 -0.01763,0.007 -0.01239,0.0123 0.01335,0.0134 0.02329,9.6e-4 0.03635,-0.004 0.029,-0.0116 z m 0.110485,-0.0221 c -0.0073,-0.007 -0.0264,-0.008 -0.04235,-0.002 -0.01763,0.007 -0.01239,0.0123 0.01335,0.0134 0.02329,9.6e-4 0.03635,-0.004 0.029,-0.0116 z m 0.08839,-0.0221 c -0.0073,-0.007 -0.0264,-0.008 -0.04235,-0.002 -0.01763,0.007 -0.01239,0.0123 0.01335,0.0133 0.02329,9.6e-4 0.03634,-0.004 0.029,-0.0116 z m 0.110486,-0.0221 c -0.0073,-0.007 -0.0264,-0.008 -0.04235,-0.002 -0.01763,0.007 -0.01239,0.0123 0.01335,0.0134 0.02329,9.6e-4 0.03635,-0.004 0.029,-0.0116 z m 0.08839,-0.0221 c -0.0073,-0.007 -0.0264,-0.008 -0.04235,-0.002 -0.01763,0.007 -0.01239,0.0123 0.01335,0.0134 0.02329,9.6e-4 0.03635,-0.004 0.029,-0.0116 z m 0.53033,-0.13259 c -0.0073,-0.007 -0.0264,-0.008 -0.04235,-0.002 -0.01763,0.007 -0.01239,0.0123 0.01335,0.0134 0.02329,9.6e-4 0.03634,-0.004 0.029,-0.0116 z m 0.15468,-0.0442 c -0.0073,-0.007 -0.0264,-0.008 -0.04235,-0.002 -0.01763,0.007 -0.01239,0.0123 0.01335,0.0134 0.02329,9.5e-4 0.03634,-0.004 0.029,-0.0116 z m -12.99906,-0.0323 c -0.008,-0.013 0.0038,-0.038 0.02632,-0.0556 0.03684,-0.0289 0.03488,-0.0295 -0.01989,-0.006 -0.0655,0.028 -0.07714,0.0528 -0.03314,0.0706 0.04155,0.0168 0.04242,0.0165 0.02671,-0.009 z m 13.299156,-0.0561 c 0.095,-0.0316 0.168879,-0.0614 0.164175,-0.0661 -0.0047,-0.005 -0.09234,0.0204 -0.194751,0.0559 -0.102409,0.0354 -0.176286,0.0652 -0.164174,0.0661 0.01211,9.2e-4 0.09975,-0.0242 0.19475,-0.0559 z m 0.440172,-0.16536 c 0.249063,-0.0991 0.9009,-0.40775 0.9009,-0.42656 0,-0.006 -0.116838,0.0438 -0.259641,0.11181 -0.142802,0.068 -0.383936,0.17733 -0.535854,0.24301 -0.364186,0.15743 -0.367178,0.15881 -0.348473,0.16055 0.0089,8.2e-4 0.11825,-0.0392 0.243068,-0.0888 z m -13.351721,-0.0549 c 0,-0.006 -0.01989,-4.1e-4 -0.04419,0.0126 -0.02431,0.013 -0.04419,0.0286 -0.04419,0.0347 0,0.006 0.01989,4e-4 0.04419,-0.0126 0.02431,-0.013 0.04419,-0.0286 0.04419,-0.0347 z m 0.198874,-0.11007 c 0,-0.006 -0.02983,0.004 -0.06629,0.0232 -0.03646,0.0189 -0.06629,0.0393 -0.06629,0.0453 0,0.006 0.02983,-0.004 0.06629,-0.0232 0.03646,-0.0188 0.06629,-0.0392 0.06629,-0.0453 z m 0.850738,-0.44515 c 0.04861,-0.0277 0.07937,-0.0505 0.06834,-0.0506 -0.02569,-3.4e-4 -0.856545,0.43895 -0.885934,0.46842 -0.0214,0.0215 0.638826,-0.31592 0.817592,-0.41779 z m 13.291398,-0.11719 c -0.04254,-0.0233 -0.08728,-0.0423 -0.09944,-0.0423 -0.01215,0 0.01271,0.019 0.05524,0.0423 0.04254,0.0233 0.08728,0.0423 0.09944,0.0423 0.01215,0 -0.0127,-0.019 -0.05524,-0.0423 z m -12.926796,-0.0552 c 0.05469,-0.0293 0.08949,-0.0532 0.07734,-0.0532 -0.01215,0 -0.06684,0.024 -0.121534,0.0532 -0.05469,0.0293 -0.08949,0.0532 -0.07734,0.0532 0.01215,0 0.06684,-0.024 0.121534,-0.0532 z m 12.772116,-0.0111 c -0.01823,-0.0118 -0.04309,-0.0214 -0.05524,-0.0214 -0.01215,0 -0.0072,0.01 0.01105,0.0214 0.01823,0.0118 0.04309,0.0214 0.05524,0.0214 0.01215,0 0.0072,-0.01 -0.01105,-0.0214 z m -0.09241,-0.0335 c -0.01669,-0.0167 -0.464628,-0.1657 -0.491985,-0.16366 -0.02356,0.002 0.445705,0.1701 0.483113,0.1733 0.01114,9.6e-4 0.01513,-0.003 0.0089,-0.01 z m -12.458739,-0.0549 c 0.01823,-0.0118 0.0232,-0.0214 0.01105,-0.0214 -0.01215,0 -0.03701,0.01 -0.05524,0.0214 -0.01823,0.0118 -0.0232,0.0214 -0.01105,0.0214 0.01215,0 0.03701,-0.01 0.05524,-0.0214 z m 0.154679,-0.0663 c 0.01823,-0.0118 0.0232,-0.0214 0.01105,-0.0214 -0.01215,0 -0.03701,0.01 -0.05524,0.0214 -0.01823,0.0118 -0.0232,0.0214 -0.01105,0.0214 0.01215,0 0.03701,-0.01 0.05524,-0.0214 z m 0.110486,-0.0442 c 0.01823,-0.0118 0.0232,-0.0214 0.01105,-0.0214 -0.01215,0 -0.03701,0.01 -0.05524,0.0214 -0.01823,0.0118 -0.0232,0.0214 -0.01105,0.0214 0.01215,0 0.03701,-0.01 0.05524,-0.0214 z m 0.110485,-0.0442 c 0.01823,-0.0118 0.0232,-0.0214 0.01105,-0.0214 -0.01215,0 -0.03701,0.01 -0.05524,0.0214 -0.01823,0.0118 -0.0232,0.0214 -0.01105,0.0214 0.01215,0 0.03701,-0.01 0.05524,-0.0214 z m 11.41821,-0.0134 c -0.0073,-0.007 -0.0264,-0.008 -0.04235,-0.002 -0.01763,0.007 -0.01239,0.0123 0.01335,0.0134 0.02329,9.6e-4 0.03634,-0.004 0.029,-0.0116 z m -11.307724,-0.0308 c 0.01823,-0.0118 0.0232,-0.0214 0.01105,-0.0214 -0.01215,0 -0.03701,0.01 -0.05524,0.0214 -0.01823,0.0118 -0.0232,0.0214 -0.01105,0.0214 0.01215,0 0.03701,-0.01 0.05524,-0.0214 z m 11.086753,-0.0354 c -0.0073,-0.007 -0.0264,-0.008 -0.04235,-0.002 -0.01763,0.007 -0.01239,0.0123 0.01335,0.0134 0.02329,9.6e-4 0.03634,-0.004 0.029,-0.0116 z m -10.843685,-0.0567 c 0.02304,-0.0142 0.0163,-0.016 -0.0221,-0.006 -0.03038,0.008 -0.07016,0.024 -0.08839,0.0352 -0.02304,0.0142 -0.0163,0.016 0.0221,0.006 0.03038,-0.008 0.07016,-0.024 0.08839,-0.0353 z m 10.689006,0.0125 c -0.0073,-0.007 -0.0264,-0.008 -0.04235,-0.002 -0.01763,0.007 -0.01239,0.0123 0.01335,0.0134 0.02329,9.6e-4 0.03635,-0.004 0.029,-0.0116 z m -0.15468,-0.0442 c -0.0073,-0.007 -0.0264,-0.008 -0.04235,-0.002 -0.01763,0.007 -0.01239,0.0123 0.01335,0.0134 0.02329,9.6e-4 0.03634,-0.004 0.029,-0.0116 z m -0.08839,-0.0221 c -0.0073,-0.007 -0.0264,-0.008 -0.04235,-0.002 -0.01763,0.007 -0.01239,0.0123 0.01335,0.0134 0.02329,9.6e-4 0.03635,-0.004 0.029,-0.0116 z m -0.11555,-0.0308 c -0.02431,-0.0104 -0.05911,-0.019 -0.07734,-0.019 -0.02089,0 -0.01681,0.007 0.01105,0.019 0.02431,0.0104 0.05911,0.019 0.07734,0.019 0.02089,0 0.01681,-0.007 -0.01105,-0.019 z m -0.127518,-0.0354 c -0.0073,-0.007 -0.0264,-0.008 -0.04235,-0.002 -0.01763,0.007 -0.01239,0.0123 0.01335,0.0134 0.02329,9.6e-4 0.03635,-0.004 0.029,-0.0116 z m -9.694637,-0.0419 c 0.04254,-0.0164 0.06242,-0.0298 0.04419,-0.0298 -0.01823,0 -0.06795,0.0134 -0.110486,0.0298 -0.04254,0.0164 -0.06242,0.0298 -0.04419,0.0298 0.01823,0 0.06795,-0.0134 0.110486,-0.0298 z m 9.579087,0.0125 c -0.02431,-0.01 -0.079,-0.0237 -0.121534,-0.0309 -0.07625,-0.0129 -0.07609,-0.0126 0.01105,0.0175 0.09483,0.0328 0.186029,0.0438 0.110486,0.0133 z m -9.391262,-0.0678 c 0.02786,-0.012 0.03194,-0.019 0.01105,-0.019 -0.01823,0 -0.05303,0.009 -0.07734,0.019 -0.02786,0.012 -0.03194,0.019 -0.01105,0.019 0.01823,0 0.05303,-0.009 0.07734,-0.019 z m 9.175355,0.009 c -0.0073,-0.007 -0.0264,-0.008 -0.04235,-0.002 -0.01763,0.007 -0.01239,0.0123 0.01335,0.0134 0.02329,9.6e-4 0.03635,-0.004 0.029,-0.0116 z m -0.08839,-0.0221 c -0.0073,-0.007 -0.0264,-0.008 -0.04235,-0.002 -0.01763,0.007 -0.01239,0.0123 0.01335,0.0134 0.02329,9.6e-4 0.03634,-0.004 0.029,-0.0116 z m -8.843899,-0.0559 c 0.03034,-0.0133 0.01995,-0.0149 -0.03315,-0.005 -0.04254,0.008 -0.09723,0.0227 -0.121534,0.0334 -0.03034,0.0133 -0.01995,0.0149 0.03315,0.005 0.04254,-0.008 0.09723,-0.0227 0.121534,-0.0334 z m 8.755511,0.0338 c -0.0073,-0.007 -0.0264,-0.008 -0.04235,-0.002 -0.01763,0.007 -0.01239,0.0123 0.01335,0.0134 0.02329,9.6e-4 0.03635,-0.004 0.029,-0.0116 z m -0.08839,-0.0221 c -0.0073,-0.007 -0.0264,-0.008 -0.04235,-0.002 -0.01763,0.007 -0.01239,0.0123 0.01335,0.0134 0.02329,9.6e-4 0.03634,-0.004 0.029,-0.0116 z m -0.08839,-0.0221 c -0.0073,-0.007 -0.0264,-0.008 -0.04235,-0.002 -0.01763,0.007 -0.01239,0.0123 0.01335,0.0134 0.02329,9.6e-4 0.03634,-0.004 0.029,-0.0116 z m -8.463185,-0.0221 c -0.0073,-0.007 -0.0264,-0.008 -0.04235,-0.002 -0.01763,0.007 -0.01239,0.0123 0.01335,0.0134 0.02329,9.5e-4 0.03635,-0.004 0.029,-0.0116 z m 8.374797,0 c -0.0073,-0.007 -0.0264,-0.008 -0.04235,-0.002 -0.01763,0.007 -0.01239,0.0123 0.01335,0.0134 0.02329,9.5e-4 0.03635,-0.004 0.029,-0.0116 z m -8.286409,-0.0221 c -0.0073,-0.007 -0.0264,-0.008 -0.04235,-0.002 -0.01763,0.007 -0.01239,0.0123 0.01335,0.0134 0.02329,9.6e-4 0.03634,-0.004 0.029,-0.0116 z m 8.19802,0 c -0.0073,-0.007 -0.0264,-0.008 -0.04235,-0.002 -0.01763,0.007 -0.01239,0.0123 0.01335,0.0134 0.02329,9.6e-4 0.03634,-0.004 0.029,-0.0116 z m -8.00421,-0.0403 c 0.06077,-0.0169 0.09557,-0.0314 0.07734,-0.0323 -0.01823,-8.6e-4 -0.08286,0.0123 -0.143631,0.0292 -0.06077,0.0169 -0.09557,0.0314 -0.07734,0.0323 0.01823,8.6e-4 0.08286,-0.0123 0.143631,-0.0292 z m 7.915822,0.0182 c -0.0073,-0.007 -0.0264,-0.008 -0.04235,-0.002 -0.01763,0.007 -0.01239,0.0123 0.01335,0.0134 0.02329,9.6e-4 0.03634,-0.004 0.029,-0.0116 z m -0.08839,-0.0221 c -0.0073,-0.007 -0.0264,-0.008 -0.04235,-0.002 -0.01763,0.007 -0.01239,0.0123 0.01335,0.0134 0.02329,9.6e-4 0.03635,-0.004 0.029,-0.0116 z m -0.08839,-0.0221 c -0.0073,-0.007 -0.0264,-0.008 -0.04235,-0.002 -0.01763,0.007 -0.01239,0.0123 0.01335,0.0134 0.02329,9.6e-4 0.03634,-0.004 0.029,-0.0116 z m -7.545695,-0.0234 c -0.01519,-0.006 -0.04005,-0.006 -0.05524,0 -0.01519,0.006 -0.0028,0.0111 0.02762,0.0111 0.03038,0 0.04281,-0.005 0.02762,-0.0111 z m 7.457307,0.001 c -0.0073,-0.007 -0.0264,-0.008 -0.04235,-0.002 -0.01763,0.007 -0.01239,0.0123 0.01335,0.0134 0.02329,9.6e-4 0.03634,-0.004 0.029,-0.0116 z m -7.346822,-0.0234 c -0.01519,-0.006 -0.04005,-0.006 -0.05524,0 -0.01519,0.006 -0.0028,0.0111 0.02762,0.0111 0.03038,0 0.04281,-0.005 0.02762,-0.0111 z m 7.258434,0.001 c -0.0073,-0.007 -0.0264,-0.008 -0.04235,-0.002 -0.01763,0.007 -0.01239,0.0123 0.01335,0.0134 0.02329,9.6e-4 0.03635,-0.004 0.029,-0.0116 z m -7.147948,-0.0234 c -0.01519,-0.006 -0.04005,-0.006 -0.05524,0 -0.01519,0.006 -0.0028,0.0111 0.02762,0.0111 0.03038,0 0.04281,-0.005 0.02762,-0.0111 z m 7.059559,0.001 c -0.0073,-0.007 -0.0264,-0.008 -0.04235,-0.002 -0.01763,0.007 -0.01239,0.0123 0.01335,0.0134 0.02329,9.5e-4 0.03635,-0.004 0.029,-0.0116 z m -6.926556,-0.0232 c -0.01496,-0.006 -0.04479,-0.006 -0.06629,-8.2e-4 -0.0215,0.006 -0.0093,0.0105 0.0272,0.011 0.03646,4.5e-4 0.05405,-0.004 0.03909,-0.0102 z m 6.838168,0.001 c -0.0073,-0.007 -0.0264,-0.008 -0.04235,-0.002 -0.01763,0.007 -0.01239,0.0123 0.01335,0.0134 0.02329,9.6e-4 0.03634,-0.004 0.029,-0.0116 z m -6.728103,-0.0234 c -0.01519,-0.006 -0.04005,-0.006 -0.05524,0 -0.01519,0.006 -0.0028,0.0111 0.02762,0.0111 0.03038,0 0.04281,-0.005 0.02762,-0.0111 z m 0.132582,-0.0221 c -0.01519,-0.006 -0.04005,-0.006 -0.05524,0 -0.01519,0.006 -0.0028,0.0111 0.02762,0.0111 0.03038,0 0.04281,-0.005 0.02762,-0.0111 z m 6.396647,0.001 c -0.0073,-0.007 -0.0264,-0.008 -0.04235,-0.002 -0.01763,0.007 -0.01239,0.0123 0.01335,0.0134 0.02329,9.6e-4 0.03634,-0.004 0.029,-0.0116 z m -6.241547,-0.0232 c -0.01496,-0.006 -0.04479,-0.006 -0.06629,-8.2e-4 -0.0215,0.006 -0.0093,0.0105 0.0272,0.011 0.03646,4.5e-4 0.05405,-0.004 0.03909,-0.0102 z m 6.153159,0.001 c -0.0073,-0.007 -0.0264,-0.008 -0.04235,-0.002 -0.01763,0.007 -0.01239,0.0123 0.01335,0.0133 0.02329,9.6e-4 0.03635,-0.004 0.029,-0.0116 z m -5.99848,-0.0232 c -0.01496,-0.006 -0.04479,-0.006 -0.06629,-8.2e-4 -0.0215,0.006 -0.0093,0.0106 0.0272,0.011 0.03646,4.5e-4 0.05405,-0.004 0.03909,-0.0102 z m 5.910091,0.001 c -0.0073,-0.007 -0.0264,-0.008 -0.04235,-0.002 -0.01763,0.007 -0.01239,0.0123 0.01335,0.0134 0.02329,9.6e-4 0.03634,-0.004 0.029,-0.0116 z m -5.755411,-0.0232 c -0.01496,-0.006 -0.04479,-0.006 -0.06629,-8.2e-4 -0.0215,0.006 -0.0093,0.0106 0.0272,0.011 0.03646,4.5e-4 0.05405,-0.004 0.03909,-0.0102 z m 5.656434,-1.3e-4 c -0.01519,-0.006 -0.04005,-0.006 -0.05524,0 -0.01519,0.006 -0.0028,0.0111 0.02762,0.0111 0.03038,0 0.04281,-0.005 0.02762,-0.0111 z m -5.469029,-0.0227 c -0.02127,-0.006 -0.05607,-0.006 -0.07734,0 -0.02127,0.006 -0.0039,0.0101 0.03867,0.0101 0.04254,0 0.05994,-0.005 0.03867,-0.0101 z m 5.369133,0.002 c -0.0073,-0.007 -0.0264,-0.008 -0.04235,-0.002 -0.01763,0.007 -0.01239,0.0123 0.01335,0.0134 0.02329,9.5e-4 0.03635,-0.004 0.029,-0.0116 z m -5.170259,-0.024 c -0.02127,-0.006 -0.05607,-0.006 -0.07734,0 -0.02127,0.006 -0.0039,0.0101 0.03867,0.0101 0.04254,0 0.05994,-0.005 0.03867,-0.0101 z m 5.059773,0.002 c -0.0073,-0.007 -0.0264,-0.008 -0.04235,-0.002 -0.01763,0.007 -0.01239,0.0123 0.01335,0.0134 0.02329,9.6e-4 0.03635,-0.004 0.029,-0.0116 z m -4.783257,-0.0243 c -0.02718,-0.005 -0.07689,-0.005 -0.110485,-3e-4 -0.03359,0.005 -0.01135,0.009 0.04942,0.01 0.06077,1.7e-4 0.08825,-0.004 0.06107,-0.009 z m 4.672772,0.002 c -0.0073,-0.007 -0.0264,-0.008 -0.04235,-0.002 -0.01763,0.007 -0.01239,0.0123 0.01335,0.0133 0.02329,9.6e-4 0.03635,-0.004 0.029,-0.0116 z m -4.363715,-0.0247 c -0.0395,-0.005 -0.104133,-0.005 -0.143631,0 -0.0395,0.005 -0.0072,0.009 0.07182,0.009 0.079,0 0.111314,-0.004 0.07182,-0.009 z m 4.24264,0.001 c -0.01519,-0.006 -0.04005,-0.006 -0.05524,0 -0.01519,0.006 -0.0028,0.0112 0.02762,0.0112 0.03038,0 0.04281,-0.005 0.02762,-0.0112 z m -3.833261,-0.0235 c -0.04525,-0.005 -0.124802,-0.005 -0.176776,-1.6e-4 -0.05197,0.005 -0.01495,0.009 0.08228,0.009 0.09723,9e-5 0.139751,-0.004 0.0945,-0.008 z m 3.701099,0.002 c -0.01496,-0.006 -0.04479,-0.006 -0.06629,-8.2e-4 -0.0215,0.006 -0.0093,0.0106 0.0272,0.011 0.03646,4.5e-4 0.05405,-0.004 0.03909,-0.0102 z m -3.171352,-0.0237 c -0.04557,-0.005 -0.120153,-0.005 -0.165728,0 -0.04557,0.005 -0.0083,0.009 0.08286,0.009 0.09115,0 0.128439,-0.004 0.08286,-0.009 z m 3.005204,8.6e-4 c -0.02127,-0.006 -0.05607,-0.006 -0.07734,0 -0.02127,0.006 -0.0039,0.0101 0.03867,0.0101 0.04254,0 0.05994,-0.005 0.03867,-0.0101 z m -2.309146,-0.0231 c -0.06381,-0.004 -0.168214,-0.004 -0.232019,0 -0.06381,0.004 -0.0116,0.008 0.11601,0.008 0.12761,0 0.179815,-0.004 0.116009,-0.008 z m 2.016359,-0.007 c -0.08507,-0.009 -0.502708,-0.0148 -0.928077,-0.0135 l -0.773398,0.002 0.784446,0.0119 c 0.431446,0.007 0.849081,0.0126 0.928078,0.0135 l 0.143631,0.002 z m -9.212561,-1.59186 c 1.288881,-0.57412 2.465838,-0.93057 3.820872,-1.1572 1.081261,-0.18083 2.135962,-0.24253 4.165301,-0.24363 1.44636,-8e-4 1.665066,0.0115 2.386485,0.13403 0.868926,0.14759 2.971232,0.67887 3.919142,0.99041 0.131986,0.0434 0.433213,0.17509 0.669396,0.29269 0.365928,0.18221 0.433655,0.20918 0.458068,0.18243 0.01575,-0.0173 0.161064,-0.27502 0.322905,-0.57278 0.404416,-0.74406 0.707124,-1.27583 1.037725,-1.82301 0.484486,-0.80186 1.460689,-2.40302 1.535626,-2.51872 0.262076,-0.40463 0.555139,-0.93947 0.51477,-0.93947 -0.0031,0 -0.174585,0.0192 -0.381175,0.0426 -0.206592,0.0234 -0.482063,0.0496 -0.612158,0.0582 l -0.236536,0.0156 -0.144802,0.10556 c -0.07964,0.0581 -0.291664,0.1952 -0.471163,0.30475 -0.179499,0.10955 -0.341661,0.21733 -0.360359,0.23952 -0.0187,0.0222 -0.121906,0.18451 -0.229346,0.36074 -0.454024,0.74468 -0.762548,1.17268 -1.06024,1.4708 -0.530165,0.53092 -1.115174,0.8052 -1.717406,0.8052 -0.503031,0 -1.135282,-0.29057 -1.548738,-0.71178 -0.140684,-0.14332 -0.191111,-0.21516 -0.280682,-0.3999 -0.18775,-0.38723 -0.204336,-0.47962 -0.219601,-1.22328 -0.0073,-0.3545 -0.0182,-0.64916 -0.02428,-0.65481 -0.0126,-0.0117 -0.436048,-0.0622 -1.049612,-0.12503 -1.138676,-0.11668 -2.3152,-0.35454 -3.33666,-0.6746 -0.408146,-0.12788 -0.749151,-0.21984 -0.906844,-0.24454 -0.07619,-0.0119 -0.131977,0.004 -0.381241,0.10894 -0.653192,0.27501 -2.135585,0.69033 -3.363477,0.94235 l -0.563601,0.11568 -0.08285,0.42254 c -0.04556,0.2324 -0.107264,0.58661 -0.137109,0.78715 -0.117362,0.78855 -0.301788,1.2028 -0.705735,1.58517 -0.309841,0.29329 -0.6897,0.51352 -1.038711,0.60221 -0.418045,0.10624 -1.027464,0.0229 -1.357826,-0.18562 -0.119084,-0.0752 -0.522147,-0.39959 -0.735669,-0.59212 -0.325313,-0.29334 -0.879609,-0.9314 -1.315946,-1.51481 -0.287598,-0.38454 -0.304212,-0.39676 -0.652804,-0.48023 -0.306292,-0.0733 -1.345677,-0.19217 -1.380068,-0.15778 -0.01553,0.0155 0.06348,0.13269 0.963125,1.42819 1.228384,1.76887 1.880976,2.6594 2.362,3.22319 0.159324,0.18674 0.356997,0.43605 0.439274,0.55403 l 0.149594,0.21451 0.599361,-0.30526 c 0.329648,-0.1679 0.757594,-0.37575 0.95099,-0.4619 z"
       style="fill:#000000;fill-opacity:1;stroke:#000000;stroke-width:0.03340662;stroke-miterlimit:4;stroke-dasharray:none;stroke-opacity:1" />
  </g>
</svg>
