  0
SECTION
  2
HEADER
  9
$ACADVER
  1
AC1014
  9
$HANDSEED
  5
FFFF
  9
$MEASUREMENT
 70
     1
  0
ENDSEC
  0
SECTION
  2
TABLES
  0
TABLE
  2
VPORT
  5
8
330
0
100
AcDbSymbolTable
 70
     4
  0
VPORT
  5
2E
330
8
100
AcDbSymbolTableRecord
100
AcDbViewportTableRecord
  2
*ACTIVE
 70
     0
 10
0.0
 20
0.0
 11
1.0
 21
1.0
 12
210.0
 22
148.5
 13
0.0
 23
0.0
 14
10.0
 24
10.0
 15
10.0
 25
10.0
 16
0.0
 26
0.0
 36
1.0
 17
0.0
 27
0.0
 37
0.0
 40
341.0
 41
1.24
 42
50.0
 43
0.0
 44
0.0
 50
0.0
 51
0.0
 71
     0
 72
   100
 73
     1
 74
     3
 75
     0
 76
     0
 77
     0
 78
     0
  0
ENDTAB
  0
TABLE
  2
LTYPE
  5
5
330
0
100
AcDbSymbolTable
 70
     1
  0
LTYPE
  5
14
330
5
100
AcDbSymbolTableRecord
100
AcDbLinetypeTableRecord
  2
BYBLOCK
 70
     0
  3

 72
    65
 73
     0
 40
0.0
  0
LTYPE
  5
15
330
5
100
AcDbSymbolTableRecord
100
AcDbLinetypeTableRecord
  2
BYLAYER
 70
     0
  3

 72
    65
 73
     0
 40
0.0
  0
LTYPE
  5
16
330
5
100
AcDbSymbolTableRecord
100
AcDbLinetypeTableRecord
  2
CONTINUOUS
 70
     0
  3
Solid line
 72
    65
 73
     0
 40
0.0
  0
ENDTAB
  0
TABLE
  2
LAYER
  5
2
100
AcDbSymbolTable
 70
1
  0
LAYER
  5
50
100
AcDbSymbolTableRecord
100
AcDbLayerTableRecord
  2
0
 70
0
  6
CONTINUOUS
  0
ENDTAB
  0
TABLE
  2
STYLE
  5
3
330
0
100
AcDbSymbolTable
 70
     1
  0
STYLE
  5
11
330
3
100
AcDbSymbolTableRecord
100
AcDbTextStyleTableRecord
  2
STANDARD
 70
     0
 40
0.0
 41
1.0
 50
0.0
 71
     0
 42
2.5
  3
txt
  4

  0
ENDTAB
  0
TABLE
  2
VIEW
  5
6
330
0
100
AcDbSymbolTable
 70
     0
  0
ENDTAB
  0
TABLE
  2
UCS
  5
7
330
0
100
AcDbSymbolTable
 70
     0
  0
ENDTAB
  0
TABLE
  2
APPID
  5
9
330
0
100
AcDbSymbolTable
 70
     2
  0
APPID
  5
12
330
9
100
AcDbSymbolTableRecord
100
AcDbRegAppTableRecord
  2
ACAD
 70
     0
  0
ENDTAB
  0
TABLE
  2
DIMSTYLE
  5
A
330
0
100
AcDbSymbolTable
 70
     1
  0
DIMSTYLE
105
27
330
A
100
AcDbSymbolTableRecord
100
AcDbDimStyleTableRecord
  2
ISO-25
 70
     0
  3

  4

  5

  6

  7

 40
1.0
 41
2.5
 42
0.625
 43
3.75
 44
1.25
 45
0.0
 46
0.0
 47
0.0
 48
0.0
140
2.5
141
2.5
142
0.0
143
0.03937007874016
144
1.0
145
0.0
146
1.0
147
0.625
 71
     0
 72
     0
 73
     0
 74
     0
 75
     0
 76
     0
 77
     1
 78
     8
170
     0
171
     3
172
     1
173
     0
174
     0
175
     0
176
     0
177
     0
178
     0
270
     2
271
     2
272
     2
273
     2
274
     3
340
11
275
     0
280
     0
281
     0
282
     0
283
     0
284
     8
285
     0
286
     0
287
     3
288
     0
  0
ENDTAB
  0
TABLE
  2
BLOCK_RECORD
  5
1
330
0
100
AcDbSymbolTable
 70
     1
  0
BLOCK_RECORD
  5
1F
330
1
100
AcDbSymbolTableRecord
100
AcDbBlockTableRecord
  2
*MODEL_SPACE
  0
BLOCK_RECORD
  5
1B
330
1
100
AcDbSymbolTableRecord
100
AcDbBlockTableRecord
  2
*PAPER_SPACE
  0
ENDTAB
  0
ENDSEC
  0
SECTION
  2
BLOCKS
  0
BLOCK
  5
20
330
1F
100
AcDbEntity
  8
0
100
AcDbBlockBegin
  2
*MODEL_SPACE
 70
     0
 10
0.0
 20
0.0
 30
0.0
  3
*MODEL_SPACE
  1

  0
ENDBLK
  5
21
330
1F
100
AcDbEntity
  8
0
100
AcDbBlockEnd
  0
BLOCK
  5
1C
330
1B
100
AcDbEntity
 67
     1
  8
0
100
AcDbBlockBegin
  2
*PAPER_SPACE
  1

  0
ENDBLK
  5
1D
330
1B
100
AcDbEntity
 67
     1
  8
0
100
AcDbBlockEnd
  0
ENDSEC
  0
SECTION
  2
ENTITIES
  0
LINE
  5
100
100
AcDbEntity
  8
0
 62
7
100
AcDbLine
 10
94.272100
 20
58.014129
 30
0.0
 11
38.675733
 21
58.014129
 31
0.0
  0
LINE
  5
101
100
AcDbEntity
  8
0
 62
7
100
AcDbLine
 10
38.675733
 20
58.014129
 30
0.0
 11
38.675733
 21
82.186463
 31
0.0
  0
SPLINE
  5
102
100
AcDbEntity
  8
0
 62
7
100
AcDbSpline
 70
0
 71
3
 72
10
 73
6
 74
4
 40
0.000000
 40
0.000000
 40
0.000000
 40
0.000000
 40
1.914121
 40
3.765729
 40
5.694254
 40
5.694254
 40
5.694254
 40
5.694254
 10
99.409515
 20
55.899579
 30
0.0
 10
98.926355
 20
56.320604
 30
0.0
 10
97.975816
 20
57.148903
 30
0.0
 10
96.178668
 20
57.886536
 30
0.0
 10
94.916186
 20
57.971025
 30
0.0
 10
94.272100
 20
58.014129
 30
0.0
 11
99.409515
 21
55.899579
 31
0.0
 11
97.898558
 21
57.074682
 31
0.0
 11
96.186282
 21
57.779356
 31
0.0
 11
94.272100
 21
58.014129
 31
0.0
  0
SPLINE
  5
103
100
AcDbEntity
  8
0
 62
7
100
AcDbSpline
 70
0
 71
3
 72
10
 73
6
 74
4
 40
0.000000
 40
0.000000
 40
0.000000
 40
0.000000
 40
5.117291
 40
10.050689
 40
15.169975
 40
15.169975
 40
15.169975
 40
15.169975
 10
38.675733
 20
82.186463
 30
0.0
 10
38.791858
 20
83.895632
 30
0.0
 10
39.019933
 20
87.252550
 30
0.0
 10
41.001591
 20
92.033451
 30
0.0
 10
43.214746
 20
94.568591
 30
0.0
 10
44.341785
 20
95.859600
 30
0.0
 11
38.675733
 21
82.186463
 31
0.0
 11
39.305334
 21
87.264875
 31
0.0
 11
41.194057
 21
91.822411
 31
0.0
 11
44.341785
 21
95.859600
 31
0.0
  0
SPLINE
  5
104
100
AcDbEntity
  8
0
 62
7
100
AcDbSpline
 70
0
 71
3
 72
13
 73
9
 74
7
 40
0.000000
 40
0.000000
 40
0.000000
 40
0.000000
 40
5.119086
 40
10.052410
 40
15.169398
 40
20.286154
 40
25.219302
 40
30.337726
 40
30.337726
 40
30.337726
 40
30.337726
 10
44.341785
 20
95.859600
 30
0.0
 10
45.632897
 20
96.990882
 30
0.0
 10
48.168268
 20
99.212395
 30
0.0
 10
52.949071
 20
101.128896
 30
0.0
 10
58.014853
 20
101.726053
 30
0.0
 10
63.080535
 20
101.128917
 30
0.0
 10
67.861139
 20
99.212705
 30
0.0
 10
70.395964
 20
96.990953
 30
0.0
 10
71.686738
 20
95.859600
 30
0.0
 11
44.341785
 21
95.859600
 31
0.0
 11
48.379209
 21
99.006701
 31
0.0
 11
52.936804
 21
100.895091
 31
0.0
 11
58.014923
 21
101.524594
 31
0.0
 11
63.092816
 21
100.895150
 31
0.0
 11
67.650244
 21
99.006819
 31
0.0
 11
71.686738
 21
95.859600
 31
0.0
  0
SPLINE
  5
105
100
AcDbEntity
  8
0
 62
7
100
AcDbSpline
 70
0
 71
3
 72
13
 73
9
 74
7
 40
0.000000
 40
0.000000
 40
0.000000
 40
0.000000
 40
5.119447
 40
10.052925
 40
15.170101
 40
16.430450
 40
17.660055
 40
18.950719
 40
18.950719
 40
18.950719
 40
18.950719
 10
71.686738
 20
95.859600
 30
0.0
 10
72.813703
 20
94.568586
 30
0.0
 10
75.026695
 20
92.033456
 30
0.0
 10
77.010480
 20
87.252398
 30
0.0
 10
77.261134
 20
83.474899
 30
0.0
 10
77.441664
 20
80.933657
 30
0.0
 10
77.946322
 20
79.746802
 30
0.0
 10
78.502348
 20
79.112648
 30
0.0
 10
78.787096
 20
78.787890
 30
0.0
 11
71.686738
 21
95.859600
 31
0.0
 11
74.834652
 21
91.822352
 31
0.0
 11
76.723444
 21
87.264757
 31
0.0
 11
77.353054
 21
82.186463
 31
0.0
 11
77.512412
 21
80.936228
 31
0.0
 11
77.990445
 21
79.803351
 31
0.0
 11
78.787096
 21
78.787890
 31
0.0
  0
LINE
  5
106
100
AcDbEntity
  8
0
 62
7
100
AcDbLine
 10
82.186198
 20
77.352260
 30
0.0
 11
87.023046
 21
77.352260
 31
0.0
  0
SPLINE
  5
107
100
AcDbEntity
  8
0
 62
7
100
AcDbSpline
 70
0
 71
3
 72
10
 73
6
 74
4
 40
0.000000
 40
0.000000
 40
0.000000
 40
0.000000
 40
1.292010
 40
2.522055
 40
3.781688
 40
3.781688
 40
3.781688
 40
3.781688
 10
78.787096
 20
78.787890
 30
0.0
 10
79.112189
 20
78.502865
 30
0.0
 10
79.746784
 20
77.946486
 30
0.0
 10
80.933726
 20
77.440988
 30
0.0
 10
81.765413
 20
77.382070
 30
0.0
 10
82.186198
 20
77.352260
 30
0.0
 11
78.787096
 21
78.787890
 31
0.0
 11
79.803576
 21
77.990357
 31
0.0
 11
80.936708
 21
77.511794
 31
0.0
 11
82.186198
 21
77.352260
 31
0.0
  0
SPLINE
  5
108
100
AcDbEntity
  8
0
 62
7
100
AcDbSpline
 70
0
 71
3
 72
10
 73
6
 74
4
 40
0.000000
 40
0.000000
 40
0.000000
 40
0.000000
 40
1.260051
 40
2.490051
 40
3.781976
 40
3.781976
 40
3.781976
 40
3.781976
 10
87.023046
 20
77.352260
 30
0.0
 10
87.443974
 20
77.382052
 30
0.0
 10
88.275792
 20
77.440925
 30
0.0
 10
89.462826
 20
77.946475
 30
0.0
 10
90.097357
 20
78.502864
 30
0.0
 10
90.422413
 20
78.787890
 30
0.0
 11
87.023046
 21
77.352260
 31
0.0
 11
88.272957
 21
77.511794
 31
0.0
 11
89.406040
 21
77.990357
 31
0.0
 11
90.422413
 21
78.787890
 31
0.0
  0
SPLINE
  5
109
100
AcDbEntity
  8
0
 62
7
100
AcDbSpline
 70
0
 71
3
 72
13
 73
9
 74
7
 40
0.000000
 40
0.000000
 40
0.000000
 40
0.000000
 40
1.290156
 40
2.519920
 40
3.780322
 40
12.716597
 40
21.346144
 40
30.315665
 40
30.315665
 40
30.315665
 40
30.315665
 10
90.422413
 20
78.787890
 30
0.0
 10
90.707075
 20
79.112709
 30
0.0
 10
91.263075
 20
79.747144
 30
0.0
 10
91.764319
 20
80.933564
 30
0.0
 10
92.083316
 20
84.750670
 30
0.0
 10
91.089886
 20
91.038187
 30
0.0
 10
87.816253
 20
99.396582
 30
0.0
 10
83.913039
 20
103.833452
 30
0.0
 10
81.923731
 20
106.094742
 30
0.0
 11
90.422413
 21
78.787890
 31
0.0
 11
91.218240
 21
79.803351
 31
0.0
 11
91.696685
 21
80.936228
 31
0.0
 11
91.856454
 21
82.186463
 31
0.0
 11
90.752740
 21
91.054316
 31
0.0
 11
87.441754
 21
99.023409
 31
0.0
 11
81.923731
 21
106.094742
 31
0.0
  0
SPLINE
  5
10a
100
AcDbEntity
  8
0
 62
7
100
AcDbSpline
 70
0
 71
3
 72
13
 73
9
 74
7
 40
0.000000
 40
0.000000
 40
0.000000
 40
0.000000
 40
8.970372
 40
17.600540
 40
26.536416
 40
35.472660
 40
44.102766
 40
53.073177
 40
53.073177
 40
53.073177
 40
53.073177
 10
81.923731
 20
106.094742
 30
0.0
 10
79.662368
 20
108.078240
 30
0.0
 10
75.225404
 20
111.970013
 30
0.0
 10
66.866719
 20
115.333154
 30
0.0
 10
58.014804
 20
116.382247
 30
0.0
 10
49.162884
 20
115.333216
 30
0.0
 10
40.804116
 20
111.970034
 30
0.0
 10
36.367026
 20
108.078430
 30
0.0
 10
34.105585
 20
106.095006
 30
0.0
 11
81.923731
 21
106.094742
 31
0.0
 11
74.852085
 21
111.613744
 31
0.0
 11
66.882384
 21
114.924887
 31
0.0
 11
58.014923
 21
116.028523
 31
0.0
 11
49.147089
 21
114.924897
 31
0.0
 11
41.177428
 21
111.613823
 31
0.0
 11
34.105585
 21
106.095006
 31
0.0
  0
LINE
  5
10b
100
AcDbEntity
  8
0
 62
7
100
AcDbLine
 10
24.172598
 20
82.186727
 30
0.0
 11
24.172598
 21
58.014394
 31
0.0
  0
LINE
  5
10c
100
AcDbEntity
  8
0
 62
7
100
AcDbLine
 10
24.172598
 20
58.014394
 30
0.0
 11
21.755629
 21
58.014394
 31
0.0
  0
SPLINE
  5
10d
100
AcDbEntity
  8
0
 62
7
100
AcDbSpline
 70
0
 71
3
 72
10
 73
6
 74
4
 40
0.000000
 40
0.000000
 40
0.000000
 40
0.000000
 40
8.969430
 40
17.599144
 40
26.535588
 40
26.535588
 40
26.535588
 40
26.535588
 10
34.105585
 20
106.095006
 30
0.0
 10
32.130224
 20
103.833845
 30
0.0
 10
28.254318
 20
99.397164
 30
0.0
 10
24.777286
 20
91.038769
 30
0.0
 10
24.376493
 20
85.171558
 30
0.0
 10
24.172598
 20
82.186727
 30
0.0
 11
34.105585
 21
106.095006
 31
0.0
 11
28.587259
 21
99.024026
 31
0.0
 11
25.276263
 21
91.054757
 31
0.0
 11
24.172598
 21
82.186727
 31
0.0
  0
LINE
  5
10e
100
AcDbEntity
  8
0
 62
7
100
AcDbLine
 10
14.503929
 20
50.763223
 30
0.0
 11
14.503929
 21
7.251965
 31
0.0
  0
SPLINE
  5
10f
100
AcDbEntity
  8
0
 62
7
100
AcDbSpline
 70
0
 71
3
 72
13
 73
9
 74
7
 40
0.000000
 40
0.000000
 40
0.000000
 40
0.000000
 40
1.927723
 40
3.779492
 40
5.693203
 40
7.606755
 40
9.458619
 40
11.386964
 40
11.386964
 40
11.386964
 40
11.386964
 10
21.755629
 20
58.014394
 30
0.0
 10
21.110608
 20
57.972361
 30
0.0
 10
19.845979
 20
57.889952
 30
0.0
 10
18.066869
 20
57.134507
 30
0.0
 10
16.565142
 20
55.953853
 30
0.0
 10
15.383334
 20
54.452831
 30
0.0
 10
14.628181
 20
52.673310
 30
0.0
 10
14.545901
 20
51.408449
 30
0.0
 10
14.503929
 20
50.763223
 30
0.0
 11
21.755629
 21
58.014394
 31
0.0
 11
19.842300
 21
57.779267
 31
0.0
 11
18.129995
 21
57.074241
 31
0.0
 11
16.619008
 21
55.899844
 31
0.0
 11
15.443886
 21
54.389622
 31
0.0
 11
14.738899
 21
52.677199
 31
0.0
 11
14.503929
 21
50.763223
 31
0.0
  0
SPLINE
  5
110
100
AcDbEntity
  8
0
 62
7
100
AcDbSpline
 70
0
 71
3
 72
10
 73
6
 74
4
 40
0.000000
 40
0.000000
 40
0.000000
 40
0.000000
 40
1.928732
 40
3.780645
 40
5.694427
 40
5.694427
 40
5.694427
 40
5.694427
 10
14.503929
 20
7.251965
 30
0.0
 10
14.547110
 20
6.607813
 30
0.0
 10
14.631751
 20
5.345165
 30
0.0
 10
15.369716
 20
3.548091
 30
0.0
 10
16.198041
 20
2.597602
 30
0.0
 10
16.619008
 20
2.114550
 30
0.0
 11
14.503929
 21
7.251965
 31
0.0
 11
14.738958
 21
5.337606
 31
0.0
 11
15.444004
 21
3.625154
 31
0.0
 11
16.619008
 21
2.114550
 31
0.0
  0
LINE
  5
111
100
AcDbEntity
  8
0
 62
7
100
AcDbLine
 10
21.755629
 20
0.000265
 30
0.0
 11
94.272100
 21
0.000265
 31
0.0
  0
SPLINE
  5
112
100
AcDbEntity
  8
0
 62
7
100
AcDbSpline
 70
0
 71
3
 72
10
 73
6
 74
4
 40
0.000000
 40
0.000000
 40
0.000000
 40
0.000000
 40
1.913669
 40
3.765390
 40
5.693104
 40
5.693104
 40
5.693104
 40
5.693104
 10
16.619008
 20
2.114550
 30
0.0
 10
17.102228
 20
1.693854
 30
0.0
 10
18.053024
 20
0.866080
 30
0.0
 10
19.849579
 20
0.128234
 30
0.0
 10
21.111819
 20
0.043489
 30
0.0
 10
21.755629
 20
0.000265
 30
0.0
 11
16.619008
 21
2.114550
 31
0.0
 11
18.129995
 21
0.940221
 31
0.0
 11
19.842300
 21
0.235322
 31
0.0
 11
21.755629
 21
0.000265
 31
0.0
  0
SPLINE
  5
113
100
AcDbEntity
  8
0
 62
7
100
AcDbSpline
 70
0
 71
3
 72
10
 73
6
 74
4
 40
0.000000
 40
0.000000
 40
0.000000
 40
0.000000
 40
1.928910
 40
3.780931
 40
5.694019
 40
5.694019
 40
5.694019
 40
5.694019
 10
94.272100
 20
0.000265
 30
0.0
 10
94.916305
 20
0.043470
 30
0.0
 10
96.179037
 20
0.128158
 30
0.0
 10
97.976067
 20
0.865805
 30
0.0
 10
98.926560
 20
1.693825
 30
0.0
 10
99.409515
 20
2.114550
 30
0.0
 11
94.272100
 21
0.000265
 31
0.0
 11
96.186635
 21
0.235322
 31
0.0
 11
97.899263
 21
0.940221
 31
0.0
 11
99.409515
 21
2.114550
 31
0.0
  0
LINE
  5
114
100
AcDbEntity
  8
0
 62
7
100
AcDbLine
 10
101.524594
 20
7.251965
 30
0.0
 11
101.524594
 21
50.762958
 31
0.0
  0
SPLINE
  5
115
100
AcDbEntity
  8
0
 62
7
100
AcDbSpline
 70
0
 71
3
 72
10
 73
6
 74
4
 40
0.000000
 40
0.000000
 40
0.000000
 40
0.000000
 40
1.913493
 40
3.765496
 40
5.694256
 40
5.694256
 40
5.694256
 40
5.694256
 10
99.409515
 20
2.114550
 30
0.0
 10
99.830273
 20
2.597637
 30
0.0
 10
100.658269
 20
3.548286
 30
0.0
 10
101.396563
 20
5.345109
 30
0.0
 10
101.481343
 20
6.607801
 30
0.0
 10
101.524594
 20
7.251965
 30
0.0
 11
99.409515
 21
2.114550
 31
0.0
 11
100.584049
 21
3.625154
 31
0.0
 11
101.289330
 21
5.337606
 31
0.0
 11
101.524594
 21
7.251965
 31
0.0
  0
LINE
  5
116
100
AcDbEntity
  8
0
 62
7
100
AcDbLine
 10
99.409515
 20
55.899579
 30
0.0
 11
99.409515
 21
55.899579
 31
0.0
  0
SPLINE
  5
117
100
AcDbEntity
  8
0
 62
7
100
AcDbSpline
 70
0
 71
3
 72
10
 73
6
 74
4
 40
0.000000
 40
0.000000
 40
0.000000
 40
0.000000
 40
1.927865
 40
3.779393
 40
5.693884
 40
5.693884
 40
5.693884
 40
5.693884
 10
101.524594
 20
50.762958
 30
0.0
 10
101.481681
 20
51.406857
 30
0.0
 10
101.397555
 20
52.669158
 30
0.0
 10
100.659140
 20
54.465909
 30
0.0
 10
99.830673
 20
55.416392
 30
0.0
 10
99.409515
 20
55.899579
 30
0.0
 11
101.524594
 21
50.762958
 31
0.0
 11
101.290212
 21
52.676523
 31
0.0
 11
100.585107
 21
54.388534
 31
0.0
 11
99.409515
 21
55.899579
 31
0.0
  0
ENDSEC
  0
SECTION
  2
OBJECTS
  0
DICTIONARY
  5
C
330
0
100
AcDbDictionary
  3
ACAD_GROUP
350
D
  3
ACAD_MLINESTYLE
350
17
  0
DICTIONARY
  5
D
330
C
100
AcDbDictionary
  0
DICTIONARY
  5
1A
330
C
100
AcDbDictionary
  0
DICTIONARY
  5
17
330
C
100
AcDbDictionary
  3
STANDARD
350
18
  0
DICTIONARY
  5
19
330
C
100
AcDbDictionary
  0
ENDSEC
  0
EOF
